<?xml version="1.0" encoding="UTF-8" standalone="no"?>
<!DOCTYPE svg PUBLIC "-//W3C//DTD SVG 1.1//EN" "http://www.w3.org/Graphics/SVG/1.1/DTD/svg11.dtd">
<svg width="100%" height="100%" viewBox="0 0 625 170" version="1.1" xmlns="http://www.w3.org/2000/svg" xmlns:xlink="http://www.w3.org/1999/xlink" xml:space="preserve" xmlns:serif="http://www.serif.com/" style="fill-rule:evenodd;clip-rule:evenodd;stroke-miterlimit:10;">
    <g id="g10" transform="matrix(1.33333,0,0,-1.33333,-90.9653,1046.11)">
        <g id="g18">
            <g id="g20">
                <clipPath id="_clip1">
                    <rect x="72.115" y="674.322" width="144.046" height="104.76"/>
                </clipPath>
                <g clip-path="url(#_clip1)">
                    <g id="g26" transform="matrix(0.59523,0,0,-0.59523,86.4005,683.25)">
                        <path id="path28" d="M0,0L3.15,0M212.95,0L209.8,0" style="fill:none;fill-rule:nonzero;stroke:black;stroke-width:0.5px;"/>
                    </g>
                    <g transform="matrix(0.59523,0,0,-0.59523,79.5186,681.265)">
                        <g id="g30">
                            <g id="text34">
                                <text x="0px" y="0px" style="font-family:'Helvetica';font-size:10px;">0</text>
                            </g>
                        </g>
                    </g>
                    <g id="g36" transform="matrix(0.59523,0,0,-0.59523,86.4005,701.941)">
                        <path id="path38" d="M0,0L3.15,0M212.95,0L209.8,0" style="fill:none;fill-rule:nonzero;stroke:black;stroke-width:0.5px;"/>
                    </g>
                    <g transform="matrix(0.59523,0,0,-0.59523,74.5544,699.956)">
                        <g id="g40">
                            <g id="text44">
                                <text x="0px" y="0px" style="font-family:'Helvetica';font-size:10px;">0.2</text>
                            </g>
                        </g>
                    </g>
                    <g id="g46" transform="matrix(0.59523,0,0,-0.59523,86.4005,720.631)">
                        <path id="path48" d="M0,0L3.15,0M212.95,0L209.8,0" style="fill:none;fill-rule:nonzero;stroke:black;stroke-width:0.5px;"/>
                    </g>
                    <g transform="matrix(0.59523,0,0,-0.59523,74.5544,718.646)">
                        <g id="g50">
                            <g id="text54">
                                <text x="0px" y="0px" style="font-family:'Helvetica';font-size:10px;">0.4</text>
                            </g>
                        </g>
                    </g>
                    <g id="g56" transform="matrix(0.59523,0,0,-0.59523,86.4005,739.291)">
                        <path id="path58" d="M0,0L3.15,0M212.95,0L209.8,0" style="fill:none;fill-rule:nonzero;stroke:black;stroke-width:0.5px;"/>
                    </g>
                    <g transform="matrix(0.59523,0,0,-0.59523,74.5544,737.306)">
                        <g id="g60">
                            <g id="text64">
                                <text x="0px" y="0px" style="font-family:'Helvetica';font-size:10px;">0.6</text>
                            </g>
                        </g>
                    </g>
                    <g id="g66" transform="matrix(0.59523,0,0,-0.59523,86.4005,757.982)">
                        <path id="path68" d="M0,0L3.15,0M212.95,0L209.8,0" style="fill:none;fill-rule:nonzero;stroke:black;stroke-width:0.5px;"/>
                    </g>
                    <g transform="matrix(0.59523,0,0,-0.59523,74.5544,755.996)">
                        <g id="g70">
                            <g id="text74">
                                <text x="0px" y="0px" style="font-family:'Helvetica';font-size:10px;">0.8</text>
                            </g>
                        </g>
                    </g>
                    <g id="g76" transform="matrix(0.59523,0,0,-0.59523,86.4005,776.672)">
                        <path id="path78" d="M0,0L3.15,0M212.95,0L209.8,0" style="fill:none;fill-rule:nonzero;stroke:black;stroke-width:0.5px;"/>
                    </g>
                    <g transform="matrix(0.59523,0,0,-0.59523,79.5186,774.687)">
                        <g id="g80">
                            <g id="text84">
                                <text x="0px" y="0px" style="font-family:'Helvetica';font-size:10px;">1</text>
                            </g>
                        </g>
                    </g>
                    <g id="g86" transform="matrix(0.59523,0,0,-0.59523,86.4005,683.25)">
                        <path id="path88" d="M0,0L0,-3.15M0,-156.95L0,-153.8" style="fill:none;fill-rule:nonzero;stroke:black;stroke-width:0.5px;"/>
                    </g>
                    <g transform="matrix(0.59523,0,0,-0.59523,85.572,675.313)">
                        <g id="g90">
                            <g id="text94">
                                <text x="0px" y="0px" style="font-family:'Helvetica';font-size:10px;">0</text>
                            </g>
                        </g>
                    </g>
                    <g id="g96" transform="matrix(0.59523,0,0,-0.59523,104.496,683.25)">
                        <path id="path98" d="M0,0L0,-3.15M0,-156.95L0,-153.8" style="fill:none;fill-rule:nonzero;stroke:black;stroke-width:0.5px;"/>
                    </g>
                    <g transform="matrix(0.59523,0,0,-0.59523,103.667,675.313)">
                        <g id="g100">
                            <g id="text104">
                                <text x="0px" y="0px" style="font-family:'Helvetica';font-size:10px;">1</text>
                            </g>
                        </g>
                    </g>
                    <g id="g106" transform="matrix(0.59523,0,0,-0.59523,122.62,683.25)">
                        <path id="path108" d="M0,0L0,-3.15M0,-156.95L0,-153.8" style="fill:none;fill-rule:nonzero;stroke:black;stroke-width:0.5px;"/>
                    </g>
                    <g transform="matrix(0.59523,0,0,-0.59523,121.792,675.313)">
                        <g id="g110">
                            <g id="text114">
                                <text x="0px" y="0px" style="font-family:'Helvetica';font-size:10px;">2</text>
                            </g>
                        </g>
                    </g>
                    <g id="g116" transform="matrix(0.59523,0,0,-0.59523,140.715,683.25)">
                        <path id="path118" d="M0,0L0,-3.15M0,-156.95L0,-153.8" style="fill:none;fill-rule:nonzero;stroke:black;stroke-width:0.5px;"/>
                    </g>
                    <g transform="matrix(0.59523,0,0,-0.59523,139.887,675.313)">
                        <g id="g120">
                            <g id="text124">
                                <text x="0px" y="0px" style="font-family:'Helvetica';font-size:10px;">3</text>
                            </g>
                        </g>
                    </g>
                    <g id="g126" transform="matrix(0.59523,0,0,-0.59523,158.84,683.25)">
                        <path id="path128" d="M0,0L0,-3.15M0,-156.95L0,-153.8" style="fill:none;fill-rule:nonzero;stroke:black;stroke-width:0.5px;"/>
                    </g>
                    <g transform="matrix(0.59523,0,0,-0.59523,158.012,675.313)">
                        <g id="g130">
                            <g id="text134">
                                <text x="0px" y="0px" style="font-family:'Helvetica';font-size:10px;">4</text>
                            </g>
                        </g>
                    </g>
                    <g id="g136" transform="matrix(0.59523,0,0,-0.59523,176.935,683.25)">
                        <path id="path138" d="M0,0L0,-3.15M0,-156.95L0,-153.8" style="fill:none;fill-rule:nonzero;stroke:black;stroke-width:0.5px;"/>
                    </g>
                    <g transform="matrix(0.59523,0,0,-0.59523,176.107,675.313)">
                        <g id="g140">
                            <g id="text144">
                                <text x="0px" y="0px" style="font-family:'Helvetica';font-size:10px;">5</text>
                            </g>
                        </g>
                    </g>
                    <g id="g146" transform="matrix(0.59523,0,0,-0.59523,195.06,683.25)">
                        <path id="path148" d="M0,0L0,-3.15M0,-156.95L0,-153.8" style="fill:none;fill-rule:nonzero;stroke:black;stroke-width:0.5px;"/>
                    </g>
                    <g transform="matrix(0.59523,0,0,-0.59523,194.231,675.313)">
                        <g id="g150">
                            <g id="text154">
                                <text x="0px" y="0px" style="font-family:'Helvetica';font-size:10px;">6</text>
                            </g>
                        </g>
                    </g>
                    <g id="g156" transform="matrix(0.59523,0,0,-0.59523,213.155,683.25)">
                        <path id="path158" d="M0,0L0,-3.15M0,-156.95L0,-153.8" style="fill:none;fill-rule:nonzero;stroke:black;stroke-width:0.5px;"/>
                    </g>
                    <g transform="matrix(0.59523,0,0,-0.59523,212.326,675.313)">
                        <g id="g160">
                            <g id="text164">
                                <text x="0px" y="0px" style="font-family:'Helvetica';font-size:10px;">7</text>
                            </g>
                        </g>
                    </g>
                    <g id="g166" transform="matrix(0.59523,0,0,-0.59523,86.4005,683.25)">
                        <rect id="path168" x="0" y="-156.95" width="212.95" height="156.95" style="fill:none;fill-rule:nonzero;stroke:black;stroke-width:1px;"/>
                    </g>
                    <g id="g170" transform="matrix(0.59523,0,0,-0.59523,86.4005,776.672)">
                        <path id="path172" d="M0,0L2.15,7.5L4.3,14.65L6.45,21.45L8.6,27.95L10.75,34.1L12.9,40L15.05,45.6L17.2,50.9L19.35,56L21.5,60.8L23.65,65.4L25.8,69.8L27.95,73.95L30.1,77.9L32.25,81.7L34.4,85.3L36.55,88.75L38.7,92L40.85,95.1L43,98.05L45.15,100.85L47.3,103.55L49.45,106.1L51.6,108.55L53.8,110.85L55.95,113.05L58.1,115.15L60.25,117.15L62.4,119.05L64.55,120.85L66.7,122.6L68.85,124.25L71,125.8L73.15,127.3L75.3,128.7L77.45,130.05L79.6,131.35L81.75,132.6L83.9,133.75L86.05,134.85L88.2,135.9L90.35,136.9L94.65,138.8L98.95,140.5L105.4,142.75L111.851,144.7L118.301,146.35L122.601,147.35L126.901,148.25L133.351,149.45L137.65,150.15L146.25,151.35L154.85,152.35L159.15,152.75L161.35,152.95L165.65,153.35L167.8,153.5L169.95,153.7L176.4,154.15L178.55,154.25L180.7,154.4L182.85,154.5L185,154.65L195.75,155.15L197.9,155.2L202.2,155.4L204.35,155.45L206.5,155.55L212.95,155.7" style="fill:none;fill-rule:nonzero;stroke:rgb(211,0,14);stroke-width:1.5px;stroke-dasharray:5,1;"/>
                    </g>
                    <g id="g174" transform="matrix(0.59523,0,0,-0.59523,86.4005,683.25)">
                        <path id="path176" d="M0,0L212.95,0L212.95,-156.95L0,-156.95L0,0ZM270,0L273.15,0L270,0ZM752.85,0L749.7,0L752.85,0Z" style="fill:none;fill-rule:nonzero;stroke:black;stroke-width:0.5px;"/>
                    </g>
                </g>
            </g>
        </g>
        <g id="g178">
            <g id="g180">
                <clipPath id="_clip2">
                    <path d="M95.833,774.647C95.775,774.756 95.759,774.799 95.618,774.799C95.477,774.799 95.461,774.756 95.402,774.647L92.6,768.957C92.559,768.881 92.559,768.865 92.559,768.856C92.559,768.789 92.609,768.789 92.742,768.789L98.494,768.789C98.627,768.789 98.677,768.789 98.677,768.856C98.677,768.864 98.677,768.881 98.635,768.957L95.833,774.647ZM95.347,773.956L97.574,769.421L93.112,769.421L95.347,773.956Z"/>
                </clipPath>
                <g clip-path="url(#_clip2)">
                    <g id="g186">
                        <rect id="path192" x="89.583" y="765.813" width="12.071" height="11.962"/>
                    </g>
                </g>
            </g>
        </g>
        <g id="g194">
            <g id="g196">
                <clipPath id="_clip3">
                    <path d="M107.029,771.525C107.153,771.525 107.31,771.525 107.31,771.689C107.31,771.852 107.153,771.852 107.037,771.852L102.088,771.852C101.973,771.852 101.816,771.852 101.816,771.689C101.816,771.525 101.973,771.525 102.097,771.525L107.029,771.525ZM107.037,769.911C107.152,769.911 107.31,769.911 107.31,770.075C107.31,770.239 107.152,770.239 107.029,770.239L102.096,770.239C101.972,770.239 101.815,770.239 101.815,770.075C101.815,769.911 101.972,769.911 102.088,769.911L107.037,769.911Z"/>
                </clipPath>
                <g clip-path="url(#_clip3)">
                    <g id="g202">
                        <rect id="path208" x="98.839" y="766.935" width="11.447" height="7.893"/>
                    </g>
                </g>
            </g>
        </g>
        <g id="g210">
            <g id="g212">
                <clipPath id="_clip4">
                    <path d="M113.91,771.473C113.91,772.145 113.868,772.817 113.578,773.438C113.197,774.243 112.519,774.378 112.171,774.378C111.675,774.378 111.07,774.16 110.731,773.379C110.466,772.8 110.424,772.145 110.424,771.473C110.424,770.843 110.457,770.088 110.797,769.45C111.153,768.77 111.757,768.602 112.163,768.602C112.61,768.602 113.239,768.779 113.603,769.576C113.868,770.155 113.91,770.81 113.91,771.473ZM112.163,768.789C111.842,768.789 111.356,768.999 111.208,769.804C111.117,770.308 111.117,771.079 111.117,771.574C111.117,772.111 111.117,772.664 111.183,773.117C111.34,774.115 111.957,774.191 112.163,774.191C112.435,774.191 112.978,774.04 113.135,773.209C113.217,772.74 113.217,772.102 113.217,771.574C113.217,770.945 113.217,770.374 113.126,769.838C113.003,769.041 112.534,768.79 112.163,768.79L112.163,768.789Z"/>
                </clipPath>
                <g clip-path="url(#_clip4)">
                    <g id="g218">
                        <rect id="path224" x="107.448" y="765.626" width="9.438" height="11.728"/>
                    </g>
                </g>
            </g>
        </g>
        <g id="g226">
            <g id="g228">
                <clipPath id="_clip5">
                    <path d="M112.442,732.997C112.384,733.099 112.367,733.139 112.225,733.139C112.082,733.139 112.066,733.099 112.007,732.997L109.176,727.632C109.134,727.561 109.134,727.545 109.134,727.537C109.134,727.474 109.184,727.474 109.319,727.474L115.131,727.474C115.265,727.474 115.316,727.474 115.316,727.537C115.316,727.545 115.316,727.561 115.273,727.632L112.442,732.997ZM111.951,732.344L114.201,728.07L109.693,728.07L111.951,732.344Z"/>
                </clipPath>
                <g clip-path="url(#_clip5)">
                    <g id="g234">
                        <rect id="path240" x="106.158" y="724.498" width="12.134" height="11.618"/>
                    </g>
                </g>
            </g>
        </g>
        <g id="g242">
            <g id="g244">
                <clipPath id="_clip6">
                    <path d="M123.776,730.053C123.902,730.053 124.061,730.053 124.061,730.207C124.061,730.362 123.902,730.362 123.785,730.362L118.785,730.362C118.669,730.362 118.51,730.362 118.51,730.207C118.51,730.053 118.669,730.053 118.794,730.053L123.776,730.053ZM123.785,728.532C123.902,728.532 124.061,728.532 124.061,728.686C124.061,728.84 123.902,728.84 123.776,728.84L118.794,728.84C118.668,728.84 118.51,728.84 118.51,728.686C118.51,728.532 118.668,728.532 118.785,728.532L123.785,728.532Z"/>
                </clipPath>
                <g clip-path="url(#_clip6)">
                    <g id="g250">
                        <rect id="path256" x="115.533" y="725.556" width="11.504" height="7.782"/>
                    </g>
                </g>
            </g>
        </g>
        <g id="g258">
            <g id="g260">
                <clipPath id="_clip7">
                    <path d="M129.254,732.876C129.254,732.884 129.254,732.963 129.146,732.963C128.954,732.963 128.345,732.9 128.127,732.884C128.061,732.876 127.969,732.869 127.969,732.727C127.969,732.632 128.044,732.632 128.169,732.632C128.57,732.632 128.587,732.577 128.587,732.497L128.561,732.339L127.351,727.781C127.318,727.671 127.318,727.655 127.318,727.608C127.318,727.425 127.485,727.386 127.559,727.386C127.693,727.386 127.827,727.481 127.868,727.591L128.027,728.194L128.21,728.908C128.26,729.082 128.31,729.256 128.352,729.438C128.368,729.486 128.436,729.747 128.444,729.795C128.469,729.866 128.727,730.31 129.011,730.524C129.195,730.651 129.453,730.802 129.812,730.802C130.17,730.802 130.262,730.532 130.262,730.247C130.262,729.819 129.943,728.955 129.742,728.471C129.674,728.289 129.632,728.194 129.632,728.036C129.632,727.663 129.927,727.386 130.322,727.386C131.112,727.386 131.424,728.541 131.424,728.604C131.424,728.683 131.349,728.683 131.324,728.683C131.24,728.683 131.24,728.659 131.198,728.541C131.073,728.122 130.805,727.562 130.346,727.562C130.204,727.562 130.145,727.641 130.145,727.823C130.145,728.021 130.22,728.212 130.294,728.386C130.427,728.727 130.799,729.67 130.799,730.13C130.799,730.645 130.464,730.978 129.838,730.978C129.312,730.978 128.912,730.73 128.603,730.359"/>
                </clipPath>
                <g clip-path="url(#_clip7)">
                    <g id="g266">
                        <rect id="path272" x="124.342" y="724.41" width="10.058" height="11.53"/>
                    </g>
                </g>
            </g>
        </g>
        <g id="g274">
            <g id="g276">
                <clipPath id="_clip8">
                    <path d="M189.668,695.412C189.61,695.514 189.594,695.554 189.455,695.554C189.315,695.554 189.299,695.514 189.241,695.412L186.462,690.102C186.421,690.031 186.421,690.015 186.421,690.007C186.421,689.945 186.469,689.945 186.601,689.945L192.308,689.945C192.44,689.945 192.489,689.945 192.489,690.007C192.489,690.016 192.489,690.031 192.448,690.102L189.668,695.412ZM189.186,694.766L191.394,690.534L186.969,690.534L189.186,694.766Z"/>
                </clipPath>
                <g clip-path="url(#_clip8)">
                    <g id="g282">
                        <rect id="path288" x="183.444" y="686.969" width="12.021" height="11.561"/>
                    </g>
                </g>
            </g>
        </g>
        <g id="g290">
            <g id="g292">
                <clipPath id="_clip9">
                    <path d="M200.258,691.725C200.357,691.781 200.414,691.804 200.414,691.898C200.414,691.992 200.357,692.016 200.258,692.071L195.931,694.328C195.898,694.344 195.841,694.375 195.783,694.375C195.709,694.375 195.619,694.328 195.619,694.218C195.619,694.132 195.685,694.1 195.783,694.045L199.905,691.898L195.783,689.75C195.685,689.695 195.619,689.664 195.619,689.578C195.619,689.421 195.775,689.421 195.832,689.421L200.258,691.725ZM202.762,691.725C202.861,691.781 202.919,691.804 202.919,691.898C202.919,691.992 202.861,692.016 202.762,692.071L198.435,694.328C198.402,694.344 198.345,694.375 198.287,694.375C198.213,694.375 198.123,694.328 198.123,694.218C198.123,694.132 198.189,694.1 198.287,694.045L202.409,691.898L198.287,689.75C198.189,689.695 198.123,689.664 198.123,689.578C198.123,689.421 198.279,689.421 198.337,689.421L202.762,691.725Z"/>
                </clipPath>
                <g clip-path="url(#_clip9)">
                    <g id="g298">
                        <rect id="path304" x="192.643" y="686.445" width="13.252" height="10.906"/>
                    </g>
                </g>
            </g>
        </g>
        <g id="g306">
            <g id="g308">
                <clipPath id="_clip10">
                    <path d="M208.005,695.293C208.005,695.301 208.005,695.379 207.899,695.379C207.71,695.379 207.112,695.316 206.899,695.301C206.833,695.293 206.744,695.285 206.744,695.146C206.744,695.052 206.817,695.052 206.94,695.052C207.333,695.052 207.35,694.997 207.35,694.918L207.325,694.762L206.137,690.25C206.104,690.14 206.104,690.124 206.104,690.077C206.104,689.897 206.268,689.858 206.342,689.858C206.473,689.858 206.604,689.952 206.645,690.062L206.8,690.658L206.98,691.364C207.029,691.537 207.079,691.709 207.12,691.89C207.136,691.937 207.202,692.196 207.21,692.243C207.234,692.313 207.488,692.753 207.767,692.965C207.946,693.09 208.201,693.24 208.553,693.24C208.905,693.24 208.995,692.972 208.995,692.69C208.995,692.266 208.682,691.411 208.484,690.933C208.418,690.752 208.377,690.658 208.377,690.501C208.377,690.132 208.665,689.858 209.054,689.858C209.83,689.858 210.136,691.001 210.136,691.064C210.136,691.142 210.061,691.142 210.037,691.142C209.955,691.142 209.955,691.119 209.914,691.001C209.791,690.587 209.529,690.032 209.077,690.032C208.937,690.032 208.88,690.111 208.88,690.291C208.88,690.487 208.953,690.675 209.026,690.848C209.157,691.186 209.521,692.119 209.521,692.574C209.521,693.084 209.193,693.415 208.579,693.415C208.063,693.415 207.669,693.168 207.366,692.802"/>
                </clipPath>
                <g clip-path="url(#_clip10)">
                    <g id="g314">
                        <rect id="path320" x="203.128" y="686.882" width="9.984" height="11.474"/>
                    </g>
                </g>
            </g>
        </g>
        <g id="g322" transform="matrix(0.75,0,0,-0.75,68.224,784.582)">
        </g>
        <g id="g380">
            <g id="g382">
                <clipPath id="_clip11">
                    <rect x="218.888" y="674.322" width="306.544" height="104.76"/>
                </clipPath>
                <g clip-path="url(#_clip11)">
                    <g id="g388" transform="matrix(0.59523,0,0,-0.59523,73.0567,683.25)">
                        <path id="path390" d="M0,0L212.95,0L212.95,-156.95L0,-156.95L0,0ZM270,0L273.15,0L270,0ZM752.85,0L749.7,0L752.85,0Z" style="fill:none;fill-rule:nonzero;stroke:black;stroke-width:0.5px;"/>
                    </g>
                    <g transform="matrix(0.59523,0,0,-0.59523,226.887,681.265)">
                        <g id="g392">
                            <g id="text396">
                                <text x="0px" y="0px" style="font-family:'Helvetica';font-size:10px;">0</text>
                            </g>
                        </g>
                    </g>
                    <g id="g398" transform="matrix(0.59523,0,0,-0.59523,233.769,701.941)">
                        <path id="path400" d="M0,0L3.15,0M482.85,0L479.7,0" style="fill:none;fill-rule:nonzero;stroke:black;stroke-width:0.5px;"/>
                    </g>
                    <g transform="matrix(0.59523,0,0,-0.59523,221.923,699.956)">
                        <g id="g402">
                            <g id="text406">
                                <text x="0px" y="0px" style="font-family:'Helvetica';font-size:10px;">0.2</text>
                            </g>
                        </g>
                    </g>
                    <g id="g408" transform="matrix(0.59523,0,0,-0.59523,233.769,720.631)">
                        <path id="path410" d="M0,0L3.15,0M482.85,0L479.7,0" style="fill:none;fill-rule:nonzero;stroke:black;stroke-width:0.5px;"/>
                    </g>
                    <g transform="matrix(0.59523,0,0,-0.59523,221.923,718.646)">
                        <g id="g412">
                            <g id="text416">
                                <text x="0px" y="0px" style="font-family:'Helvetica';font-size:10px;">0.4</text>
                            </g>
                        </g>
                    </g>
                    <g id="g418" transform="matrix(0.59523,0,0,-0.59523,233.769,739.291)">
                        <path id="path420" d="M0,0L3.15,0M482.85,0L479.7,0" style="fill:none;fill-rule:nonzero;stroke:black;stroke-width:0.5px;"/>
                    </g>
                    <g transform="matrix(0.59523,0,0,-0.59523,221.923,737.306)">
                        <g id="g422">
                            <g id="text426">
                                <text x="0px" y="0px" style="font-family:'Helvetica';font-size:10px;">0.6</text>
                            </g>
                        </g>
                    </g>
                    <g id="g428" transform="matrix(0.59523,0,0,-0.59523,233.769,757.982)">
                        <path id="path430" d="M0,0L3.15,0M482.85,0L479.7,0" style="fill:none;fill-rule:nonzero;stroke:black;stroke-width:0.5px;"/>
                    </g>
                    <g transform="matrix(0.59523,0,0,-0.59523,221.923,755.996)">
                        <g id="g432">
                            <g id="text436">
                                <text x="0px" y="0px" style="font-family:'Helvetica';font-size:10px;">0.8</text>
                            </g>
                        </g>
                    </g>
                    <g id="g438" transform="matrix(0.59523,0,0,-0.59523,233.769,776.672)">
                        <path id="path440" d="M0,0L3.15,0M482.85,0L479.7,0" style="fill:none;fill-rule:nonzero;stroke:black;stroke-width:0.5px;"/>
                    </g>
                    <g transform="matrix(0.59523,0,0,-0.59523,226.887,774.687)">
                        <g id="g442">
                            <g id="text446">
                                <text x="0px" y="0px" style="font-family:'Helvetica';font-size:10px;">1</text>
                            </g>
                        </g>
                    </g>
                    <g id="g448" transform="matrix(0.59523,0,0,-0.59523,233.769,683.25)">
                        <path id="path450" d="M0,0L0,-3.15M0,-156.95L0,-153.8" style="fill:none;fill-rule:nonzero;stroke:black;stroke-width:0.5px;"/>
                    </g>
                    <g transform="matrix(0.59523,0,0,-0.59523,232.94,675.313)">
                        <g id="g452">
                            <g id="text456">
                                <text x="0px" y="0px" style="font-family:'Helvetica';font-size:10px;">0</text>
                            </g>
                        </g>
                    </g>
                    <g id="g458" transform="matrix(0.59523,0,0,-0.59523,281.685,683.25)">
                        <path id="path460" d="M0,0L0,-3.15M0,-156.95L0,-153.8" style="fill:none;fill-rule:nonzero;stroke:black;stroke-width:0.5px;"/>
                    </g>
                    <g transform="matrix(0.59523,0,0,-0.59523,280.392,675.313)">
                        <g id="g462">
                            <g id="text466">
                                <text x="0px" y="0px" style="font-family:'Helvetica';font-size:10px;">5</text>
                            </g>
                        </g>
                    </g>
                    <g id="g468" transform="matrix(0.59523,0,0,-0.59523,329.571,683.25)">
                        <path id="path470" d="M0,0L0,-3.15M0,-156.95L0,-153.8" style="fill:none;fill-rule:nonzero;stroke:black;stroke-width:0.5px;"/>
                    </g>
                    <g transform="matrix(0.59523,0,0,-0.59523,327.087,675.313)">
                        <g id="g472">
                            <g id="text476">
                                <text x="0px" y="0px" style="font-family:'Helvetica';font-size:10px;">10</text>
                            </g>
                        </g>
                    </g>
                    <g id="g478" transform="matrix(0.59523,0,0,-0.59523,377.487,683.25)">
                        <path id="path480" d="M0,0L0,-3.15M0,-156.95L0,-153.8" style="fill:none;fill-rule:nonzero;stroke:black;stroke-width:0.5px;"/>
                    </g>
                    <g transform="matrix(0.59523,0,0,-0.59523,375.003,675.313)">
                        <g id="g482">
                            <g id="text486">
                                <text x="0px" y="0px" style="font-family:'Helvetica';font-size:10px;">15</text>
                            </g>
                        </g>
                    </g>
                    <g id="g488" transform="matrix(0.59523,0,0,-0.59523,425.373,683.25)">
                        <path id="path490" d="M0,0L0,-3.15M0,-156.95L0,-153.8" style="fill:none;fill-rule:nonzero;stroke:black;stroke-width:0.5px;"/>
                    </g>
                    <g transform="matrix(0.59523,0,0,-0.59523,422.89,675.313)">
                        <g id="g492">
                            <g id="text496">
                                <text x="0px" y="0px" style="font-family:'Helvetica';font-size:10px;">20</text>
                            </g>
                        </g>
                    </g>
                    <g id="g498" transform="matrix(0.59523,0,0,-0.59523,473.289,683.25)">
                        <path id="path500" d="M0,0L0,-3.15M0,-156.95L0,-153.8" style="fill:none;fill-rule:nonzero;stroke:black;stroke-width:0.5px;"/>
                    </g>
                    <g transform="matrix(0.59523,0,0,-0.59523,470.806,675.313)">
                        <g id="g502">
                            <g id="text506">
                                <text x="0px" y="0px" style="font-family:'Helvetica';font-size:10px;">25</text>
                            </g>
                        </g>
                    </g>
                    <g id="g508" transform="matrix(0.59523,0,0,-0.59523,521.176,683.25)">
                        <path id="path510" d="M0,0L0,-3.15M0,-156.95L0,-153.8" style="fill:none;fill-rule:nonzero;stroke:black;stroke-width:0.5px;"/>
                    </g>
                    <g transform="matrix(0.59523,0,0,-0.59523,518.692,675.313)">
                        <g id="g512">
                            <g id="text516">
                                <text x="0px" y="0px" style="font-family:'Helvetica';font-size:10px;">30</text>
                            </g>
                        </g>
                    </g>
                    <g id="g518" transform="matrix(0.59523,0,0,-0.59523,233.769,776.672)">
                        <path id="path520" d="M0,0L0.8,9.1L1.6,17.6L2.4,25.6L3.2,33.25L4,40.35L4.85,47.1L5.65,53.35L6.45,59.35L7.25,65L8.05,70.3L8.85,75.35L9.65,80.05L10.45,84.45L11.25,88.7L12.05,92.6L12.9,96.35L13.7,99.8L14.5,103.1L14.5,1L15.3,0.5L16.1,4.85L16.9,7.4L18.5,12.1L20.1,16.5L20.9,18.85L21.75,21.05L22.55,23.05L23.35,25.25L25.75,31.4L26.55,33.25L27.35,35.3L28.95,39.1L29.8,40.95L30.6,42.85L31.4,44.55L32.2,46.45L33,48.2L33.8,49.9L34.6,51.5L35.4,53.2L36.2,54.8L37,56.5L37.8,58.05L38.65,59.65L39.45,61.2L40.25,62.6L41.05,64.2L42.65,67L42.65,0L43.45,6.1L44.25,11.95L45.05,17.4L45.85,22.9L46.7,28.1L48.3,37.8L49.1,42.4L49.9,46.75L50.7,51.15L51.5,55.25L52.3,59.15L53.1,62.95L53.9,66.55L53.9,1L54.7,1.75L55.55,3.45L56.35,5.2L57.15,6.9L57.95,8.65L58.75,10.35L59.55,11.95L60.35,13.5L61.15,15.2L61.95,16.8L62.75,18.35L63.6,19.95L64.4,21.5L65.2,22.9L66,24.5L66.8,25.9L67.6,27.45L68.4,28.9L70.8,33.1L71.6,34.55L72.45,35.95L73.25,37.35L74.05,38.6L74.85,40L75.65,41.3L77.25,43.8L78.05,45.2L78.85,46.45L79.65,47.55L80.5,48.8L82.1,51.3L82.9,52.4L83.7,53.7L84.5,54.8L85.3,55.85L86.1,57.15L88.5,60.45L89.35,61.5L90.15,62.6L90.95,63.55L92.55,65.75L93.35,66.7L94.15,67.8L95.75,69.7L96.55,70.8L97.35,71.75L98.2,72.65L101.4,76.45L102.2,77.2L103.8,79.1L104.6,79.9L105.4,80.85L106.25,81.6L107.05,82.55L108.65,84.15L109.45,85.05L111.05,86.65L111.85,87.4L114.25,89.8L115.1,90.4L115.9,91.2L116.7,91.95L117.5,92.75L118.3,93.4L119.1,94.15L119.9,94.8L120.7,95.6L121.5,96.2L122.3,96.85L123.15,97.6L124.75,98.9L125.55,99.5L126.35,100.15L127.15,100.75L127.95,101.4L128.75,102L129.55,102.65L130.35,103.25L131.15,103.9L131.15,0.45L132,0.45L132.8,0.8L133.6,1.25L134.4,1.55L135.2,2.05L136,2.35L136.8,2.85L137.6,3.15L138.4,3.6L139.2,3.9L140.05,4.25L140.85,4.7L141.65,5L142.45,5.5L143.25,5.8L144.05,6.3L144.85,6.6L145.65,7.05L146.45,7.4L147.25,7.7L148.05,8.15L148.9,8.5L149.7,8.95L151.3,9.55L152.1,10.05L153.7,10.65L154.5,11.15L156.1,11.75L156.95,12.25L158.55,12.85L159.35,13.35L160.95,13.95L161.75,14.45L163.35,15.05L164.15,15.55" style="fill:none;fill-rule:nonzero;stroke:rgb(211,0,14);stroke-width:1.5px;stroke-dasharray:5,1;"/>
                    </g>
                    <g id="g522" transform="matrix(0.59523,0,0,-0.59523,331.476,767.416)">
                        <path id="path524" d="M0,0L0.8,0.3L1.65,0.6L2.45,0.95L3.25,1.4L4.05,1.7L4.85,2.05L5.65,2.35L6.45,2.8L7.25,3.15L8.85,3.75L9.7,4.25L12.1,5.15L12.9,5.5L13.7,5.95L14.5,6.25L15.3,6.6L17.7,7.5L18.55,8L20.15,8.6L20.95,8.95L22.55,9.55L23.35,9.9L24.15,10.35L25.75,10.95L26.6,11.3L28.2,11.9L29,12.25L31.4,13.15L32.2,13.5L33,13.95L33.8,14.25L34.6,14.6L35.45,14.9L36.25,15.2L37.05,15.55L39.45,16.45L40.25,16.8L42.65,17.7L43.5,18.05L45.1,18.65L45.9,19L48.3,19.9L49.1,20.25L50.7,20.85L51.5,21L52.35,21.35L54.75,22.25L55.55,22.6L57.15,23.2L57.95,23.55L59.55,24.15L60.4,24.45L61.2,24.65L63.6,25.55L64.4,25.9L66,26.5L66.8,26.65L67.6,27L68.4,27.3L69.25,27.6L70.05,27.95L71.65,28.55L72.45,28.7L73.25,29L74.05,29.35L75.65,29.95L76.45,30.1L77.3,30.45L78.9,31.05L79.7,31.2L80.5,31.55L82.1,32.15L82.9,32.5L83.7,32.65M83.7,32.65L85.3,33.25L86.15,33.6L86.95,33.75L88.55,34.35L89.35,34.5L90.15,34.85L91.75,35.45L92.55,35.6L93.35,35.95L94.15,36.25L95,36.4L95.8,36.7L96.6,37.05L97.4,37.35L98.2,37.5L99,37.8L99.8,38.15L100.6,38.3L102.2,38.9L103.05,39.05L103.85,39.4L104.65,39.55L106.25,40.15L107.05,40.3L107.85,40.65L108.65,40.95L109.45,41.1L110.25,41.4L111.05,41.6L111.9,41.9L112.7,42.2L113.5,42.35L114.3,42.7L115.1,42.85L116.7,43.45L117.5,43.6L118.3,43.95L119.1,44.1L119.95,44.4L120.75,44.55L121.55,44.9L122.35,45.2L123.15,45.35L123.95,45.65L124.75,45.8L125.55,46.15L126.35,46.3L127.15,46.6L127.95,46.75L128.8,47.05L129.6,47.25L130.4,47.55L131.2,47.7L132,48L132.8,48.15L133.6,48.5L134.4,48.65L135.2,48.95L136,49.1L136.85,49.45L137.65,49.6L138.45,49.9L139.25,50.05L140.05,50.35L140.85,50.55L141.65,50.85L142.45,51L143.25,51.3L144.05,51.45L144.85,51.8L145.7,51.95L146.5,52.1L147.3,52.4L148.1,52.55L148.9,52.9L149.7,53.05L150.5,53.35L152.1,53.65L152.9,54L153.75,54.15L154.55,54.45L156.15,54.75L156.95,55.1L157.75,55.25L158.55,55.55L160.15,55.85L160.95,56.2L161.75,56.35L162.6,56.65L164.2,56.95L165,57.25L165.8,57.45L166.6,57.6L167.4,57.9" style="fill:none;fill-rule:nonzero;stroke:rgb(211,0,14);stroke-width:1.5px;stroke-dasharray:5,1;"/>
                    </g>
                    <g id="g526" transform="matrix(0.59523,0,0,-0.59523,431.117,732.952)">
                        <path id="path528" d="M0,0L1.6,0.3L2.4,0.65L3.25,0.8L4.05,0.95L4.85,1.25L6.45,1.55L7.25,1.9L8.85,2.2L9.65,2.5L10.45,2.65L11.25,2.85L12.1,3.15L14.5,3.6L15.3,3.95L15.3,-72.382L17.085,-70.076L19.3,-67.35L20.15,-66.05L20.95,-64.8L21.75,-63.7L22.55,-62.45L23.35,-61.35L24.15,-60.1L25.75,-57.9L26.55,-56.65L28.15,-54.45L29,-53.35L32.2,-48.95L33,-48L33.8,-46.95L34.6,-45.85L35.4,-44.9L36.2,-43.8L37.05,-42.85L37.85,-41.75L38.65,-40.8L39.45,-39.7L41.05,-37.8L41.85,-36.9L42.65,-35.8L45.05,-32.95L45.9,-32L46.7,-31.05L47.5,-30.3L49.9,-27.45L50.7,-26.7L52.3,-24.8L53.1,-24L53.95,-23.05L54.75,-22.3L55.55,-21.35L57.15,-19.75L57.15,-73.15L57.95,-73.15L58.75,-72.8L61.15,-71.9L61.95,-71.55L62.8,-71.25L63.601,-71.1L64.401,-70.8L65.2,-70.45L67.601,-69.55L68.401,-69.2L70.001,-68.6L70.851,-68.25L71.651,-67.95L72.451,-67.8L73.251,-67.5L74.051,-67.15L76.451,-66.25L77.251,-65.9L78.051,-65.75L78.851,-65.45L79.701,-65.15L80.501,-64.8L82.101,-64.2M82.1,-64.2L82.9,-63.9L83.7,-63.7L86.1,-62.8L86.9,-62.45L87.7,-62.3L88.55,-62L89.35,-61.7L90.15,-61.35L90.95,-61.05L91.75,-60.9L92.55,-60.6L93.35,-60.25L94.95,-59.65L95.75,-59.5L96.6,-59.15L98.2,-58.55L99,-58.4L99.8,-58.05L102.2,-57.15L103,-56.95L104.6,-56.35L105.45,-56.2L106.25,-55.85L107.85,-55.25L108.65,-55.1L109.45,-54.75L111.05,-54.15L111.85,-54L112.65,-53.65L113.5,-53.35L114.3,-53.2L115.9,-52.6L116.7,-52.4L119.1,-51.5L119.9,-51.3L121.5,-50.7L122.35,-50.55L123.15,-50.2L123.95,-49.9L124.75,-49.75L125.55,-49.45L126.35,-49.3L127.15,-48.95L127.95,-48.65L128.75,-48.5L129.55,-48.2L130.4,-47.85L131.2,-47.7L132.001,-47.4L132.8,-47.1L133.601,-46.95L134.401,-46.6L135.2,-46.45L136.801,-45.85L137.601,-45.65L138.401,-45.35L139.251,-45.2L140.051,-44.9L140.851,-44.55L141.651,-44.4L142.451,-44.1L143.251,-43.95L144.051,-43.65L144.851,-43.3L145.651,-43.15L146.451,-42.85L147.301,-42.7L148.101,-42.35L148.901,-42.2L150.501,-41.6L151.301,-41.45" style="fill:none;fill-rule:nonzero;stroke:rgb(211,0,14);stroke-width:1.5px;stroke-dasharray:5,1;"/>
                    </g>
                    <g id="g530" transform="matrix(0.59523,0,0,-0.59523,233.769,683.25)">
                        <rect id="path532" x="0" y="-156.95" width="482.85" height="156.95" style="fill:none;fill-rule:nonzero;stroke:black;stroke-width:1px;"/>
                    </g>
                    <g transform="matrix(0.59523,0,0,-0.59523,239.126,771.344)">
                        <g id="g534">
                            <g id="text538">
                                <text x="0px" y="0px" style="font-family:'ZapfDingbatsITC', 'Zapf Dingbats', serif;font-size:12px;">✖</text>
                            </g>
                        </g>
                    </g>
                    <g transform="matrix(0.59523,0,0,-0.59523,255.79,727.295)">
                        <g id="g540">
                            <g id="text544">
                                <text x="0px" y="0px" style="font-family:'ZapfDingbatsITC', 'Zapf Dingbats', serif;font-size:12px;">✖</text>
                            </g>
                        </g>
                    </g>
                    <g transform="matrix(0.59523,0,0,-0.59523,262.933,771.344)">
                        <g id="g546">
                            <g id="text550">
                                <text x="0px" y="0px" style="font-family:'ZapfDingbatsITC', 'Zapf Dingbats', serif;font-size:12px;">✖</text>
                            </g>
                        </g>
                    </g>
                    <g transform="matrix(0.59523,0,0,-0.59523,307.575,755.273)">
                        <g id="g552">
                            <g id="text556">
                                <text x="0px" y="0px" style="font-family:'ZapfDingbatsITC', 'Zapf Dingbats', serif;font-size:12px;">✖</text>
                            </g>
                        </g>
                    </g>
                    <g transform="matrix(0.59523,0,0,-0.59523,461.737,771.344)">
                        <g id="g558">
                            <g id="text562">
                                <text x="0px" y="0px" style="font-family:'ZapfDingbatsITC', 'Zapf Dingbats', serif;font-size:12px;">✖</text>
                            </g>
                        </g>
                    </g>
                    <g transform="matrix(0.59523,0,0,-0.59523,436.737,727.895)">
                        <g id="g564">
                            <g id="text568">
                                <text x="0px" y="0px" style="font-family:'ZapfDingbatsITC', 'Zapf Dingbats', serif;font-size:12px;">✖</text>
                            </g>
                        </g>
                    </g>
                </g>
            </g>
        </g>
        <g id="g1934">
        </g>
    </g>
</svg>
