<svg viewBox="0 0 179 98" xmlns="http://www.w3.org/2000/svg" fill-rule="evenodd" clip-rule="evenodd" stroke-miterlimit="10"><clipPath id="a"><path d="M15 82.7h79V12.1H15v70.6zm2-69.9h75c.8 0 1.4.6 1.4 1.4v66.5c0 .7-.6 1.3-1.4 1.3H17c-.7 0-1.3-.6-1.3-1.3V14.2c0-.8.6-1.4 1.4-1.4zm0-.1c-.8 0-1.5.6-1.5 1.5v66.5c0 .8.7 1.5 1.6 1.5h75c.8 0 1.4-.7 1.4-1.5V14.2c0-.9-.6-1.5-1.5-1.5H17z"/></clipPath><g clip-path="url(#a)"><g transform="translate(0 -2.7)"><clipPath id="b"><path d="M17 15.4h75c.8 0 1.5.6 1.5 1.4v66.5c0 .8-.7 1.5-1.5 1.5H17c-.7 0-1.4-.7-1.4-1.5V16.8c0-.8.7-1.4 1.5-1.4z"/></clipPath><g clip-path="url(#b)"><path d="M17 15.4h75c.8 0 1.5.6 1.5 1.4v66.5c0 .8-.7 1.5-1.5 1.5H17c-.7 0-1.4-.7-1.4-1.5V16.8c0-.8.7-1.4 1.5-1.4z" fill="#f8f8f8" fill-rule="nonzero"/></g></g></g><g transform="translate(0 -2.7)"><clipPath id="c"><path d="M17 15.4h75c.8 0 1.5.6 1.5 1.4v66.5c0 .8-.7 1.5-1.5 1.5H17c-.7 0-1.4-.7-1.4-1.5V16.8c0-.8.7-1.4 1.5-1.4z"/></clipPath><g clip-path="url(#c)"><path d="M17 15.4h75c.8 0 1.5.6 1.5 1.4v66.5c0 .8-.7 1.5-1.5 1.5H17c-.7 0-1.4-.7-1.4-1.5V16.8c0-.8.7-1.4 1.5-1.4z" fill="none" stroke="#000" stroke-width=".3"/></g></g><clipPath id="d"><path d="M7.7 86.4h82V15.8h-82v70.6zm2.1-70h77.9c.7 0 1.3.7 1.3 1.4v66.5c0 .8-.6 1.4-1.3 1.4H9.8c-.7 0-1.4-.6-1.4-1.4V17.8c0-.7.7-1.3 1.4-1.3zm0 0c-.8 0-1.5.6-1.5 1.4v66.5c0 .9.7 1.5 1.5 1.5h77.9c.8 0 1.5-.6 1.5-1.5V17.8c0-.8-.7-1.5-1.5-1.5H9.8z"/></clipPath><g clip-path="url(#d)"><g transform="translate(0 4.7)"><clipPath id="e"><path d="M9.8 11.7h77.9c.8 0 1.4.7 1.4 1.5v66.5c0 .8-.6 1.4-1.4 1.4H9.8c-.8 0-1.4-.6-1.4-1.4V13.2c0-.8.6-1.5 1.4-1.5z"/></clipPath><g clip-path="url(#e)"><path d="M9.8 11.7h77.9c.8 0 1.4.7 1.4 1.5v66.5c0 .8-.6 1.4-1.4 1.4H9.8c-.8 0-1.4-.6-1.4-1.4V13.2c0-.8.6-1.5 1.4-1.5z" fill="#f8f8f8" fill-rule="nonzero"/></g></g></g><g transform="translate(0 4.7)"><clipPath id="f"><path d="M9.8 11.7h77.9c.8 0 1.4.7 1.4 1.5v66.5c0 .8-.6 1.4-1.4 1.4H9.8c-.8 0-1.4-.6-1.4-1.4V13.2c0-.8.6-1.5 1.4-1.5z"/></clipPath><g clip-path="url(#f)"><path d="M9.8 11.7h77.9c.8 0 1.4.7 1.4 1.5v66.5c0 .8-.6 1.4-1.4 1.4H9.8c-.8 0-1.4-.6-1.4-1.4V13.2c0-.8.6-1.5 1.4-1.5z" fill="none" stroke="#000" stroke-width=".3"/></g></g><path d="M52.3 4.6h.2v11.8h-.2z"/><clipPath id="g"><path d="M144.2 58.1h20.7v-5.6h-20.7V58zm1.3-5h18c.4 0 .7.4.7.7v3c0 .4-.3.6-.7.6h-18a.6.6 0 01-.6-.6v-3c0-.3.2-.6.6-.6zm0 0c-.4 0-.8.3-.8.7v3c0 .4.4.8.8.8h18c.5 0 .8-.4.8-.8v-3c0-.4-.3-.7-.8-.7h-18z"/></clipPath><g clip-path="url(#g)"><g transform="translate(0 13.1)"><clipPath id="h"><path d="M145.5 40h18c.4 0 .7.3.7.7v3c0 .4-.3.7-.7.7h-18a.7.7 0 01-.7-.7v-3c0-.4.3-.7.7-.7z"/></clipPath><g clip-path="url(#h)"><path d="M145.5 40h18c.4 0 .7.3.7.7v3c0 .4-.3.7-.7.7h-18a.7.7 0 01-.7-.7v-3c0-.4.3-.7.7-.7z" fill="#f3e5ff" fill-rule="nonzero"/></g></g></g><g transform="translate(0 13.1)"><clipPath id="i"><path d="M145.5 40h18c.4 0 .7.3.7.7v3c0 .4-.3.7-.7.7h-18a.7.7 0 01-.7-.7v-3c0-.4.3-.7.7-.7z"/></clipPath><g clip-path="url(#i)"><path d="M145.5 40h18c.4 0 .7.3.7.7v3c0 .4-.3.7-.7.7h-18a.7.7 0 01-.7-.7v-3c0-.4.3-.7.7-.7z" fill="none" stroke="#000" stroke-width=".3"/></g></g><path d="M147.5 56.8a1.5 1.5 0 110-3 1.5 1.5 0 010 3zM151.1 56.8a1.5 1.5 0 110-3 1.5 1.5 0 010 3zM154.8 56.8a1.5 1.5 0 110-3 1.5 1.5 0 010 3zM158.3 56.8a1.5 1.5 0 110-3 1.5 1.5 0 010 3zM161.8 56.8a1.5 1.5 0 110-3 1.5 1.5 0 010 3z" fill="#dc7cf0"/><path d="M48.5 4.4h.2v16h-.2z"/><clipPath id="j"><path d="M.8 93h84.4V19.6H.8V93zm2-72.6h80.3c.8 0 1.4.7 1.4 1.4v69c0 .8-.6 1.4-1.4 1.4H3c-.8 0-1.4-.6-1.4-1.4v-69c0-.7.6-1.4 1.4-1.4zm0-.1c-.8 0-1.5.7-1.5 1.5v69c0 .9.7 1.5 1.6 1.5H83c.9 0 1.6-.6 1.6-1.5v-69c0-.8-.7-1.5-1.6-1.5H3z"/></clipPath><g clip-path="url(#j)"><g transform="translate(0 15.1)"><clipPath id="k"><path d="M2.9 5.2H83c.8 0 1.5.7 1.5 1.5v69c0 .8-.7 1.4-1.5 1.4H3c-.8 0-1.5-.6-1.5-1.4v-69c0-.8.7-1.5 1.5-1.5z"/></clipPath><g clip-path="url(#k)"><path d="M2.9 5.2H83c.8 0 1.5.7 1.5 1.5v69c0 .8-.7 1.4-1.5 1.4H3c-.8 0-1.5-.6-1.5-1.4v-69c0-.8.7-1.5 1.5-1.5z" fill="#fff" fill-rule="nonzero"/></g></g></g><g transform="translate(0 15.1)"><clipPath id="l"><path d="M2.9 5.2H83c.8 0 1.5.7 1.5 1.5v69c0 .8-.7 1.4-1.5 1.4H3c-.8 0-1.5-.6-1.5-1.4v-69c0-.8.7-1.5 1.5-1.5z"/></clipPath><g clip-path="url(#l)"><path d="M2.9 5.2H83c.8 0 1.5.7 1.5 1.5v69c0 .8-.7 1.4-1.5 1.4H3c-.8 0-1.5-.6-1.5-1.4v-69c0-.8.7-1.5 1.5-1.5z" fill="none" stroke="#000" stroke-width=".3"/></g></g><clipPath id="m"><path d="M40.1 6.4h20.7V.8H40.1v5.6zm1.3-5h18.1c.3 0 .6.4.6.7v3c0 .3-.3.6-.6.6h-18a.6.6 0 01-.7-.6V2c0-.3.3-.6.6-.6zm0 0c-.4 0-.7.3-.7.7v3c0 .4.3.8.7.8h18.1c.4 0 .8-.4.8-.8V2c0-.4-.4-.8-.8-.8h-18z"/></clipPath><g clip-path="url(#m)"><g transform="translate(0 -90.3)"><clipPath id="n"><path d="M41.4 91.7h18.1c.4 0 .7.3.7.7v3c0 .4-.3.7-.7.7h-18a.7.7 0 01-.8-.7v-3c0-.4.4-.7.7-.7z"/></clipPath><g clip-path="url(#n)"><path d="M41.4 91.7h18.1c.4 0 .7.3.7.7v3c0 .4-.3.7-.7.7h-18a.7.7 0 01-.8-.7v-3c0-.4.4-.7.7-.7z" fill="#d8eaff" fill-rule="nonzero"/></g></g></g><g transform="translate(0 -90.3)"><clipPath id="o"><path d="M41.4 91.7h18.1c.4 0 .7.3.7.7v3c0 .4-.3.7-.7.7h-18a.7.7 0 01-.8-.7v-3c0-.4.4-.7.7-.7z"/></clipPath><g clip-path="url(#o)"><path d="M41.4 91.7h18.1c.4 0 .7.3.7.7v3c0 .4-.3.7-.7.7h-18a.7.7 0 01-.8-.7v-3c0-.4.4-.7.7-.7z" fill="none" stroke="#000" stroke-width=".3"/></g></g><path d="M43.3 5a1.5 1.5 0 110-2.9 1.5 1.5 0 010 3zM47 5a1.5 1.5 0 110-2.9 1.5 1.5 0 010 3zM50.6 5a1.5 1.5 0 110-2.9 1.5 1.5 0 010 3z" fill="#4a90e2"/><path d="M54.1 5a1.5 1.5 0 110-2.9 1.5 1.5 0 010 3z" fill="#4a90e2"/><path d="M57.7 5a1.5 1.5 0 110-2.8 1.5 1.5 0 010 2.9z" fill="#4a90e2"/><clipPath id="p"><path d="M37.3 8.5H58V2.8H37.3v5.7zm1.3-5h18c.4 0 .7.3.7.6v3c0 .4-.3.7-.7.7h-18A.6.6 0 0138 7v-3c0-.3.2-.6.6-.6zm0-.1c-.4 0-.8.3-.8.7v3c0 .5.4.8.8.8h18c.5 0 .8-.3.8-.8v-3c0-.4-.3-.7-.8-.7h-18z"/></clipPath><g clip-path="url(#p)"><g transform="translate(0 -86.2)"><clipPath id="q"><path d="M38.6 89.7h18c.4 0 .7.3.7.7v3c0 .3-.3.7-.7.7h-18a.7.7 0 01-.7-.7v-3c0-.4.3-.7.7-.7z"/></clipPath><g clip-path="url(#q)"><path d="M38.6 89.7h18c.4 0 .7.3.7.7v3c0 .3-.3.7-.7.7h-18a.7.7 0 01-.7-.7v-3c0-.4.3-.7.7-.7z" fill="#d8eaff" fill-rule="nonzero"/></g></g></g><g transform="translate(0 -86.2)"><clipPath id="r"><path d="M38.6 89.7h18c.4 0 .7.3.7.7v3c0 .3-.3.7-.7.7h-18a.7.7 0 01-.7-.7v-3c0-.4.3-.7.7-.7z"/></clipPath><g clip-path="url(#r)"><path d="M38.6 89.7h18c.4 0 .7.3.7.7v3c0 .3-.3.7-.7.7h-18a.7.7 0 01-.7-.7v-3c0-.4.3-.7.7-.7z" fill="none" stroke="#000" stroke-width=".3"/></g></g><path d="M40.4 7a1.5 1.5 0 110-2.8 1.5 1.5 0 010 2.9zM44 7a1.5 1.5 0 110-2.8A1.5 1.5 0 0144 7zM47.7 7a1.5 1.5 0 110-2.8 1.5 1.5 0 010 2.9zM51.3 7a1.5 1.5 0 110-2.8 1.5 1.5 0 010 2.9zM54.9 7.1a1.5 1.5 0 110-2.9 1.5 1.5 0 010 3z" fill="#4a90e2"/><clipPath id="s"><path d="M37.3 8.5H58V2.8H37.3v5.7zm1.3-5h18c.4 0 .7.3.7.6v3c0 .4-.3.7-.7.7h-18A.6.6 0 0138 7v-3c0-.3.2-.6.6-.6zm0-.1c-.4 0-.8.3-.8.7v3c0 .5.4.8.8.8h18c.5 0 .8-.3.8-.8v-3c0-.4-.3-.7-.8-.7h-18z"/></clipPath><g clip-path="url(#s)"><g transform="translate(0 -86.2)"><clipPath id="t"><path d="M38.6 89.7h18c.4 0 .7.3.7.7v3c0 .3-.3.7-.7.7h-18a.7.7 0 01-.7-.7v-3c0-.4.3-.7.7-.7z"/></clipPath><g clip-path="url(#t)"><path d="M38.6 89.7h18c.4 0 .7.3.7.7v3c0 .3-.3.7-.7.7h-18a.7.7 0 01-.7-.7v-3c0-.4.3-.7.7-.7z" fill="#d8eaff" fill-rule="nonzero"/></g></g></g><g transform="translate(0 -86.2)"><clipPath id="u"><path d="M38.6 89.7h18c.4 0 .7.3.7.7v3c0 .3-.3.7-.7.7h-18a.7.7 0 01-.7-.7v-3c0-.4.3-.7.7-.7z"/></clipPath><g clip-path="url(#u)"><path d="M38.6 89.7h18c.4 0 .7.3.7.7v3c0 .3-.3.7-.7.7h-18a.7.7 0 01-.7-.7v-3c0-.4.3-.7.7-.7z" fill="none" stroke="#000" stroke-width=".3"/></g></g><path d="M40.4 7a1.5 1.5 0 110-2.8 1.5 1.5 0 010 2.9zM44 7a1.5 1.5 0 110-2.8A1.5 1.5 0 0144 7zM47.7 7a1.5 1.5 0 110-2.8 1.5 1.5 0 010 2.9zM51.3 7a1.5 1.5 0 110-2.8 1.5 1.5 0 010 2.9zM54.9 7.1a1.5 1.5 0 110-2.9 1.5 1.5 0 010 3z" fill="#4a90e2"/><clipPath id="v"><path d="M76.4 8.6h20.7V3H76.4v5.6zm1.3-5h18c.4 0 .7.4.7.7v3c0 .3-.3.6-.6.6h-18a.6.6 0 01-.7-.6v-3c0-.3.3-.6.6-.6zm0 0c-.4 0-.7.3-.7.7v3c0 .4.3.8.7.8h18c.5 0 .9-.4.9-.8v-3c0-.4-.4-.8-.8-.8h-18z"/></clipPath><g clip-path="url(#v)"><g transform="translate(0 -85.9)"><clipPath id="w"><path d="M77.7 89.5h18c.5 0 .8.3.8.7v3c0 .4-.3.7-.7.7h-18a.7.7 0 01-.8-.7v-3c0-.4.3-.7.7-.7z"/></clipPath><g clip-path="url(#w)"><path d="M77.7 89.5h18c.5 0 .8.3.8.7v3c0 .4-.3.7-.7.7h-18a.7.7 0 01-.8-.7v-3c0-.4.3-.7.7-.7z" fill="#fdefcb" fill-rule="nonzero"/></g></g></g><g transform="translate(0 -85.9)"><clipPath id="x"><path d="M77.7 89.5h18c.5 0 .8.3.8.7v3c0 .4-.3.7-.7.7h-18a.7.7 0 01-.8-.7v-3c0-.4.3-.7.7-.7z"/></clipPath><g clip-path="url(#x)"><path d="M77.7 89.5h18c.5 0 .8.3.8.7v3c0 .4-.3.7-.7.7h-18a.7.7 0 01-.8-.7v-3c0-.4.3-.7.7-.7z" fill="none" stroke="#000" stroke-width=".3"/></g></g><path d="M79.6 7.2a1.5 1.5 0 110-2.9 1.5 1.5 0 010 3zM83.2 7.2a1.5 1.5 0 110-2.9 1.5 1.5 0 010 3zM86.9 7.2a1.5 1.5 0 110-2.9 1.5 1.5 0 010 3z" fill="#f2c32f"/><path d="M90.4 7.2a1.5 1.5 0 110-2.9 1.5 1.5 0 010 3zM94 7.3a1.5 1.5 0 110-3 1.5 1.5 0 010 3z" fill="#f2c32f"/><clipPath id="y"><path d="M34.5 10.5h20.7V4.8H34.5v5.7zm1.4-5h18c.4 0 .6.3.6.7v3c0 .3-.2.6-.6.6H36a.6.6 0 01-.7-.7v-3c0-.3.3-.6.7-.6zm0-.1c-.5 0-.8.3-.8.8v3c0 .4.3.7.8.7h18c.4 0 .8-.3.8-.8v-3c0-.4-.4-.7-.8-.7H36z"/></clipPath><g clip-path="url(#y)"><g transform="translate(0 -82.2)"><clipPath id="z"><path d="M35.9 87.7h18c.4 0 .7.3.7.7v3c0 .3-.3.6-.7.6H36a.7.7 0 01-.7-.7v-3c0-.3.3-.6.7-.6z"/></clipPath><g clip-path="url(#z)"><path d="M35.9 87.7h18c.4 0 .7.3.7.7v3c0 .3-.3.6-.7.6H36a.7.7 0 01-.7-.7v-3c0-.3.3-.6.7-.6z" fill="#d8eaff" fill-rule="nonzero"/></g></g></g><g transform="translate(0 -82.2)"><clipPath id="A"><path d="M35.9 87.7h18c.4 0 .7.3.7.7v3c0 .3-.3.6-.7.6H36a.7.7 0 01-.7-.7v-3c0-.3.3-.6.7-.6z"/></clipPath><g clip-path="url(#A)"><path d="M35.9 87.7h18c.4 0 .7.3.7.7v3c0 .3-.3.6-.7.6H36a.7.7 0 01-.7-.7v-3c0-.3.3-.6.7-.6z" fill="none" stroke="#000" stroke-width=".3"/></g></g><path d="M37.7 9a1.5 1.5 0 110-2.8 1.5 1.5 0 010 2.9zM41.3 9a1.5 1.5 0 110-2.8 1.5 1.5 0 010 2.9zM45 9a1.5 1.5 0 110-2.8A1.5 1.5 0 0145 9zM48.5 9a1.5 1.5 0 110-2.8 1.5 1.5 0 010 2.9zM52.1 9.1a1.5 1.5 0 110-2.9 1.5 1.5 0 010 3z" fill="#4a90e2"/><clipPath id="B"><path d="M3.5 84.3h8v-5.7h-8v5.7zm1.4-5H10c.3 0 .6.3.6.7v3c0 .3-.3.6-.6.6H4.9a.6.6 0 01-.7-.6v-3c0-.4.3-.7.7-.7zm0 0c-.5 0-.8.2-.8.7v3c0 .4.3.7.8.7H10c.4 0 .7-.3.7-.7v-3c0-.5-.3-.8-.7-.8H4.9z"/></clipPath><g clip-path="url(#B)"><g transform="translate(0 65.4)"><clipPath id="C"><path d="M4.9 13.8H10c.4 0 .7.4.7.7v3c0 .4-.3.7-.7.7H4.9a.7.7 0 01-.7-.7v-3c0-.3.3-.7.7-.7z"/></clipPath><g clip-path="url(#C)"><path d="M4.9 13.8H10c.4 0 .7.4.7.7v3c0 .4-.3.7-.7.7H4.9a.7.7 0 01-.7-.7v-3c0-.3.3-.7.7-.7z" fill="#d8eaff" fill-rule="nonzero"/></g></g></g><g transform="translate(0 65.4)"><clipPath id="D"><path d="M4.9 13.8H10c.4 0 .7.4.7.7v3c0 .4-.3.7-.7.7H4.9a.7.7 0 01-.7-.7v-3c0-.3.3-.7.7-.7z"/></clipPath><g clip-path="url(#D)"><path d="M4.9 13.8H10c.4 0 .7.4.7.7v3c0 .4-.3.7-.7.7H4.9a.7.7 0 01-.7-.7v-3c0-.3.3-.7.7-.7z" fill="none" stroke="#000" stroke-width=".3"/></g></g><clipPath id="E"><path d="M11.6 84.3h7.8v-5.7h-7.8v5.7zm1.3-5h5.2c.4 0 .6.3.6.7v3c0 .3-.2.6-.6.6h-5.2a.6.6 0 01-.6-.6v-3c0-.4.2-.7.6-.7zm0 0c-.4 0-.8.2-.8.7v3c0 .4.4.7.8.7h5.2c.4 0 .8-.3.8-.7v-3c0-.5-.4-.8-.8-.8h-5.2z"/></clipPath><g clip-path="url(#E)"><g transform="translate(0 65.4)"><clipPath id="F"><path d="M12.9 13.8h5.2c.4 0 .7.4.7.7v3c0 .4-.3.7-.7.7h-5.2a.7.7 0 01-.7-.7v-3c0-.3.3-.7.7-.7z"/></clipPath><g clip-path="url(#F)"><path d="M12.9 13.8h5.2c.4 0 .7.4.7.7v3c0 .4-.3.7-.7.7h-5.2a.7.7 0 01-.7-.7v-3c0-.3.3-.7.7-.7z" fill="#d8eaff" fill-rule="nonzero"/></g></g></g><g transform="translate(0 65.4)"><clipPath id="G"><path d="M12.9 13.8h5.2c.4 0 .7.4.7.7v3c0 .4-.3.7-.7.7h-5.2a.7.7 0 01-.7-.7v-3c0-.3.3-.7.7-.7z"/></clipPath><g clip-path="url(#G)"><path d="M12.9 13.8h5.2c.4 0 .7.4.7.7v3c0 .4-.3.7-.7.7h-5.2a.7.7 0 01-.7-.7v-3c0-.3.3-.7.7-.7z" fill="none" stroke="#000" stroke-width=".3"/></g></g><clipPath id="H"><path d="M19.6 84.3h7.9v-5.7h-7.9v5.7zm1.3-5h5.3c.3 0 .6.3.6.7v3c0 .3-.3.6-.6.6h-5.3a.6.6 0 01-.6-.6v-3c0-.4.3-.7.6-.7zm0 0c-.4 0-.7.2-.7.7v3c0 .4.3.7.7.7h5.3c.4 0 .7-.3.7-.7v-3c0-.5-.3-.8-.7-.8h-5.3z"/></clipPath><g clip-path="url(#H)"><g transform="translate(0 65.4)"><clipPath id="I"><path d="M21 13.8h5.2c.3 0 .7.4.7.7v3c0 .4-.4.7-.7.7h-5.3a.7.7 0 01-.6-.7v-3c0-.3.3-.7.6-.7z"/></clipPath><g clip-path="url(#I)"><path d="M21 13.8h5.2c.3 0 .7.4.7.7v3c0 .4-.4.7-.7.7h-5.3a.7.7 0 01-.6-.7v-3c0-.3.3-.7.6-.7z" fill="#d8eaff" fill-rule="nonzero"/></g></g></g><g transform="translate(0 65.4)"><clipPath id="J"><path d="M21 13.8h5.2c.3 0 .7.4.7.7v3c0 .4-.4.7-.7.7h-5.3a.7.7 0 01-.6-.7v-3c0-.3.3-.7.6-.7z"/></clipPath><g clip-path="url(#J)"><path d="M21 13.8h5.2c.3 0 .7.4.7.7v3c0 .4-.4.7-.7.7h-5.3a.7.7 0 01-.6-.7v-3c0-.3.3-.7.6-.7z" fill="none" stroke="#000" stroke-width=".3"/></g></g><clipPath id="K"><path d="M27.6 84.3h8v-5.7h-8v5.7zm1.4-5h5.2c.3 0 .6.3.6.7v3c0 .3-.3.6-.6.6H29a.6.6 0 01-.7-.6v-3c0-.4.3-.7.7-.7zm0 0c-.5 0-.8.2-.8.7v3c0 .4.3.7.8.7h5.2c.4 0 .8-.3.8-.7v-3c0-.5-.4-.8-.8-.8H29z"/></clipPath><g clip-path="url(#K)"><g transform="translate(0 65.4)"><clipPath id="L"><path d="M29 13.8h5.2c.4 0 .7.4.7.7v3c0 .4-.3.7-.7.7H29a.7.7 0 01-.7-.7v-3c0-.3.3-.7.7-.7z"/></clipPath><g clip-path="url(#L)"><path d="M29 13.8h5.2c.4 0 .7.4.7.7v3c0 .4-.3.7-.7.7H29a.7.7 0 01-.7-.7v-3c0-.3.3-.7.7-.7z" fill="#d8eaff" fill-rule="nonzero"/></g></g></g><g transform="translate(0 65.4)"><clipPath id="M"><path d="M29 13.8h5.2c.4 0 .7.4.7.7v3c0 .4-.3.7-.7.7H29a.7.7 0 01-.7-.7v-3c0-.3.3-.7.7-.7z"/></clipPath><g clip-path="url(#M)"><path d="M29 13.8h5.2c.4 0 .7.4.7.7v3c0 .4-.3.7-.7.7H29a.7.7 0 01-.7-.7v-3c0-.3.3-.7.7-.7z" fill="none" stroke="#000" stroke-width=".3"/></g></g><clipPath id="N"><path d="M35.6 84.3h7.9v-5.7h-8v5.7zm1.3-5h5.2c.4 0 .7.3.7.7v3c0 .3-.3.6-.7.6H37a.6.6 0 01-.6-.6v-3c0-.4.3-.7.6-.7zm0 0c-.4 0-.8.2-.8.7v3c0 .4.4.7.8.7h5.2c.4 0 .8-.3.8-.7v-3c0-.5-.4-.8-.8-.8H37z"/></clipPath><g clip-path="url(#N)"><g transform="translate(0 65.4)"><clipPath id="O"><path d="M37 13.8H42c.4 0 .7.4.7.7v3c0 .4-.3.7-.7.7H37a.7.7 0 01-.7-.7v-3c0-.3.3-.7.7-.7z"/></clipPath><g clip-path="url(#O)"><path d="M37 13.8H42c.4 0 .7.4.7.7v3c0 .4-.3.7-.7.7H37a.7.7 0 01-.7-.7v-3c0-.3.3-.7.7-.7z" fill="#d8eaff" fill-rule="nonzero"/></g></g></g><g transform="translate(0 65.4)"><clipPath id="P"><path d="M37 13.8H42c.4 0 .7.4.7.7v3c0 .4-.3.7-.7.7H37a.7.7 0 01-.7-.7v-3c0-.3.3-.7.7-.7z"/></clipPath><g clip-path="url(#P)"><path d="M37 13.8H42c.4 0 .7.4.7.7v3c0 .4-.3.7-.7.7H37a.7.7 0 01-.7-.7v-3c0-.3.3-.7.7-.7z" fill="none" stroke="#000" stroke-width=".3"/></g></g><clipPath id="Q"><path d="M43.6 84.3h7.8v-5.7h-7.8v5.7zm1.3-5H50c.3 0 .6.3.6.7v3c0 .3-.3.6-.6.6h-5.2a.6.6 0 01-.6-.6v-3c0-.4.2-.7.6-.7zm0 0c-.4 0-.8.2-.8.7v3c0 .4.4.7.8.7H50c.4 0 .8-.3.8-.7v-3c0-.5-.4-.8-.8-.8h-5.2z"/></clipPath><g clip-path="url(#Q)"><g transform="translate(0 65.4)"><clipPath id="R"><path d="M44.9 13.8H50c.4 0 .7.4.7.7v3c0 .4-.3.7-.7.7h-5.2a.7.7 0 01-.7-.7v-3c0-.3.3-.7.7-.7z"/></clipPath><g clip-path="url(#R)"><path d="M44.9 13.8H50c.4 0 .7.4.7.7v3c0 .4-.3.7-.7.7h-5.2a.7.7 0 01-.7-.7v-3c0-.3.3-.7.7-.7z" fill="#d8eaff" fill-rule="nonzero"/></g></g></g><g transform="translate(0 65.4)"><clipPath id="S"><path d="M44.9 13.8H50c.4 0 .7.4.7.7v3c0 .4-.3.7-.7.7h-5.2a.7.7 0 01-.7-.7v-3c0-.3.3-.7.7-.7z"/></clipPath><g clip-path="url(#S)"><path d="M44.9 13.8H50c.4 0 .7.4.7.7v3c0 .4-.3.7-.7.7h-5.2a.7.7 0 01-.7-.7v-3c0-.3.3-.7.7-.7z" fill="none" stroke="#000" stroke-width=".3"/></g></g><clipPath id="T"><path d="M51.6 84.3h7.9v-5.7h-7.9v5.7zm1.3-5h5.2c.4 0 .7.3.7.7v3c0 .3-.3.6-.7.6H53a.6.6 0 01-.6-.6v-3c0-.4.3-.7.6-.7zm0 0c-.4 0-.7.2-.7.7v3c0 .4.3.7.7.7h5.2c.5 0 .8-.3.8-.7v-3c0-.5-.3-.8-.8-.8H53z"/></clipPath><g clip-path="url(#T)"><g transform="translate(0 65.4)"><clipPath id="U"><path d="M53 13.8H58c.4 0 .7.4.7.7v3c0 .4-.3.7-.7.7H53a.7.7 0 01-.7-.7v-3c0-.3.3-.7.7-.7z"/></clipPath><g clip-path="url(#U)"><path d="M53 13.8H58c.4 0 .7.4.7.7v3c0 .4-.3.7-.7.7H53a.7.7 0 01-.7-.7v-3c0-.3.3-.7.7-.7z" fill="#d8eaff" fill-rule="nonzero"/></g></g></g><g transform="translate(0 65.4)"><clipPath id="V"><path d="M53 13.8H58c.4 0 .7.4.7.7v3c0 .4-.3.7-.7.7H53a.7.7 0 01-.7-.7v-3c0-.3.3-.7.7-.7z"/></clipPath><g clip-path="url(#V)"><path d="M53 13.8H58c.4 0 .7.4.7.7v3c0 .4-.3.7-.7.7H53a.7.7 0 01-.7-.7v-3c0-.3.3-.7.7-.7z" fill="none" stroke="#000" stroke-width=".3"/></g></g><clipPath id="W"><path d="M59.5 84.3h8v-5.7h-8v5.7zm1.4-5H66c.3 0 .6.3.6.7v3c0 .3-.3.6-.6.6h-5.2a.6.6 0 01-.7-.6v-3c0-.4.3-.7.7-.7zm0 0c-.4 0-.8.2-.8.7v3c0 .4.4.7.8.7H66c.4 0 .8-.3.8-.7v-3c0-.5-.4-.8-.8-.8h-5.2z"/></clipPath><g clip-path="url(#W)"><g transform="translate(0 65.4)"><clipPath id="X"><path d="M60.9 13.8H66c.4 0 .7.4.7.7v3c0 .4-.3.7-.7.7h-5.2a.7.7 0 01-.7-.7v-3c0-.3.3-.7.7-.7z"/></clipPath><g clip-path="url(#X)"><path d="M60.9 13.8H66c.4 0 .7.4.7.7v3c0 .4-.3.7-.7.7h-5.2a.7.7 0 01-.7-.7v-3c0-.3.3-.7.7-.7z" fill="#d8eaff" fill-rule="nonzero"/></g></g></g><g transform="translate(0 65.4)"><clipPath id="Y"><path d="M60.9 13.8H66c.4 0 .7.4.7.7v3c0 .4-.3.7-.7.7h-5.2a.7.7 0 01-.7-.7v-3c0-.3.3-.7.7-.7z"/></clipPath><g clip-path="url(#Y)"><path d="M60.9 13.8H66c.4 0 .7.4.7.7v3c0 .4-.3.7-.7.7h-5.2a.7.7 0 01-.7-.7v-3c0-.3.3-.7.7-.7z" fill="none" stroke="#000" stroke-width=".3"/></g></g><clipPath id="Z"><path d="M67.3 84.3h7.9v-5.7h-7.9v5.7zm1.3-5H74c.3 0 .6.3.6.7v3c0 .3-.3.6-.6.6h-5.3a.6.6 0 01-.6-.6v-3c0-.4.3-.7.6-.7zm0 0c-.4 0-.7.2-.7.7v3c0 .4.3.7.7.7H74c.4 0 .7-.3.7-.7v-3c0-.5-.3-.8-.7-.8h-5.3z"/></clipPath><g clip-path="url(#Z)"><g transform="translate(0 65.4)"><clipPath id="aa"><path d="M68.6 13.8H74c.3 0 .7.4.7.7v3c0 .4-.4.7-.7.7h-5.3a.7.7 0 01-.6-.7v-3c0-.3.3-.7.6-.7z"/></clipPath><g clip-path="url(#aa)"><path d="M68.6 13.8H74c.3 0 .7.4.7.7v3c0 .4-.4.7-.7.7h-5.3a.7.7 0 01-.6-.7v-3c0-.3.3-.7.6-.7z" fill="#d8eaff" fill-rule="nonzero"/></g></g></g><g transform="translate(0 65.4)"><clipPath id="ab"><path d="M68.6 13.8H74c.3 0 .7.4.7.7v3c0 .4-.4.7-.7.7h-5.3a.7.7 0 01-.6-.7v-3c0-.3.3-.7.6-.7z"/></clipPath><g clip-path="url(#ab)"><path d="M68.6 13.8H74c.3 0 .7.4.7.7v3c0 .4-.4.7-.7.7h-5.3a.7.7 0 01-.6-.7v-3c0-.3.3-.7.6-.7z" fill="none" stroke="#000" stroke-width=".3"/></g></g><clipPath id="ac"><path d="M75 84.3h8v-5.7h-8v5.7zm1.4-5h5.2c.4 0 .7.3.7.7v3c0 .3-.3.6-.7.6h-5.2a.6.6 0 01-.6-.6v-3c0-.4.3-.7.6-.7zm0 0c-.4 0-.7.2-.7.7v3c0 .4.3.7.7.7h5.2c.5 0 .8-.3.8-.7v-3c0-.5-.3-.8-.8-.8h-5.2z"/></clipPath><g clip-path="url(#ac)"><g transform="translate(0 65.4)"><clipPath id="ad"><path d="M76.4 13.8h5.2c.4 0 .7.4.7.7v3c0 .4-.3.7-.7.7h-5.2a.7.7 0 01-.7-.7v-3c0-.3.3-.7.7-.7z"/></clipPath><g clip-path="url(#ad)"><path d="M76.4 13.8h5.2c.4 0 .7.4.7.7v3c0 .4-.3.7-.7.7h-5.2a.7.7 0 01-.7-.7v-3c0-.3.3-.7.7-.7z" fill="#d8eaff" fill-rule="nonzero"/></g></g></g><g transform="translate(0 65.4)"><clipPath id="ae"><path d="M76.4 13.8h5.2c.4 0 .7.4.7.7v3c0 .4-.3.7-.7.7h-5.2a.7.7 0 01-.7-.7v-3c0-.3.3-.7.7-.7z"/></clipPath><g clip-path="url(#ae)"><path d="M76.4 13.8h5.2c.4 0 .7.4.7.7v3c0 .4-.3.7-.7.7h-5.2a.7.7 0 01-.7-.7v-3c0-.3.3-.7.7-.7z" fill="none" stroke="#000" stroke-width=".3"/></g></g><clipPath id="af"><path d="M3.5 73.7h7.9v-6.5H3.5v6.5zM4.8 68h5.3c.3 0 .6.3.6.6v4c0 .3-.3.5-.6.5H4.8a.6.6 0 01-.6-.6v-3.9c0-.3.3-.6.6-.6zm0-.1c-.4 0-.7.3-.7.7v4c0 .3.3.7.7.7h5.3c.4 0 .7-.4.7-.8v-3.9c0-.4-.3-.7-.7-.7H4.8z"/></clipPath><g clip-path="url(#af)"><g transform="translate(0 43.4)"><clipPath id="ag"><path d="M4.8 24.4h5.3c.3 0 .7.3.7.7V29c0 .4-.4.7-.7.7H4.8a.7.7 0 01-.7-.7v-4c0-.3.4-.6.7-.6z"/></clipPath><g clip-path="url(#ag)"><path d="M4.8 24.4h5.3c.3 0 .7.3.7.7V29c0 .4-.4.7-.7.7H4.8a.7.7 0 01-.7-.7v-4c0-.3.4-.6.7-.6z" fill="#fbe3e6" fill-rule="nonzero"/></g></g></g><g transform="translate(0 43.4)"><clipPath id="ah"><path d="M4.8 24.4h5.3c.3 0 .7.3.7.7V29c0 .4-.4.7-.7.7H4.8a.7.7 0 01-.7-.7v-4c0-.3.4-.6.7-.6z"/></clipPath><g clip-path="url(#ah)"><path d="M4.8 24.4h5.3c.3 0 .7.3.7.7V29c0 .4-.4.7-.7.7H4.8a.7.7 0 01-.7-.7v-4c0-.3.4-.6.7-.6z" fill="none" stroke="#000" stroke-width=".3"/></g></g><clipPath id="ai"><path d="M11.5 73.7h7.9v-6.5h-7.9v6.5zM13 68H18c.3 0 .6.3.6.6v4c0 .3-.3.5-.6.5h-5.2a.6.6 0 01-.7-.6v-3.9c0-.3.3-.6.7-.6zm0-.1c-.5 0-.8.3-.8.7v4c0 .3.3.7.8.7H18c.4 0 .7-.4.7-.8v-3.9c0-.4-.3-.7-.7-.7h-5.2z"/></clipPath><g clip-path="url(#ai)"><g transform="translate(0 43.4)"><clipPath id="aj"><path d="M12.9 24.4H18c.4 0 .7.3.7.7V29c0 .4-.3.7-.7.7h-5.2a.7.7 0 01-.7-.7v-4c0-.3.3-.6.7-.6z"/></clipPath><g clip-path="url(#aj)"><path d="M12.9 24.4H18c.4 0 .7.3.7.7V29c0 .4-.3.7-.7.7h-5.2a.7.7 0 01-.7-.7v-4c0-.3.3-.6.7-.6z" fill="#fbe3e6" fill-rule="nonzero"/></g></g></g><g transform="translate(0 43.4)"><clipPath id="ak"><path d="M12.9 24.4H18c.4 0 .7.3.7.7V29c0 .4-.3.7-.7.7h-5.2a.7.7 0 01-.7-.7v-4c0-.3.3-.6.7-.6z"/></clipPath><g clip-path="url(#ak)"><path d="M12.9 24.4H18c.4 0 .7.3.7.7V29c0 .4-.3.7-.7.7h-5.2a.7.7 0 01-.7-.7v-4c0-.3.3-.6.7-.6z" fill="none" stroke="#000" stroke-width=".3"/></g></g><clipPath id="al"><path d="M19.6 73.7h7.9v-6.5h-8v6.5zm1.3-5.8h5.2c.4 0 .7.3.7.6v4c0 .3-.3.5-.7.5H21a.6.6 0 01-.6-.6v-3.9c0-.3.3-.6.6-.6zm0-.1c-.4 0-.7.3-.7.7v4c0 .3.3.7.7.7h5.2c.5 0 .8-.4.8-.8v-3.9c0-.4-.3-.7-.8-.7H21z"/></clipPath><g clip-path="url(#al)"><g transform="translate(0 43.4)"><clipPath id="am"><path d="M21 24.4H26c.4 0 .7.3.7.7V29c0 .4-.3.7-.7.7H21a.7.7 0 01-.7-.7v-4c0-.3.3-.6.7-.6z"/></clipPath><g clip-path="url(#am)"><path d="M21 24.4H26c.4 0 .7.3.7.7V29c0 .4-.3.7-.7.7H21a.7.7 0 01-.7-.7v-4c0-.3.3-.6.7-.6z" fill="#fbe3e6" fill-rule="nonzero"/></g></g></g><g transform="translate(0 43.4)"><clipPath id="an"><path d="M21 24.4H26c.4 0 .7.3.7.7V29c0 .4-.3.7-.7.7H21a.7.7 0 01-.7-.7v-4c0-.3.3-.6.7-.6z"/></clipPath><g clip-path="url(#an)"><path d="M21 24.4H26c.4 0 .7.3.7.7V29c0 .4-.3.7-.7.7H21a.7.7 0 01-.7-.7v-4c0-.3.3-.6.7-.6z" fill="none" stroke="#000" stroke-width=".3"/></g></g><clipPath id="ao"><path d="M27.6 73.7h7.9v-6.5h-7.9v6.5zM29 68h5.3c.3 0 .6.3.6.6v4c0 .3-.3.5-.6.5h-5.3a.6.6 0 01-.6-.6v-3.9c0-.3.3-.6.6-.6zm0-.1c-.4 0-.7.3-.7.7v4c0 .3.3.7.7.7h5.3c.4 0 .7-.4.7-.8v-3.9c0-.4-.3-.7-.7-.7h-5.3z"/></clipPath><g clip-path="url(#ao)"><g transform="translate(0 43.4)"><clipPath id="ap"><path d="M29 24.4h5.2c.3 0 .7.3.7.7V29c0 .4-.4.7-.7.7h-5.3a.7.7 0 01-.7-.7v-4c0-.3.4-.6.7-.6z"/></clipPath><g clip-path="url(#ap)"><path d="M29 24.4h5.2c.3 0 .7.3.7.7V29c0 .4-.4.7-.7.7h-5.3a.7.7 0 01-.7-.7v-4c0-.3.4-.6.7-.6z" fill="#fbe3e6" fill-rule="nonzero"/></g></g></g><g transform="translate(0 43.4)"><clipPath id="aq"><path d="M29 24.4h5.2c.3 0 .7.3.7.7V29c0 .4-.4.7-.7.7h-5.3a.7.7 0 01-.7-.7v-4c0-.3.4-.6.7-.6z"/></clipPath><g clip-path="url(#aq)"><path d="M29 24.4h5.2c.3 0 .7.3.7.7V29c0 .4-.4.7-.7.7h-5.3a.7.7 0 01-.7-.7v-4c0-.3.4-.6.7-.6z" fill="none" stroke="#000" stroke-width=".3"/></g></g><clipPath id="ar"><path d="M35.6 73.7h7.8v-6.5h-7.8v6.5zm1.3-5.8H42c.3 0 .6.3.6.6v4c0 .3-.3.5-.6.5h-5.2a.6.6 0 01-.6-.6v-3.9c0-.3.2-.6.6-.6zm0-.1c-.4 0-.8.3-.8.7v4c0 .3.4.7.8.7H42c.4 0 .8-.4.8-.8v-3.9c0-.4-.4-.7-.8-.7h-5.2z"/></clipPath><g clip-path="url(#ar)"><g transform="translate(0 43.4)"><clipPath id="as"><path d="M36.9 24.4H42c.4 0 .7.3.7.7V29c0 .4-.3.7-.7.7h-5.2a.7.7 0 01-.7-.7v-4c0-.3.3-.6.7-.6z"/></clipPath><g clip-path="url(#as)"><path d="M36.9 24.4H42c.4 0 .7.3.7.7V29c0 .4-.3.7-.7.7h-5.2a.7.7 0 01-.7-.7v-4c0-.3.3-.6.7-.6z" fill="#fbe3e6" fill-rule="nonzero"/></g></g></g><g transform="translate(0 43.4)"><clipPath id="at"><path d="M36.9 24.4H42c.4 0 .7.3.7.7V29c0 .4-.3.7-.7.7h-5.2a.7.7 0 01-.7-.7v-4c0-.3.3-.6.7-.6z"/></clipPath><g clip-path="url(#at)"><path d="M36.9 24.4H42c.4 0 .7.3.7.7V29c0 .4-.3.7-.7.7h-5.2a.7.7 0 01-.7-.7v-4c0-.3.3-.6.7-.6z" fill="none" stroke="#000" stroke-width=".3"/></g></g><clipPath id="au"><path d="M43.5 73.7h7.9v-6.5h-7.9v6.5zM45 68H50c.3 0 .6.3.6.6v4c0 .3-.3.5-.6.5h-5.2a.6.6 0 01-.7-.6v-3.9c0-.3.3-.6.7-.6zm0-.1c-.5 0-.8.3-.8.7v4c0 .3.3.7.8.7H50c.4 0 .7-.4.7-.8v-3.9c0-.4-.3-.7-.7-.7h-5.2z"/></clipPath><g clip-path="url(#au)"><g transform="translate(0 43.4)"><clipPath id="av"><path d="M44.9 24.4H50c.3 0 .7.3.7.7V29c0 .4-.4.7-.7.7h-5.2a.7.7 0 01-.7-.7v-4c0-.3.3-.6.7-.6z"/></clipPath><g clip-path="url(#av)"><path d="M44.9 24.4H50c.3 0 .7.3.7.7V29c0 .4-.4.7-.7.7h-5.2a.7.7 0 01-.7-.7v-4c0-.3.3-.6.7-.6z" fill="#fbe3e6" fill-rule="nonzero"/></g></g></g><g transform="translate(0 43.4)"><clipPath id="aw"><path d="M44.9 24.4H50c.3 0 .7.3.7.7V29c0 .4-.4.7-.7.7h-5.2a.7.7 0 01-.7-.7v-4c0-.3.3-.6.7-.6z"/></clipPath><g clip-path="url(#aw)"><path d="M44.9 24.4H50c.3 0 .7.3.7.7V29c0 .4-.4.7-.7.7h-5.2a.7.7 0 01-.7-.7v-4c0-.3.3-.6.7-.6z" fill="none" stroke="#000" stroke-width=".3"/></g></g><clipPath id="ax"><path d="M51.6 73.7h7.8v-6.5h-7.8v6.5zm1.3-5.8h5.2c.4 0 .6.3.6.6v4c0 .3-.2.5-.6.5H53a.6.6 0 01-.6-.6v-3.9c0-.3.3-.6.6-.6zm0-.1c-.4 0-.8.3-.8.7v4c0 .3.4.7.8.7h5.2c.4 0 .8-.4.8-.8v-3.9c0-.4-.4-.7-.8-.7H53z"/></clipPath><g clip-path="url(#ax)"><g transform="translate(0 43.4)"><clipPath id="ay"><path d="M53 24.4H58c.4 0 .7.3.7.7V29c0 .4-.3.7-.7.7H53a.7.7 0 01-.7-.7v-4c0-.3.3-.6.7-.6z"/></clipPath><g clip-path="url(#ay)"><path d="M53 24.4H58c.4 0 .7.3.7.7V29c0 .4-.3.7-.7.7H53a.7.7 0 01-.7-.7v-4c0-.3.3-.6.7-.6z" fill="#fbe3e6" fill-rule="nonzero"/></g></g></g><g transform="translate(0 43.4)"><clipPath id="az"><path d="M53 24.4H58c.4 0 .7.3.7.7V29c0 .4-.3.7-.7.7H53a.7.7 0 01-.7-.7v-4c0-.3.3-.6.7-.6z"/></clipPath><g clip-path="url(#az)"><path d="M53 24.4H58c.4 0 .7.3.7.7V29c0 .4-.3.7-.7.7H53a.7.7 0 01-.7-.7v-4c0-.3.3-.6.7-.6z" fill="none" stroke="#000" stroke-width=".3"/></g></g><clipPath id="aA"><path d="M59.5 73.7h7.9v-6.5h-7.9v6.5zm1.3-5.8h5.3c.3 0 .6.3.6.6v4c0 .3-.3.5-.6.5h-5.3a.6.6 0 01-.6-.6v-3.9c0-.3.3-.6.6-.6zm0-.1c-.4 0-.7.3-.7.7v4c0 .3.3.7.7.7h5.3c.4 0 .7-.4.7-.8v-3.9c0-.4-.3-.7-.7-.7h-5.3z"/></clipPath><g clip-path="url(#aA)"><g transform="translate(0 43.4)"><clipPath id="aB"><path d="M60.8 24.4h5.3c.3 0 .7.3.7.7V29c0 .4-.4.7-.7.7h-5.3a.7.7 0 01-.7-.7v-4c0-.3.4-.6.7-.6z"/></clipPath><g clip-path="url(#aB)"><path d="M60.8 24.4h5.3c.3 0 .7.3.7.7V29c0 .4-.4.7-.7.7h-5.3a.7.7 0 01-.7-.7v-4c0-.3.4-.6.7-.6z" fill="#fbe3e6" fill-rule="nonzero"/></g></g></g><g transform="translate(0 43.4)"><clipPath id="aC"><path d="M60.8 24.4h5.3c.3 0 .7.3.7.7V29c0 .4-.4.7-.7.7h-5.3a.7.7 0 01-.7-.7v-4c0-.3.4-.6.7-.6z"/></clipPath><g clip-path="url(#aC)"><path d="M60.8 24.4h5.3c.3 0 .7.3.7.7V29c0 .4-.4.7-.7.7h-5.3a.7.7 0 01-.7-.7v-4c0-.3.4-.6.7-.6z" fill="none" stroke="#000" stroke-width=".3"/></g></g><clipPath id="aD"><path d="M67.3 73.7h7.9v-6.5h-8v6.5zm1.3-5.8h5.2c.4 0 .7.3.7.6v4c0 .3-.3.5-.7.5h-5.2a.6.6 0 01-.6-.6v-3.9c0-.3.3-.6.6-.6zm0-.1c-.4 0-.7.3-.7.7v4c0 .3.3.7.7.7h5.2c.5 0 .8-.4.8-.8v-3.9c0-.4-.3-.7-.8-.7h-5.2z"/></clipPath><g clip-path="url(#aD)"><g transform="translate(0 43.4)"><clipPath id="aE"><path d="M68.6 24.4h5.2c.4 0 .7.3.7.7V29c0 .4-.3.7-.7.7h-5.2a.7.7 0 01-.7-.7v-4c0-.3.3-.6.7-.6z"/></clipPath><g clip-path="url(#aE)"><path d="M68.6 24.4h5.2c.4 0 .7.3.7.7V29c0 .4-.3.7-.7.7h-5.2a.7.7 0 01-.7-.7v-4c0-.3.3-.6.7-.6z" fill="#fbe3e6" fill-rule="nonzero"/></g></g></g><g transform="translate(0 43.4)"><clipPath id="aF"><path d="M68.6 24.4h5.2c.4 0 .7.3.7.7V29c0 .4-.3.7-.7.7h-5.2a.7.7 0 01-.7-.7v-4c0-.3.3-.6.7-.6z"/></clipPath><g clip-path="url(#aF)"><path d="M68.6 24.4h5.2c.4 0 .7.3.7.7V29c0 .4-.3.7-.7.7h-5.2a.7.7 0 01-.7-.7v-4c0-.3.3-.6.7-.6z" fill="none" stroke="#000" stroke-width=".3"/></g></g><clipPath id="aG"><path d="M75 73.7h8v-6.5h-8v6.5zm1.4-5.8h5.2c.3 0 .6.3.6.6v4c0 .3-.3.5-.6.5h-5.2a.6.6 0 01-.6-.6v-3.9c0-.3.2-.6.6-.6zm0-.1c-.4 0-.8.3-.8.7v4c0 .3.4.7.8.7h5.2c.4 0 .8-.4.8-.8v-3.9c0-.4-.4-.7-.8-.7h-5.2z"/></clipPath><g clip-path="url(#aG)"><g transform="translate(0 43.4)"><clipPath id="aH"><path d="M76.4 24.4h5.2c.4 0 .7.3.7.7V29c0 .4-.3.7-.7.7h-5.2a.7.7 0 01-.7-.7v-4c0-.3.3-.6.7-.6z"/></clipPath><g clip-path="url(#aH)"><path d="M76.4 24.4h5.2c.4 0 .7.3.7.7V29c0 .4-.3.7-.7.7h-5.2a.7.7 0 01-.7-.7v-4c0-.3.3-.6.7-.6z" fill="#fbe3e6" fill-rule="nonzero"/></g></g></g><g transform="translate(0 43.4)"><clipPath id="aI"><path d="M76.4 24.4h5.2c.4 0 .7.3.7.7V29c0 .4-.3.7-.7.7h-5.2a.7.7 0 01-.7-.7v-4c0-.3.3-.6.7-.6z"/></clipPath><g clip-path="url(#aI)"><path d="M76.4 24.4h5.2c.4 0 .7.3.7.7V29c0 .4-.3.7-.7.7h-5.2a.7.7 0 01-.7-.7v-4c0-.3.3-.6.7-.6z" fill="none" stroke="#000" stroke-width=".3"/></g></g><clipPath id="aJ"><path d="M3.5 38.2H83v-6.7H3.5v6.7zm1.6-6h76.2c.5 0 .9.4.9.9v3.5c0 .5-.4.9-1 .9h-76a1 1 0 01-1-1v-3.4c0-.5.4-1 1-1zm0-.2a1 1 0 00-1 1v3.6c0 .6.4 1 1 1h76.2c.6 0 1-.4 1-1V33c0-.6-.4-1-1-1H5z"/></clipPath><g clip-path="url(#aJ)"><g transform="translate(0 -27.8)"><clipPath id="aK"><path d="M5.1 60h76.2c.5 0 1 .4 1 1v3.4c0 .6-.5 1-1 1H5a1 1 0 01-1-1V61c0-.5.5-1 1-1z"/></clipPath><g clip-path="url(#aK)"><path d="M5.1 60h76.2c.5 0 1 .4 1 1v3.4c0 .6-.5 1-1 1H5a1 1 0 01-1-1V61c0-.5.5-1 1-1z" fill="#fffde5" fill-rule="nonzero"/></g></g></g><g transform="translate(0 -27.8)"><clipPath id="aL"><path d="M5.1 60h76.2c.5 0 1 .4 1 1v3.4c0 .6-.5 1-1 1H5a1 1 0 01-1-1V61c0-.5.5-1 1-1z"/></clipPath><g clip-path="url(#aL)"><path d="M5.1 60h76.2c.5 0 1 .4 1 1v3.4c0 .6-.5 1-1 1H5a1 1 0 01-1-1V61c0-.5.5-1 1-1z" fill="none" stroke="#000" stroke-width=".3"/></g></g><clipPath id="aM"><path d="M131.8 67.6h45.7V61h-45.7v6.7zm1.6-6H176c.5 0 .9.4.9 1V66c0 .5-.4 1-1 1h-42.4a1 1 0 01-.9-1v-3.5c0-.5.4-.9 1-.9zm0-.1a1 1 0 00-1 1V66c0 .6.5 1 1 1H176c.6 0 1-.4 1-1v-3.5c0-.6-.4-1-1-1h-42.5z"/></clipPath><g clip-path="url(#aM)"><g transform="translate(0 31)"><clipPath id="aN"><path d="M133.4 30.5H176c.5 0 1 .4 1 1V35c0 .5-.5 1-1 1h-42.5a1 1 0 01-1-1v-3.5c0-.6.5-1 1-1z"/></clipPath><g clip-path="url(#aN)"><path d="M133.4 30.5H176c.5 0 1 .4 1 1V35c0 .5-.5 1-1 1h-42.5a1 1 0 01-1-1v-3.5c0-.6.5-1 1-1z" fill="#fffde5" fill-rule="nonzero"/></g></g></g><g transform="translate(0 31)"><clipPath id="aO"><path d="M133.4 30.5H176c.5 0 1 .4 1 1V35c0 .5-.5 1-1 1h-42.5a1 1 0 01-1-1v-3.5c0-.6.5-1 1-1z"/></clipPath><g clip-path="url(#aO)"><path d="M133.4 30.5H176c.5 0 1 .4 1 1V35c0 .5-.5 1-1 1h-42.5a1 1 0 01-1-1v-3.5c0-.6.5-1 1-1z" fill="none" stroke="#000" stroke-width=".3"/></g></g><path d="M7.3 74.6h.2v4.8h-.2zM7.5 73.1l.7 1.5H6.7l.8-1.5zM15.6 74.4h.2v4.8h-.2z"/><path d="M15.7 73l.7 1.5H15l.7-1.4zM23.5 74.6h.2v4.8h-.2zM23.6 73.1l.7 1.5H23l.7-1.5zM31.5 74.6h.2v4.8h-.2z"/><path d="M31.6 73.2l.8 1.5h-1.5l.7-1.5zM39.5 74.6h.2v4.8h-.2zM39.6 73.1l.7 1.5H39l.7-1.5zM47.4 74.6h.2v4.8h-.2z"/><path d="M47.5 73.2l.8 1.5h-1.5l.7-1.5zM55.5 74.6h.2v4.8h-.2z"/><path d="M55.6 73.2l.8 1.5h-1.5l.7-1.5zM63.4 74.6h.2v4.8h-.2z"/><path d="M63.5 73.2l.8 1.5h-1.5l.7-1.5zM71.2 74.6h.2v4.8h-.2z"/><path d="M71.4 73.2l.7 1.5h-1.4l.7-1.5zM78.9 74.6h.2v4.8h-.2z"/><path d="M79 73.2l.7 1.5h-1.4l.7-1.5zM7.3 63h.2V68h-.2z"/><path d="M7.5 61.6l.7 1.5H6.7l.8-1.5zM15.6 63h.2v4.8h-.2z"/><path d="M15.7 61.6l.7 1.5H15l.7-1.5zM23.5 63h.2V68h-.2z"/><path d="M23.6 61.6l.7 1.5H23l.7-1.5zM31.5 63.1h.2v4.8h-.2z"/><path d="M31.6 61.7l.8 1.5h-1.5l.7-1.5zM39.5 63h.2V68h-.2z"/><path d="M39.6 61.6l.7 1.5H39l.7-1.5zM135.6 81.8h.2v4.8h-.2z"/><path d="M135.8 80.4l.7 1.5h-1.4l.7-1.5zM143.2 81.7h.2v4.8h-.2z"/><path d="M143.4 80.4l.7 1.4h-1.5l.8-1.4zM152.8 81.8h.2v4.8h-.2z"/><path d="M152.9 80.4l.7 1.5h-1.4l.7-1.5zM152.8 68.6h.2v4.8h-.2z"/><path d="M153 67.3l.6 1.4h-1.4l.7-1.4zM163.5 81.7h.2v4.8h-.2z"/><path d="M163.7 80.4l.7 1.4H163l.7-1.4zM139.9 36.9h.2v4.8h-.2z"/><path d="M140 35.5l.8 1.5h-1.5l.8-1.5zM82.4 59l1.5-.7v1.5l-1.5-.8zM148.8 36.9h.2v4.8h-.2z"/><path d="M148.9 35.5l.7 1.5h-1.4l.7-1.5zM159.3 36.9h.2v4.8h-.2z"/><path d="M159.4 35.5l.8 1.5h-1.5l.7-1.5zM168.8 36.9h.2v4.8h-.2zM139.9 36.9h.2v4.8h-.2zM148.8 36.9h.2v4.8h-.2z"/><path d="M159.3 36.9h.2v4.8h-.2zM168.8 36.9h.2v4.8h-.2z"/><path d="M169 35.5l.7 1.5h-1.5l.8-1.5zM139.8 24.1h.2V29h-.2z"/><path d="M140 22.8l.7 1.4h-1.5l.8-1.4zM148.7 24.1h.2V29h-.2z"/><path d="M148.8 22.8l.7 1.4h-1.4l.7-1.4zM159.2 24.1h.2V29h-.2z"/><path d="M159.4 22.8l.7 1.4h-1.5l.8-1.4zM168.7 24.1h.2V29h-.2zM139.8 24.1h.2V29h-.2zM148.7 24.1h.2V29h-.2z"/><path d="M159.2 24.1h.2V29h-.2zM168.7 24.1h.2V29h-.2z"/><path d="M168.9 22.8l.7 1.4h-1.4l.7-1.4zM173.1 81.7h.2v4.8h-.2z"/><path d="M173.2 80.3l.7 1.5h-1.4l.7-1.5zM135.6 68.6h.2v4.8h-.2z"/><path d="M135.7 67.2l.8 1.5H135l.7-1.5zM143.2 68.5h.2v4.8h-.2z"/><path d="M143.3 67.2l.7 1.4h-1.4l.7-1.4zM154.6 59h.2v2.6h-.2zM154.7 57.5l.8 1.5H154l.7-1.5z"/><clipPath id="aP"><path d="M143.6 14h20.7V8.2h-20.7v5.6zm1.4-5h18c.4 0 .6.3.6.6v3c0 .3-.2.6-.6.6h-18a.6.6 0 01-.7-.6v-3c0-.3.3-.6.7-.6zm0-.2c-.5 0-.8.4-.8.8v3c0 .4.3.8.8.8h18c.4 0 .8-.4.8-.8v-3c0-.4-.4-.8-.8-.8h-18z"/></clipPath><g clip-path="url(#aP)"><g transform="translate(0 -75.3)"><clipPath id="aQ"><path d="M145 84.2h18c.4 0 .7.3.7.7v3c0 .4-.3.7-.7.7h-18a.7.7 0 01-.7-.7v-3c0-.4.3-.7.7-.7z"/></clipPath><g clip-path="url(#aQ)"><path d="M145 84.2h18c.4 0 .7.3.7.7v3c0 .4-.3.7-.7.7h-18a.7.7 0 01-.7-.7v-3c0-.4.3-.7.7-.7z" fill="#f3e5ff" fill-rule="nonzero"/></g></g></g><g transform="translate(0 -75.3)"><clipPath id="aR"><path d="M145 84.2h18c.4 0 .7.3.7.7v3c0 .4-.3.7-.7.7h-18a.7.7 0 01-.7-.7v-3c0-.4.3-.7.7-.7z"/></clipPath><g clip-path="url(#aR)"><path d="M145 84.2h18c.4 0 .7.3.7.7v3c0 .4-.3.7-.7.7h-18a.7.7 0 01-.7-.7v-3c0-.4.3-.7.7-.7z" fill="none" stroke="#000" stroke-width=".3"/></g></g><path d="M147 12.6a1.5 1.5 0 110-3 1.5 1.5 0 010 3zM150.6 12.6a1.5 1.5 0 110-3 1.5 1.5 0 010 3zM154.2 12.6a1.5 1.5 0 110-3 1.5 1.5 0 010 3zM157.8 12.6a1.5 1.5 0 110-3 1.5 1.5 0 010 3zM161.3 12.6a1.5 1.5 0 110-3 1.5 1.5 0 010 3z" fill="#dc7cf0"/><clipPath id="aS"><path d="M136.7 23.4h36.2v-6.7h-36.2v6.7zm1.6-6h33c.5 0 1 .4 1 .9v3.5c0 .5-.5.9-1 .9h-33a1 1 0 01-1-1v-3.4c0-.5.5-1 1-1zm0-.2a1 1 0 00-1 1v3.6c0 .6.4 1 1 1h33c.6 0 1-.4 1-1v-3.5c0-.6-.4-1-1-1h-33z"/></clipPath><g clip-path="url(#aS)"><g transform="translate(0 -57.4)"><clipPath id="aT"><path d="M138.3 74.7h33c.5 0 1 .5 1 1v3.5c0 .5-.5 1-1 1h-33a1 1 0 01-1-1v-3.5c0-.5.4-1 1-1z"/></clipPath><g clip-path="url(#aT)"><path d="M138.3 74.7h33c.5 0 1 .5 1 1v3.5c0 .5-.5 1-1 1h-33a1 1 0 01-1-1v-3.5c0-.5.4-1 1-1z" fill="#fffde5" fill-rule="nonzero"/></g></g></g><g transform="translate(0 -57.4)"><clipPath id="aU"><path d="M138.3 74.7h33c.5 0 1 .5 1 1v3.5c0 .5-.5 1-1 1h-33a1 1 0 01-1-1v-3.5c0-.5.4-1 1-1z"/></clipPath><g clip-path="url(#aU)"><path d="M138.3 74.7h33c.5 0 1 .5 1 1v3.5c0 .5-.5 1-1 1h-33a1 1 0 01-1-1v-3.5c0-.5.4-1 1-1z" fill="none" stroke="#000" stroke-width=".3"/></g></g><path d="M154.1 14.7h.2v2.7h-.2z"/><path d="M154.2 13.3l.7 1.5h-1.4l.7-1.5zM163.5 68.6h.2v4.8h-.2z"/><path d="M163.7 67.2l.7 1.5H163l.7-1.5zM173.1 68.5h.2v4.8h-.2z"/><path d="M173.2 67.2l.7 1.4h-1.4l.7-1.4zM47.4 63.1h.2v4.8h-.2z"/><path d="M47.5 61.7l.8 1.5h-1.5l.7-1.5zM55.5 63.1h.2v4.8h-.2z"/><path d="M55.6 61.7l.8 1.5h-1.5l.7-1.5zM63.4 63.2h.2V68h-.2zM63.5 61.7l.8 1.5h-1.5l.7-1.5zM71.2 63.1h.2v4.8h-.2z"/><path d="M71.4 61.7l.7 1.5h-1.4l.7-1.5zM78.9 63.2h.2V68h-.2zM79 61.7l.7 1.5h-1.4l.7-1.5zM6.9 39h.2v4.8h-.2z"/><path d="M7 37.6l.8 1.5H6.3l.7-1.5zM15.1 39h.2v4.8h-.2zM15.2 37.5L16 39h-1.5l.7-1.5zM23 39h.2v4.8H23z"/><path d="M23.2 37.6l.7 1.5h-1.5l.8-1.5zM31 39h.2V44H31z"/><path d="M31.2 37.6l.7 1.5h-1.4l.7-1.5zM39 39h.2v4.8H39z"/><path d="M39.2 37.6l.7 1.5h-1.5l.8-1.5zM44.8 11.4h.2v20.8h-.2z"/><path d="M45 10l.6 1.5h-1.4l.7-1.5zM77 5.8l-1.5.8V5l1.5.7zM47 39h.2V44H47z"/><path d="M47 37.6l.8 1.5h-1.4l.7-1.5zM55.1 39h.2V44h-.2z"/><path d="M55.2 37.6l.7 1.5h-1.4l.7-1.5zM62.9 39h.2v4.8h-.2z"/><path d="M63 37.7l.8 1.4h-1.4l.7-1.4zM70.8 39h.2V44h-.2z"/><path d="M71 37.6l.7 1.5h-1.5l.7-1.5zM78.4 39h.2v4.8h-.2z"/><path d="M78.5 37.7l.8 1.4h-1.5l.7-1.4z"/><path d="M5.4 43.1l17 17.5M5.4 43.1v16M5.4 43.1l6.1 16.5M5.4 43.1l27.7 16.7M5.4 43.1L45.7 60M5.4 43.1l57.8 17M5.4 43.1l72.9 16M4.7 60.6l17-17.5M4.7 60.6v-16M4.7 60.6l6-16.5M4.7 60.6l27.6-16.7M4.7 60.6l40.2-16.8M4.7 60.6l57.7-17M4.7 60.6l72.8-16M80.8 44L64 61.3M80.8 43.9v16M80.8 43.9l-6 16.5M80.8 43.9L53.2 60.6M80.8 44L40.6 60.6M80.8 44L23.1 61M80.8 44L8 59.8M80.8 61.4l-17-17.5M80.8 61.4v-16M80.8 61.4l-6.1-16.5M80.8 61.4L53.2 44.7M80.8 61.4L40.6 44.6M80.8 61.4L23 44.4" fill="none" stroke="#c1c1c1" stroke-width=".1" stroke-linecap="square"/><clipPath id="aV"><path d="M3.6 62.2H83v-6.7H3.6v6.7zm1.6-6h76.2c.5 0 .9.4.9.9v3.5c0 .5-.4.9-1 .9h-76a1 1 0 01-1-1v-3.4c0-.5.4-1 1-1zm0-.2a1 1 0 00-1 1v3.6c0 .5.4 1 1 1h76.2c.5 0 1-.5 1-1V57c0-.6-.5-1-1-1H5.2z"/></clipPath><g clip-path="url(#aV)"><g transform="translate(0 20.1)"><clipPath id="aW"><path d="M5.2 36h76.2c.5 0 1 .4 1 1v3.4c0 .6-.5 1-1 1H5.2a1 1 0 01-1-1V37c0-.5.5-1 1-1z"/></clipPath><g clip-path="url(#aW)"><path d="M5.2 36h76.2c.5 0 1 .4 1 1v3.4c0 .6-.5 1-1 1H5.2a1 1 0 01-1-1V37c0-.5.5-1 1-1z" fill="#f0f0f0" fill-rule="nonzero"/></g></g></g><g transform="translate(0 20.1)"><clipPath id="aX"><path d="M5.2 36h76.2c.5 0 1 .4 1 1v3.4c0 .6-.5 1-1 1H5.2a1 1 0 01-1-1V37c0-.5.5-1 1-1z"/></clipPath><g clip-path="url(#aX)"><path d="M5.2 36h76.2c.5 0 1 .4 1 1v3.4c0 .6-.5 1-1 1H5.2a1 1 0 01-1-1V37c0-.5.5-1 1-1z" fill="none" stroke="#000" stroke-width=".3"/></g></g><clipPath id="aY"><path d="M3.5 54.8H83v-6.7H3.5v6.7zm1.6-6h76.2c.5 0 .9.4.9 1v3.4c0 .5-.4 1-1 1h-76a1 1 0 01-1-1v-3.5c0-.5.4-.9 1-.9zm0-.1a1 1 0 00-1 1v3.5c0 .6.4 1 1 1h76.2c.6 0 1-.4 1-1v-3.5c0-.5-.4-1-1-1H5z"/></clipPath><g clip-path="url(#aY)"><g transform="translate(0 5.5)"><clipPath id="aZ"><path d="M5.1 43.3h76.2c.5 0 1 .4 1 1v3.5c0 .5-.5 1-1 1H5a1 1 0 01-1-1v-3.5c0-.6.5-1 1-1z"/></clipPath><g clip-path="url(#aZ)"><path d="M5.1 43.3h76.2c.5 0 1 .4 1 1v3.5c0 .5-.5 1-1 1H5a1 1 0 01-1-1v-3.5c0-.6.5-1 1-1z" fill="#f0f0f0" fill-rule="nonzero"/></g></g></g><g transform="translate(0 5.5)"><clipPath id="ba"><path d="M5.1 43.3h76.2c.5 0 1 .4 1 1v3.5c0 .5-.5 1-1 1H5a1 1 0 01-1-1v-3.5c0-.6.5-1 1-1z"/></clipPath><g clip-path="url(#ba)"><path d="M5.1 43.3h76.2c.5 0 1 .4 1 1v3.5c0 .5-.5 1-1 1H5a1 1 0 01-1-1v-3.5c0-.6.5-1 1-1z" fill="none" stroke="#000" stroke-width=".3"/></g></g><clipPath id="bb"><path d="M3.8 47.5H83v-6.6H3.8v6.6zm1.5-6h76.2c.5 0 1 .4 1 1v3.4c0 .6-.5 1-1 1H5.3a1 1 0 01-1-1v-3.5c0-.5.5-1 1-1zm0 0a1 1 0 00-1 1v3.4c0 .6.5 1 1 1h76.2c.5 0 1-.4 1-1v-3.5c0-.5-.5-1-1-1H5.3z"/></clipPath><g clip-path="url(#bb)"><g transform="translate(0 -9.2)"><clipPath id="bc"><path d="M5.3 50.6h76.2c.5 0 1 .4 1 1V55c0 .5-.5 1-1 1H5.3a1 1 0 01-1-1v-3.5c0-.6.5-1 1-1z"/></clipPath><g clip-path="url(#bc)"><path d="M5.3 50.6h76.2c.5 0 1 .4 1 1V55c0 .5-.5 1-1 1H5.3a1 1 0 01-1-1v-3.5c0-.6.5-1 1-1z" fill="#d8d8d8" fill-rule="nonzero"/></g></g></g><g transform="translate(0 -9.2)"><clipPath id="bd"><path d="M5.3 50.6h76.2c.5 0 1 .4 1 1V55c0 .5-.5 1-1 1H5.3a1 1 0 01-1-1v-3.5c0-.6.5-1 1-1z"/></clipPath><g clip-path="url(#bd)"><path d="M5.3 50.6h76.2c.5 0 1 .4 1 1V55c0 .5-.5 1-1 1H5.3a1 1 0 01-1-1v-3.5c0-.6.5-1 1-1z" fill="none" stroke="#979797" stroke-width=".1"/></g></g><clipPath id="be"><path d="M3.7 47.6h79.4v-6.7H3.7v6.7zm1.6-6h76.2c.5 0 .9.4.9.9V46c0 .5-.4.9-1 .9H5.4a1 1 0 01-.9-1v-3.4c0-.5.4-1 .9-1zm0-.2a1 1 0 00-1 1V46c0 .6.4 1 1 1h76.2c.5 0 1-.4 1-1v-3.5c0-.6-.5-1-1-1H5.3z"/></clipPath><g clip-path="url(#be)"><g transform="translate(0 -9)"><clipPath id="bf"><path d="M5.3 50.5h76.2c.5 0 1 .5 1 1V55c0 .6-.5 1-1 1H5.3a1 1 0 01-1-1v-3.5c0-.5.5-1 1-1z"/></clipPath><g clip-path="url(#bf)"><path d="M5.3 50.5h76.2c.5 0 1 .5 1 1V55c0 .6-.5 1-1 1H5.3a1 1 0 01-1-1v-3.5c0-.5.5-1 1-1z" fill="#f0f0f0" fill-rule="nonzero"/></g></g></g><g transform="translate(0 -9)"><clipPath id="bg"><path d="M5.3 50.5h76.2c.5 0 1 .5 1 1V55c0 .6-.5 1-1 1H5.3a1 1 0 01-1-1v-3.5c0-.5.5-1 1-1z"/></clipPath><g clip-path="url(#bg)"><path d="M5.3 50.5h76.2c.5 0 1 .5 1 1V55c0 .6-.5 1-1 1H5.3a1 1 0 01-1-1v-3.5c0-.5.5-1 1-1z" fill="none" stroke="#000" stroke-width=".3"/></g></g><clipPath id="bh"><path d="M131.7 90h7.9v-5.7h-7.9V90zm1.3-5h5.2c.4 0 .7.3.7.6v3c0 .4-.3.7-.7.7H133a.6.6 0 01-.6-.7v-3c0-.3.3-.6.6-.6zm0-.1c-.4 0-.7.3-.7.7v3c0 .4.3.8.7.8h5.2c.5 0 .8-.4.8-.8v-3c0-.4-.3-.7-.8-.7H133z"/></clipPath><g clip-path="url(#bh)"><g transform="translate(0 76.8)"><clipPath id="bi"><path d="M133 8.2h5.2c.4 0 .7.3.7.7v3c0 .3-.3.7-.7.7H133a.7.7 0 01-.7-.7v-3c0-.4.4-.7.7-.7z"/></clipPath><g clip-path="url(#bi)"><path d="M133 8.2h5.2c.4 0 .7.3.7.7v3c0 .3-.3.7-.7.7H133a.7.7 0 01-.7-.7v-3c0-.4.4-.7.7-.7z" fill="#ffe9c5" fill-rule="nonzero"/></g></g></g><g transform="translate(0 76.8)"><clipPath id="bj"><path d="M133 8.2h5.2c.4 0 .7.3.7.7v3c0 .3-.3.7-.7.7H133a.7.7 0 01-.7-.7v-3c0-.4.4-.7.7-.7z"/></clipPath><g clip-path="url(#bj)"><path d="M133 8.2h5.2c.4 0 .7.3.7.7v3c0 .3-.3.7-.7.7H133a.7.7 0 01-.7-.7v-3c0-.4.4-.7.7-.7z" fill="none" stroke="#000" stroke-width=".3"/></g></g><clipPath id="bk"><path d="M169.5 90h7.8v-5.7h-7.8v5.6zm1.3-5h5.2c.4 0 .6.3.6.6v3c0 .3-.2.6-.6.6h-5.2a.6.6 0 01-.6-.6v-3c0-.3.3-.6.6-.6zm0-.2c-.4 0-.8.4-.8.8v3c0 .4.4.8.8.8h5.2c.4 0 .8-.4.8-.8v-3c0-.4-.4-.8-.8-.8h-5.2z"/></clipPath><g clip-path="url(#bk)"><g transform="translate(0 76.7)"><clipPath id="bl"><path d="M170.8 8.2h5.2c.4 0 .7.3.7.7v3c0 .4-.3.7-.7.7h-5.2a.7.7 0 01-.7-.7v-3c0-.4.3-.7.7-.7z"/></clipPath><g clip-path="url(#bl)"><path d="M170.8 8.2h5.2c.4 0 .7.3.7.7v3c0 .4-.3.7-.7.7h-5.2a.7.7 0 01-.7-.7v-3c0-.4.3-.7.7-.7z" fill="#ffe9c5" fill-rule="nonzero"/></g></g></g><g transform="translate(0 76.7)"><clipPath id="bm"><path d="M170.8 8.2h5.2c.4 0 .7.3.7.7v3c0 .4-.3.7-.7.7h-5.2a.7.7 0 01-.7-.7v-3c0-.4.3-.7.7-.7z"/></clipPath><g clip-path="url(#bm)"><path d="M170.8 8.2h5.2c.4 0 .7.3.7.7v3c0 .4-.3.7-.7.7h-5.2a.7.7 0 01-.7-.7v-3c0-.4.3-.7.7-.7z" fill="none" stroke="#000" stroke-width=".3"/></g></g><clipPath id="bn"><path d="M139.4 90h7.9v-5.7h-7.9V90zm1.3-5h5.2c.4 0 .7.3.7.6v3c0 .4-.3.7-.7.7h-5.2a.6.6 0 01-.6-.7v-3c0-.3.3-.6.6-.6zm0-.1c-.4 0-.7.3-.7.7v3c0 .4.3.8.7.8h5.2c.5 0 .8-.4.8-.8v-3c0-.4-.3-.7-.8-.7h-5.2z"/></clipPath><g clip-path="url(#bn)"><g transform="translate(0 76.8)"><clipPath id="bo"><path d="M140.7 8.2h5.2c.4 0 .7.3.7.7v3c0 .3-.3.7-.7.7h-5.2a.7.7 0 01-.7-.7v-3c0-.4.3-.7.7-.7z"/></clipPath><g clip-path="url(#bo)"><path d="M140.7 8.2h5.2c.4 0 .7.3.7.7v3c0 .3-.3.7-.7.7h-5.2a.7.7 0 01-.7-.7v-3c0-.4.3-.7.7-.7z" fill="#ffe9c5" fill-rule="nonzero"/></g></g></g><g transform="translate(0 76.8)"><clipPath id="bp"><path d="M140.7 8.2h5.2c.4 0 .7.3.7.7v3c0 .3-.3.7-.7.7h-5.2a.7.7 0 01-.7-.7v-3c0-.4.3-.7.7-.7z"/></clipPath><g clip-path="url(#bp)"><path d="M140.7 8.2h5.2c.4 0 .7.3.7.7v3c0 .3-.3.7-.7.7h-5.2a.7.7 0 01-.7-.7v-3c0-.4.3-.7.7-.7z" fill="none" stroke="#000" stroke-width=".3"/></g></g><clipPath id="bq"><path d="M147.1 90h11.3v-5.7h-11.3V90zm1.3-5h8.7c.3 0 .6.3.6.6v3c0 .4-.3.7-.6.7h-8.7a.6.6 0 01-.6-.7v-3c0-.3.3-.6.6-.6zm0-.1c-.4 0-.7.3-.7.7v3c0 .4.3.8.7.8h8.7c.4 0 .8-.4.8-.8v-3c0-.4-.4-.7-.8-.7h-8.7z"/></clipPath><g clip-path="url(#bq)"><g transform="translate(0 76.8)"><clipPath id="br"><path d="M148.4 8.2h8.7c.4 0 .7.3.7.7v3c0 .3-.3.7-.7.7h-8.7a.7.7 0 01-.7-.7v-3c0-.4.4-.7.7-.7z"/></clipPath><g clip-path="url(#br)"><path d="M148.4 8.2h8.7c.4 0 .7.3.7.7v3c0 .3-.3.7-.7.7h-8.7a.7.7 0 01-.7-.7v-3c0-.4.4-.7.7-.7z" fill="#ffe9c5" fill-rule="nonzero"/></g></g></g><g transform="translate(0 76.8)"><clipPath id="bs"><path d="M148.4 8.2h8.7c.4 0 .7.3.7.7v3c0 .3-.3.7-.7.7h-8.7a.7.7 0 01-.7-.7v-3c0-.4.4-.7.7-.7z"/></clipPath><g clip-path="url(#bs)"><path d="M148.4 8.2h8.7c.4 0 .7.3.7.7v3c0 .3-.3.7-.7.7h-8.7a.7.7 0 01-.7-.7v-3c0-.4.4-.7.7-.7z" fill="none" stroke="#000" stroke-width=".3"/></g></g><clipPath id="bt"><path d="M158.3 90h11.3v-5.7h-11.3v5.6zm1.4-5h8.6c.3 0 .6.3.6.6v3c0 .3-.3.6-.6.6h-8.6a.6.6 0 01-.7-.6v-3c0-.3.3-.6.7-.6zm0-.2c-.5 0-.8.4-.8.8v3c0 .4.3.8.8.8h8.6c.4 0 .8-.4.8-.8v-3c0-.4-.4-.8-.8-.8h-8.6z"/></clipPath><g clip-path="url(#bt)"><g transform="translate(0 76.7)"><clipPath id="bu"><path d="M159.7 8.2h8.6c.4 0 .7.3.7.7v3c0 .4-.3.7-.7.7h-8.6a.7.7 0 01-.7-.7v-3c0-.4.3-.7.7-.7z"/></clipPath><g clip-path="url(#bu)"><path d="M159.7 8.2h8.6c.4 0 .7.3.7.7v3c0 .4-.3.7-.7.7h-8.6a.7.7 0 01-.7-.7v-3c0-.4.3-.7.7-.7z" fill="#ffe9c5" fill-rule="nonzero"/></g></g></g><g transform="translate(0 76.7)"><clipPath id="bv"><path d="M159.7 8.2h8.6c.4 0 .7.3.7.7v3c0 .4-.3.7-.7.7h-8.6a.7.7 0 01-.7-.7v-3c0-.4.3-.7.7-.7z"/></clipPath><g clip-path="url(#bv)"><path d="M159.7 8.2h8.6c.4 0 .7.3.7.7v3c0 .4-.3.7-.7.7h-8.6a.7.7 0 01-.7-.7v-3c0-.4.3-.7.7-.7z" fill="none" stroke="#000" stroke-width=".3"/></g></g><clipPath id="bw"><path d="M136 44.7h7.8V39h-7.9v5.6zm1.3-5h5.2c.3 0 .6.3.6.7v3c0 .3-.3.6-.6.6h-5.2a.6.6 0 01-.7-.6v-3c0-.4.3-.6.7-.6zm0 0c-.5 0-.8.3-.8.7v3c0 .4.3.7.8.7h5.2c.4 0 .7-.3.7-.7v-3c0-.4-.3-.8-.7-.8h-5.2z"/></clipPath><g clip-path="url(#bw)"><g transform="translate(0 -13.8)"><clipPath id="bx"><path d="M137.3 53.4h5.2c.4 0 .7.3.7.7v3c0 .4-.3.7-.7.7h-5.2a.7.7 0 01-.7-.7v-3c0-.4.3-.7.7-.7z"/></clipPath><g clip-path="url(#bx)"><path d="M137.3 53.4h5.2c.4 0 .7.3.7.7v3c0 .4-.3.7-.7.7h-5.2a.7.7 0 01-.7-.7v-3c0-.4.3-.7.7-.7z" fill="#ffe9c5" fill-rule="nonzero"/></g></g></g><g transform="translate(0 -13.8)"><clipPath id="by"><path d="M137.3 53.4h5.2c.4 0 .7.3.7.7v3c0 .4-.3.7-.7.7h-5.2a.7.7 0 01-.7-.7v-3c0-.4.3-.7.7-.7z"/></clipPath><g clip-path="url(#by)"><path d="M137.3 53.4h5.2c.4 0 .7.3.7.7v3c0 .4-.3.7-.7.7h-5.2a.7.7 0 01-.7-.7v-3c0-.4.3-.7.7-.7z" fill="none" stroke="#000" stroke-width=".3"/></g></g><clipPath id="bz"><path d="M164.9 44.7h7.8V39H165v5.6zm1.3-5h5.2c.3 0 .6.3.6.7v3c0 .3-.3.6-.6.6h-5.2a.6.6 0 01-.6-.6v-3c0-.4.2-.6.6-.6zm0 0c-.4 0-.8.3-.8.7v3c0 .4.4.7.8.7h5.2c.4 0 .8-.3.8-.7v-3c0-.4-.4-.8-.8-.8h-5.2z"/></clipPath><g clip-path="url(#bz)"><g transform="translate(0 -13.8)"><clipPath id="bA"><path d="M166.2 53.4h5.2c.4 0 .7.3.7.7v3c0 .4-.3.7-.7.7h-5.2a.7.7 0 01-.7-.7v-3c0-.4.3-.7.7-.7z"/></clipPath><g clip-path="url(#bA)"><path d="M166.2 53.4h5.2c.4 0 .7.3.7.7v3c0 .4-.3.7-.7.7h-5.2a.7.7 0 01-.7-.7v-3c0-.4.3-.7.7-.7z" fill="#ffe9c5" fill-rule="nonzero"/></g></g></g><g transform="translate(0 -13.8)"><clipPath id="bB"><path d="M166.2 53.4h5.2c.4 0 .7.3.7.7v3c0 .4-.3.7-.7.7h-5.2a.7.7 0 01-.7-.7v-3c0-.4.3-.7.7-.7z"/></clipPath><g clip-path="url(#bB)"><path d="M166.2 53.4h5.2c.4 0 .7.3.7.7v3c0 .4-.3.7-.7.7h-5.2a.7.7 0 01-.7-.7v-3c0-.4.3-.7.7-.7z" fill="none" stroke="#000" stroke-width=".3"/></g></g><clipPath id="bC"><path d="M143.6 44.7h10.2V39h-10.2v5.6zm1.4-5h7.5c.4 0 .6.3.6.7v3c0 .3-.2.6-.6.6H145a.6.6 0 01-.7-.6v-3c0-.4.3-.6.7-.6zm0 0c-.5 0-.8.3-.8.7v3c0 .4.3.7.8.7h7.5c.4 0 .8-.3.8-.7v-3c0-.4-.4-.8-.8-.8H145z"/></clipPath><g clip-path="url(#bC)"><g transform="translate(0 -13.8)"><clipPath id="bD"><path d="M145 53.4h7.5c.4 0 .7.3.7.7v3c0 .4-.3.7-.7.7H145a.7.7 0 01-.7-.7v-3c0-.4.3-.7.7-.7z"/></clipPath><g clip-path="url(#bD)"><path d="M145 53.4h7.5c.4 0 .7.3.7.7v3c0 .4-.3.7-.7.7H145a.7.7 0 01-.7-.7v-3c0-.4.3-.7.7-.7z" fill="#ffe9c5" fill-rule="nonzero"/></g></g></g><g transform="translate(0 -13.8)"><clipPath id="bE"><path d="M145 53.4h7.5c.4 0 .7.3.7.7v3c0 .4-.3.7-.7.7H145a.7.7 0 01-.7-.7v-3c0-.4.3-.7.7-.7z"/></clipPath><g clip-path="url(#bE)"><path d="M145 53.4h7.5c.4 0 .7.3.7.7v3c0 .4-.3.7-.7.7H145a.7.7 0 01-.7-.7v-3c0-.4.3-.7.7-.7z" fill="none" stroke="#000" stroke-width=".3"/></g></g><clipPath id="bF"><path d="M153.7 44.7H165V39h-11.3v5.6zm1.3-5h8.7c.3 0 .6.3.6.7v3c0 .3-.3.6-.6.6H155a.6.6 0 01-.6-.6v-3c0-.4.3-.6.6-.6zm0 0c-.4 0-.7.3-.7.7v3c0 .4.3.7.7.7h8.7c.4 0 .8-.3.8-.7v-3c0-.4-.4-.8-.8-.8H155z"/></clipPath><g clip-path="url(#bF)"><g transform="translate(0 -13.8)"><clipPath id="bG"><path d="M155 53.4h8.7c.4 0 .7.3.7.7v3c0 .4-.3.7-.7.7H155a.7.7 0 01-.7-.7v-3c0-.4.4-.7.7-.7z"/></clipPath><g clip-path="url(#bG)"><path d="M155 53.4h8.7c.4 0 .7.3.7.7v3c0 .4-.3.7-.7.7H155a.7.7 0 01-.7-.7v-3c0-.4.4-.7.7-.7z" fill="#ffe9c5" fill-rule="nonzero"/></g></g></g><g transform="translate(0 -13.8)"><clipPath id="bH"><path d="M155 53.4h8.7c.4 0 .7.3.7.7v3c0 .4-.3.7-.7.7H155a.7.7 0 01-.7-.7v-3c0-.4.4-.7.7-.7z"/></clipPath><g clip-path="url(#bH)"><path d="M155 53.4h8.7c.4 0 .7.3.7.7v3c0 .4-.3.7-.7.7H155a.7.7 0 01-.7-.7v-3c0-.4.4-.7.7-.7z" fill="none" stroke="#000" stroke-width=".3"/></g></g><clipPath id="bI"><path d="M131.8 80.7h45.7V70.5h-45.7v10.2zm2-9.5h41.6c.7 0 1.4.6 1.4 1.4v6c0 .8-.7 1.4-1.4 1.4h-41.5c-.8 0-1.4-.6-1.4-1.4v-6c0-.8.6-1.4 1.4-1.4zm0-.2c-.8 0-1.4.7-1.4 1.6v6c0 .9.6 1.6 1.5 1.6h41.5c.8 0 1.5-.7 1.5-1.6v-6c0-.9-.7-1.6-1.5-1.6h-41.5z"/></clipPath><g clip-path="url(#bI)"><g transform="translate(0 53.7)"><clipPath id="bJ"><path d="M133.9 17.4h41.5c.8 0 1.4.6 1.4 1.5v6c0 .8-.6 1.5-1.4 1.5h-41.5c-.8 0-1.5-.7-1.5-1.5v-6c0-.9.7-1.5 1.5-1.5z"/></clipPath><g clip-path="url(#bJ)"><path d="M133.9 17.4h41.5c.8 0 1.4.6 1.4 1.5v6c0 .8-.6 1.5-1.4 1.5h-41.5c-.8 0-1.5-.7-1.5-1.5v-6c0-.9.7-1.5 1.5-1.5z" fill="#f5ffea" fill-rule="nonzero"/></g></g></g><g transform="translate(0 53.7)"><clipPath id="bK"><path d="M133.9 17.4h41.5c.8 0 1.4.6 1.4 1.5v6c0 .8-.6 1.5-1.4 1.5h-41.5c-.8 0-1.5-.7-1.5-1.5v-6c0-.9.7-1.5 1.5-1.5z"/></clipPath><g clip-path="url(#bK)"><path d="M133.9 17.4h41.5c.8 0 1.4.6 1.4 1.5v6c0 .8-.6 1.5-1.4 1.5h-41.5c-.8 0-1.5-.7-1.5-1.5v-6c0-.9.7-1.5 1.5-1.5z" fill="none" stroke="#000" stroke-width=".3"/></g></g><clipPath id="bL"><path d="M136 36.2h36.9V25.9h-37v10.3zm2-9.6h32.8c.8 0 1.4.7 1.4 1.4v6.1c0 .8-.6 1.4-1.4 1.4H138c-.7 0-1.4-.6-1.4-1.4v-6c0-.8.7-1.5 1.4-1.5zm0-.1c-.8 0-1.5.7-1.5 1.5v6.1c0 .9.7 1.5 1.5 1.5h32.8c.8 0 1.5-.6 1.5-1.5v-6c0-1-.7-1.6-1.5-1.6H138z"/></clipPath><g clip-path="url(#bL)"><g transform="translate(0 -35.4)"><clipPath id="bM"><path d="M138 62h32.8c.8 0 1.5.6 1.5 1.4v6c0 .9-.7 1.5-1.5 1.5H138c-.8 0-1.4-.6-1.4-1.4v-6.1c0-.8.6-1.5 1.4-1.5z"/></clipPath><g clip-path="url(#bM)"><path d="M138 62h32.8c.8 0 1.5.6 1.5 1.4v6c0 .9-.7 1.5-1.5 1.5H138c-.8 0-1.4-.6-1.4-1.4v-6.1c0-.8.6-1.5 1.4-1.5z" fill="#f5ffea" fill-rule="nonzero"/></g></g></g><g transform="translate(0 -35.4)"><clipPath id="bN"><path d="M138 62h32.8c.8 0 1.5.6 1.5 1.4v6c0 .9-.7 1.5-1.5 1.5H138c-.8 0-1.4-.6-1.4-1.4v-6.1c0-.8.6-1.5 1.4-1.5z"/></clipPath><g clip-path="url(#bN)"><path d="M138 62h32.8c.8 0 1.5.6 1.5 1.4v6c0 .9-.7 1.5-1.5 1.5H138c-.8 0-1.4-.6-1.4-1.4v-6.1c0-.8.6-1.5 1.4-1.5z" fill="none" stroke="#000" stroke-width=".3"/></g></g><text x="27.1" y="89" font-family="'TimesNewRomanPSMT','Times New Roman',serif" font-size="3.4">Student <tspan x="38.4" y="89">C</tspan>ode <tspan x="46.4" y="89">S</tspan>equence</text><text x="1.9" y="96.3" font-family="'TimesNewRomanPSMT','Times New Roman',serif" font-size="3.4">Support <tspan x="13.5" y="96.3">S</tspan>et</text><text x="118.2" y="87.9" font-family="'TimesNewRomanPSMT','Times New Roman',serif" font-size="3.4">Question</text><text x="125.8" y="42.5" font-family="'TimesNewRomanPSMT','Times New Roman',serif" font-size="3.4">Rubric</text><text x="4.3" y="26.2" font-family="'TimesNewRomanPSMT','Times New Roman',serif" font-size="3.4">Embedding <tspan x="20.8" y="26.2">N</tspan>etwork</text><text x="9.7" y="8.5" font-family="'TimesNewRomanPSMT','Times New Roman',serif" font-size="3.4">Code <tspan x="17.8" y="8.5">E</tspan>mbedding</text><text x="140.5" y="6.7" font-family="'TimesNewRomanPSMT','Times New Roman',serif" font-size="3.4">Rubric <tspan x="150.7" y="6.7">E</tspan>mbedding</text><text x="141.1" y="51" font-family="'TimesNewRomanPSMT','Times New Roman',serif" font-size="3.4">Question <tspan x="154.2" y="51">E</tspan>mbedding</text><text x="98.5" y="6.5" font-family="'TimesNewRomanPSMT','Times New Roman',serif" font-size="3.4">Prototype</text><text x="6" y="82.1" font-family="'TimesNewRomanPSMT','Times New Roman',serif" font-size="2.2">def</text><text x="13.7" y="82.1" font-family="'TimesNewRomanPSMT','Times New Roman',serif" font-size="2.2">dog</text><text x="23.1" y="82.1" font-family="'TimesNewRomanPSMT','Times New Roman',serif" font-size="2.2">(</text><text x="30.1" y="82.1" font-family="'TimesNewRomanPSMT','Times New Roman',serif" font-size="2.2">hw</text><text x="39.1" y="82.1" font-family="'TimesNewRomanPSMT','Times New Roman',serif" font-size="2.2">)</text><text x="47.1" y="82.1" font-family="'TimesNewRomanPSMT','Times New Roman',serif" font-size="2.2">:</text><text x="54.1" y="82.1" font-family="'TimesNewRomanPSMT','Times New Roman',serif" font-size="2.2">eat</text><text x="63" y="82.1" font-family="'TimesNewRomanPSMT','Times New Roman',serif" font-size="2.2">(</text><text x="69.8" y="82.1" font-family="'TimesNewRomanPSMT','Times New Roman',serif" font-size="2.2">hw</text><text x="78.6" y="82.1" font-family="'TimesNewRomanPSMT','Times New Roman',serif" font-size="2.2">)</text><text x="6.9" y="71.9" font-family="'TimesNewRomanPSMT','Times New Roman',serif" font-size="2.2">def</text><text x="5.6" y="70.9" font-family="'TimesNewRomanPSMT','Times New Roman',serif" font-size="2.2">E</text><text x="5.6" y="70.9" font-family="'TimesNewRomanPSMT','Times New Roman',serif" font-size="2.2">E</text><text x="14.7" y="71.9" font-family="'TimesNewRomanPSMT','Times New Roman',serif" font-size="2.2">dog</text><text x="13.3" y="70.9" font-family="'TimesNewRomanPSMT','Times New Roman',serif" font-size="2.2">E</text><text x="24" y="71.9" font-family="'TimesNewRomanPSMT','Times New Roman',serif" font-size="2.2">(</text><text x="31" y="71.9" font-family="'TimesNewRomanPSMT','Times New Roman',serif" font-size="2.2">hw</text><text x="40" y="71.9" font-family="'TimesNewRomanPSMT','Times New Roman',serif" font-size="2.2">)</text><text x="48" y="71.9" font-family="'TimesNewRomanPSMT','Times New Roman',serif" font-size="2.2">:</text><text x="55.1" y="71.9" font-family="'TimesNewRomanPSMT','Times New Roman',serif" font-size="2.2">eat</text><text x="63.9" y="71.9" font-family="'TimesNewRomanPSMT','Times New Roman',serif" font-size="2.2">(</text><text x="70.7" y="71.9" font-family="'TimesNewRomanPSMT','Times New Roman',serif" font-size="2.2">hw</text><g font-family="'TimesNewRomanPSMT','Times New Roman',serif" font-size="2.2"><text x="77.6" y="71">E</text><text x="79.5" y="71.9"><tspan x="79.5" y="71.9">)</tspan></text></g><text x="22.1" y="70.8" font-family="'TimesNewRomanPSMT','Times New Roman',serif" font-size="2.2">E</text><text x="29.4" y="70.8" font-family="'TimesNewRomanPSMT','Times New Roman',serif" font-size="2.2">E</text><text x="37.9" y="70.8" font-family="'TimesNewRomanPSMT','Times New Roman',serif" font-size="2.2">E</text><text x="46.3" y="70.8" font-family="'TimesNewRomanPSMT','Times New Roman',serif" font-size="2.2">E</text><text x="53.5" y="70.8" font-family="'TimesNewRomanPSMT','Times New Roman',serif" font-size="2.2">E</text><text x="62.1" y="70.9" font-family="'TimesNewRomanPSMT','Times New Roman',serif" font-size="2.2">E</text><text x="69.1" y="70.9" font-family="'TimesNewRomanPSMT','Times New Roman',serif" font-size="2.2">E</text><text x="38.8" y="35.5" font-family="'TimesNewRomanPSMT','Times New Roman',serif" font-size="2.7">A<tspan x="40.512px 41.839px" y="35.462px 35.462px">ve</tspan>rage</text><text x="150.4" y="64.9" font-family="'TimesNewRomanPSMT','Times New Roman',serif" font-size="2.7">A<tspan x="152.119px 153.447px" y="64.893px 64.893px">ve</tspan>rage</text><text x="149.9" y="20.7" font-family="'TimesNewRomanPSMT','Times New Roman',serif" font-size="2.7">A<tspan x="151.621px 152.949px" y="20.671px 20.671px">ve</tspan>rage</text><text x="33.3" y="59.4" font-family="'TimesNewRomanPSMT','Times New Roman',serif" font-size="2.7">Transformer <tspan x="47.1" y="59.4">L</tspan>ayer</text><text x="33.2" y="52.1" font-family="'TimesNewRomanPSMT','Times New Roman',serif" font-size="2.7">Transformer <tspan x="47" y="52.1">L</tspan>ayer</text><text x="33.4" y="44.8" font-family="'TimesNewRomanPSMT','Times New Roman',serif" font-size="2.7">Transformer <tspan x="47.2" y="44.8">L</tspan>ayer</text><text x="133" y="87.7" font-family="'TimesNewRomanPSMT','Times New Roman',serif" font-size="2.2">Write</text><g font-family="'TimesNewRomanPSMT','Times New Roman',serif" font-size="2.2"><text x="173" y="87.7">.</text><text x="142.7" y="87.7">a</text></g><text x="149.7" y="87.7" font-family="'TimesNewRomanPSMT','Times New Roman',serif" font-size="2.2">python</text><text x="160.2" y="87.7" font-family="'TimesNewRomanPSMT','Times New Roman',serif" font-size="2.2">program</text><text x="137.6" y="42.5" font-family="'TimesNewRomanPSMT','Times New Roman',serif" font-size="2.2">Uses</text><text x="168.4" y="42.5" font-family="'TimesNewRomanPSMT','Times New Roman',serif" font-size="2.2">.</text><text x="145.7" y="42.5" font-family="'TimesNewRomanPSMT','Times New Roman',serif" font-size="2.2">proper</text><text x="156.5" y="42.5" font-family="'TimesNewRomanPSMT','Times New Roman',serif" font-size="2.2">syntax</text><text x="141.8" y="76.4" font-family="'TimesNewRomanPSMT','Times New Roman',serif" font-size="3.4">Pretrained <tspan x="156.6" y="76.4">S</tspan>BER<tspan x="164.8" y="76.4">T</tspan></text><text x="141.5" y="31.9" font-family="'TimesNewRomanPSMT','Times New Roman',serif" font-size="3.4">Pretrained <tspan x="156.2" y="31.9">S</tspan>BER<tspan x="164.4" y="31.9">T</tspan></text><g><path d="M67.6 5.9h7.9" fill="none" stroke="#000" stroke-width=".2"/></g><g><path d="M57.3 6.6h10.3" fill="none" stroke="#000" stroke-width=".2"/></g><g><path d="M67.6 3.4V9" fill="none" stroke="#000" stroke-width=".2"/></g><g><path d="M60.2 3.5h7.5" fill="none" stroke="#000" stroke-width=".2"/></g><g><path d="M54.6 8.8h13" fill="none" stroke="#000" stroke-width=".2"/></g><g><path d="M107.4 11h37" fill="none" stroke="#000" stroke-width=".2"/></g><g><path d="M107.5 11v48.2" fill="none" stroke="#000" stroke-width=".2"/></g><g><path d="M107.5 55.3h37.3" fill="none" stroke="#000" stroke-width=".2"/></g><g><path d="M82.9 59h24.5" fill="none" stroke="#000" stroke-width=".2"/></g><g><path d="M82.4 51.7L84 51v1.4l-1.5-.7z"/></g><g><path d="M82.9 51.7h24.6" fill="none" stroke="#000" stroke-width=".2"/></g><g><path d="M82.5 44.2l1.4-.7V45l-1.5-.8z"/></g><g><path d="M83 44.3h24.4" fill="none" stroke="#000" stroke-width=".2"/></g></svg>