<svg viewBox="0 0 512 512" xmlns="http://www.w3.org/2000/svg" fill-rule="evenodd" clip-rule="evenodd" stroke-linejoin="round" stroke-miterlimit="2"><g fill-rule="nonzero"><path d="M504 209a47 47 0 00-51-46 68 68 0 00-89-78 67 67 0 00-122-34 47 47 0 00-91 6 70 70 0 00-101 93 53 53 0 0011 106h396c26 0 47-21 47-47z" fill="#e6989e"/><path d="M50 121c-3-7-6-13-7-20a70 70 0 00-1 22l8-2zM504 209c0-5 0-10-2-15-6 19-24 32-45 32H61c-24 0-45-16-51-38a53 53 0 0051 68h396c26 0 47-21 47-47z" fill="#e27f86"/><g fill="#e6989e"><path d="M172 486a47 47 0 0070-55M328 396a68 68 0 10115-70M72 338a70 70 0 1094 103"/><path d="M504 303a47 47 0 01-51 46 68 68 0 01-89 78 67 67 0 01-122 34 47 47 0 01-91-6 70 70 0 01-101-93 53 53 0 0111-106h396c26 0 47 21 47 47z"/></g><path d="M33 326c-11-6-20-16-24-28a54 54 0 0031 60l2-11c2-8-1-17-9-21zM203 493c19-2 33-15 39-32a67 67 0 00122-34 67 67 0 0089-78l4 1a47 47 0 0044-65c-5 20-24 35-46 35-2 0-3 1-3 3a67 67 0 01-73 78c-9-1-18 4-21 13a68 68 0 01-118 17 47 47 0 01-82 14c-7-9-20-13-31-10a71 71 0 01-85-49 70 70 0 00109 69c4 24 27 41 52 38z" fill="#e27f86"/><path d="M174 392a8 8 0 0014-3c-2-12-9-23-19-31 4-10 5-22 3-34a8 8 0 00-15 4 39 39 0 01-37 48 7 7 0 100 15 55 55 0 0041-20c6 6 11 13 13 21zM164 164a60 60 0 0150 31 8 8 0 0013-7 75 75 0 00-58-38c-7-17-20-31-37-39a8 8 0 00-6 13c11 6 20 15 26 26-16 2-32 10-44 22a7 7 0 000 11c3 3 8 2 11-1 12-12 28-18 44-18h1zM378 302a8 8 0 00-14-4 60 60 0 01-90 34 8 8 0 00-8 13 75 75 0 0070 5c14 12 32 18 51 17 4 0 7-4 7-8-1-4-4-7-8-7-13 1-26-3-36-10 13-9 23-23 28-40z"/><path d="M204 500c17-2 31-11 40-26a75 75 0 00103 2c12-10 20-24 23-39a75 75 0 0092-80 55 55 0 0024-101 55 55 0 00-24-101c2-15-2-30-9-43a8 8 0 00-13 8 59 59 0 01-3 62 7 7 0 002 10c4 2 8 1 11-2 4-6 7-13 9-20a40 40 0 014 78H348a60 60 0 0144-83 7 7 0 10-3-14 75 75 0 00-57 97H55a46 46 0 01-8-89c6 8 13 16 21 21a8 8 0 009-12c-8-5-14-11-19-19l-1-2a63 63 0 0186-86c7 4 12 9 17 15a8 8 0 0012-10l-13-12a40 40 0 0176-1v1a39 39 0 010 24 7 7 0 1014 5 55 55 0 001-30 60 60 0 0187-6c10 9 16 20 19 33-15 7-27 18-34 32a7 7 0 003 10c3 2 8 1 10-3 6-12 17-21 29-26 1 0 16-5 23-5 12 0 24 4 34 10a8 8 0 008-12 75 75 0 00-59-11 75 75 0 00-126-37 55 55 0 00-97 9 78 78 0 00-113 69c0 10 2 20 6 30a61 61 0 00-9 110 61 61 0 009 110 78 78 0 000 61 7 7 0 1014-6 62 62 0 013-56c5-8 11-15 20-21a7 7 0 10-9-12c-8 5-15 13-21 21a46 46 0 018-89h408a40 40 0 01-4 78c-2-7-5-14-9-20a7 7 0 10-13 8 60 60 0 01-71 90c-13-5-24-15-31-27a8 8 0 00-13 7c7 14 19 25 34 32a60 60 0 01-60 49c-17 0-34-8-46-22a54 54 0 00-1-30 7 7 0 10-14 5 40 40 0 010 24v1c-5 14-18 25-33 26-19 3-37-9-43-27l13-12a7 7 0 10-12-10l-14 13h-1l-1 1a63 63 0 01-74-6 7 7 0 10-10 11 78 78 0 0086 11c9 23 33 37 58 34z"/></g></svg>