<svg clip-rule="evenodd" fill-rule="evenodd" stroke-miterlimit="10" viewBox="0 0 208 161" xmlns="http://www.w3.org/2000/svg"><path d="m3.3 3.3h56.2v42.7h-56.2zm56.6 0h72.7v42.7h-72.7z" fill="#d9d9d9"/><path d="m65.2 13.4h62.2v22.6h-62.2zm67.8-10.1h72.8v42.7h-72.8z" fill="#d9d9d9"/><path d="m138.2 13.4h62.4v22.6h-62.4z" fill="#d9d9d9"/><path d="m2.8 2.8h.5v.5h-.5z"/><path d="m2.8 2.8h.5v.5h-.5zm.5 0h56.2v.5h-56.2zm56.2 0h.5v.5h-.5z"/><path d="m59.9 2.8h72.7v.5h-72.7zm72.8 0h.5v.5h-.5z"/><path d="m133 2.8h72.8v.5h-72.8zm72.9 0h.5v.5h-.5z"/><path d="m205.9 2.8h.5v.5h-.5zm-203.1.5h.5v42.7h-.5zm56.7 0h.5v42.7h-.5z"/><path d="m3.4 3.4 56.1 42.6" fill="none" stroke="#000" stroke-width=".48"/><path d="m132.7 3.3h.5v42.7h-.5zm73.2 0h.5v42.7h-.5z"/><path d="m3.3 46.5h56.2v56.5h-56.2z" fill="#d9d9d9"/><path d="m8.3 63.5h46v22.3h-46z" fill="#d9d9d9"/><path d="m2.8 46h.5v.5h-.5zm.5 0h56.2v.5h-56.2zm56.2 0h.5v.5h-.5z"/><path d="m59.9 46h72.7v.5h-72.7zm72.8 0h.5v.5h-.5z"/><path d="m133 46h72.8v.5h-72.8zm72.9 0h.5v.5h-.5zm-203.1.5h.5v56.5h-.5zm56.7 0h.5v56.5h-.5zm73.2 0h.5v56.5h-.5zm73.2 0h.5v56.5h-.5z"/><path d="m3.3 103.6h56.2v56.6h-56.2z" fill="#d9d9d9"/><path d="m8.3 120.9h46v22.3h-46z" fill="#d9d9d9"/><path d="m2.8 103.1h.5v.5h-.5zm.5 0h56.2v.5h-56.2zm56.2 0h.5v.5h-.5z"/><path d="m59.9 103.1h72.7v.5h-72.7zm72.8 0h.5v.5h-.5z"/><path d="m133 103.1h72.8v.5h-72.8zm72.9 0h.5v.5h-.5zm-203.1.5h.5v56.6h-.5zm0 56.6h.5v.5h-.5z"/><path d="m2.8 160.2h.5v.5h-.5zm.5 0h56.2v.5h-56.2zm56.2-56.6h.5v56.6h-.5zm0 56.6h.5v.5h-.5z"/><path d="m59.9 160.2h72.7v.5h-72.7zm72.8-56.6h.5v56.6h-.5zm0 56.6h.5v.5h-.5z"/><path d="m133 160.2h72.8v.5h-72.8zm72.9-56.6h.5v56.6h-.5zm0 56.6h.5v.5h-.5z"/><path d="m205.9 160.2h.5v.5h-.5z"/><g font-family="'TimesNewRomanPSMT','Times New Roman',serif"><g font-size="9.1" transform="translate(-334 -135.2)"><text x="413.6" y="157">Hu<tspan x="424.6 431.6 435.6" y="157 157 157">man</tspan></text><text x="440.1" y="157">ly</text></g><g font-size="9.1" transform="translate(-334 -135.2)"><text x="484.5" y="157">Ra</text><text x="494.5" y="157">tio<tspan x="504" y="157">n</tspan>al<tspan x="515" y="157">l</tspan>y</text></g><text font-size="9.1" transform="translate(-334 -135.2)" x="348.7" y="207.1">Th<tspan x="358.7 361.2 365.7 370.2 372.7" y="207.1 207.1 207.1 207.1 207.1">inkin</tspan>g</text><g font-size="9.1" transform="translate(-334 -135.2)"><text x="412.6" y="202.1">Co<tspan x="423.1" y="202.1">g</tspan>n</text><text x="432" y="202.1">iti<tspan x="439.5" y="202.1">v</tspan>e</text><text x="412.8" y="212.4">M</text><text x="420.8" y="212.4">ode<tspan x="433.8" y="212.4">l</tspan>in<tspan x="443.3" y="212.4">g</tspan></text></g><g font-size="9.1" transform="translate(-351 -130.2)"><text x="486.7" y="202.1">“L<tspan x="496.2 500.1 506.7 510.2 512.4" y="202.1 202.1 202.1 202.1 202.1">aws o</tspan>f</text><text x="522.1" y="202.1">th<tspan x="529.1 533.6 538.1 542.6 547.1" y="202.1 202.1 202.1 202.1 202.1">ought</tspan>“</text></g><g font-size="9.1" transform="translate(-334 -135.2)"><text x="352.9" y="264.5">Ac</text><text x="363.4" y="264.5">tin<tspan x="373" y="264.5">g</tspan></text></g><text font-size="9.1" transform="translate(-334 -135.2)" x="409.2" y="264.5">Tu<tspan x="419.2 422.2 424.7 429.2 433.7" y="264.5 264.5 264.5 264.5 264.5">ring </tspan>Te<tspan x="445.4" y="264.5">s</tspan>t</text><g font-size="9.1" transform="translate(-334 -135.2)"><text x="475.9" y="264.5">Ra</text><text x="485.9" y="264.5">tio<tspan x="495.4" y="264.5">n</tspan>al</text><text x="508.7" y="264.5">Ag<tspan x="519.7 523.7 528.2" y="264.5 264.5 264.5">ent</tspan></text></g><g font-size="7.4" transform="translate(-334 -135.2)"><text x="337.5" y="170.2">Appli<tspan x="354.6" y="170.2">c</tspan>atio<tspan x="369.2" y="170.2">n</tspan></text><text x="352.3" y="178.8">to</text></g><text font-size="7.4" transform="translate(-334 -135.2)" x="361.2" y="150.7">Objec<tspan x="379.1" y="150.7">t</tspan>ive</text></g></svg>