<svg viewBox="0 0 342 193" xmlns="http://www.w3.org/2000/svg" fill-rule="evenodd" clip-rule="evenodd" stroke-miterlimit="10"><path fill="#fff" stroke="#000" stroke-width=".4" d="M127.2 13.7h84.3v32.8h-84.3zM127.2 80.8h84.3v32.8h-84.3zM256.3 80.8h84.3v33h-84.3z"/><path d="M256.3 97.5l-42.7-.2V97l42.7.1v.5zm-42.3 1l-2.6-1.4L214 96v2.5z" fill-rule="nonzero"/><path d="M256 97.4L212.5 32l.4-.3 43.6 65.4-.3.3zm-44.2-64.5l-.4-2.8 2.5 1.4-2.1 1.4z" fill-rule="nonzero"/><path d="M256 97.2l-34.2 73.7.4.2 34.2-73.7-.3-.2zM221 170v2.9l2.3-1.8-2.3-1z" fill-rule="nonzero"/><path fill="#fff" stroke="#000" stroke-width=".4" d="M127.2 146.2h84.3v33h-84.3zM2.7 80.8H87v33H2.7z"/><path d="M87 97.5l38-.2V97L87 97v.5zm37.5 1l2.6-1.4-2.6-1.2v2.5z" fill-rule="nonzero"/><text x="274.6" y="113.1" font-family="'TimesNewRomanPSMT','Times New Roman',serif" font-size="7.7" transform="matrix(.99989 0 0 1 -135.2 -83.8)">Statistical Le<tspan x="314.9" y="113.1">a</tspan>rning</text><text x="282.4" y="120.7" font-family="'TimesNewRomanPSMT','Times New Roman',serif" font-size="6" fill="gray" transform="matrix(.99989 0 0 1 -135.2 -83.8)">[Origin: Statist<tspan x="318.2" y="120.7">i</tspan>cs]</text><text x="276.3" y="180.2" font-family="'TimesNewRomanPSMT','Times New Roman',serif" font-size="7.7" transform="matrix(.99989 0 0 1 -135.2 -83.8)">Ma</text><text x="286.5" y="180.2" font-family="'TimesNewRomanPSMT','Times New Roman',serif" font-size="7.7" transform="matrix(.99989 0 0 1 -135.2 -83.8)">chine Learning</text><text x="271.3" y="187.7" font-family="'TimesNewRomanPSMT','Times New Roman',serif" font-size="6" fill="gray" transform="matrix(.99989 0 0 1 -135.2 -83.8)">[Origin: Co</text><text x="299" y="187.7" font-family="'TimesNewRomanPSMT','Times New Roman',serif" font-size="6" fill="gray" transform="matrix(.99989 0 0 1 -135.2 -83.8)">m</text><text x="303.6" y="187.7" font-family="'TimesNewRomanPSMT','Times New Roman',serif" font-size="6" fill="gray" transform="matrix(.99989 0 0 1 -135.2 -83.8)">puter Scienc<tspan x="333.3" y="187.7">e</tspan>]</text><text x="401.7" y="183.9" font-family="'TimesNewRomanPSMT','Times New Roman',serif" font-size="7.7" transform="matrix(.99989 0 0 1 -135.2 -83.8)">Artiﬁcal Inte<tspan x="441.1" y="183.9">l</tspan>ligence</text><text x="358.4" y="177.6" font-family="'TimesNewRomanPS-ItalicMT','Times New Roman',serif" font-style="italic" font-size="7.7" transform="matrix(.99989 0 0 1 -135.2 -83.8)">applies</text><text x="294.3" y="249.3" font-family="'TimesNewRomanPSMT','Times New Roman',serif" font-size="7.7" transform="matrix(.99989 0 0 1 -135.2 -83.8)">Others</text><text x="160.6" y="183.9" font-family="'TimesNewRomanPSMT','Times New Roman',serif" font-size="7.7" transform="matrix(.99989 0 0 1 -135.2 -83.8)">Data Mining</text><text x="166.4" y="91.4" font-family="'TimesNewRomanPSMT','Times New Roman',serif" font-size="7.7" fill="gray" transform="matrix(.99989 0 0 1 -135.2 -83.8)">Process</text><text x="284.8" y="90.9" font-family="'TimesNewRomanPSMT','Times New Roman',serif" font-size="7.7" fill="gray" transform="matrix(.99989 0 0 1 -135.2 -83.8)">Method set</text><text x="410.9" y="91.4" font-family="'TimesNewRomanPSMT','Times New Roman',serif" font-size="7.7" fill="gray" transform="matrix(.99989 0 0 1 -135.2 -83.8)">Instantiation</text><text x="230.1" y="170.8" font-family="'TimesNewRomanPS-ItalicMT','Times New Roman',serif" font-style="italic" font-size="6.8" transform="matrix(.99989 0 0 1 -135.2 -83.8)">describe<tspan x="253.2" y="170.8">s</tspan></text><text x="230.1" y="179" font-family="'TimesNewRomanPS-ItalicMT','Times New Roman',serif" font-style="italic" font-size="6.8" transform="matrix(.99989 0 0 1 -135.2 -83.8)">applica<tspan x="250.5" y="179">t</tspan>ion</text><text x="230.1" y="187.1" font-family="'TimesNewRomanPS-ItalicMT','Times New Roman',serif" font-style="italic" font-size="6.8" transform="matrix(.99989 0 0 1 -135.2 -83.8)">pr<tspan x="235.9 239.3" y="187.1 187.1">oc</tspan>ess <tspan x="252.4" y="187.1">o</tspan>f</text><path d="M87.2 97.4l.9-1.5-.4-.2-.9 1.4.4.3zm1.5-2.6l.9-1.5-.4-.2-.8 1.5.3.2zm1.5-2.6l1-1.4-.4-.2-1 1.4.4.2zm1.6-2.5l.8-1.5-.3-.2-.9 1.5.4.2zm1.5-2.6l.9-1.4-.4-.2-.9 1.4.4.2zm1.5-2.5l.9-1.5-.4-.2-.8 1.5.3.2zm1.5-2.6l1-1.4-.4-.3-1 1.5.4.2zm1.6-2.5l.8-1.5-.3-.2-.9 1.4.4.3zm1.5-2.6l.9-1.5-.4-.2-.9 1.5.4.2zm1.5-2.5l.9-1.5-.4-.2-.8 1.4.3.3zm1.5-2.6l1-1.5-.4-.2-1 1.5.4.2zm1.6-2.6l.8-1.4-.3-.2-.9 1.4.4.2zm1.5-2.5l.9-1.5-.4-.2-.9 1.5.4.2zM107 64l.9-1.4-.4-.2-.8 1.4.3.2zm1.5-2.5l1-1.5-.4-.2-1 1.5.4.2zm1.6-2.6l.8-1.4-.3-.3-.9 1.5.4.2zm1.5-2.5l.9-1.5-.4-.2-.9 1.4.4.3zm1.5-2.6l.9-1.4-.4-.3-.8 1.5.3.2zm1.5-2.5l1-1.5-.4-.2-1 1.4.4.3zm1.6-2.6l.8-1.5-.3-.2-.9 1.5.4.2zm1.5-2.6l.9-1.4-.4-.2-.9 1.4.4.2zm1.5-2.5l.9-1.5-.4-.2-.8 1.5.3.2zm1.5-2.6l1-1.4-.4-.2-1 1.4.4.2zm1.6-2.5l.8-1.5-.3-.2-.9 1.5.4.2zm1.5-2.6l.9-1.4-.4-.3-.9 1.5.4.2zm1.5-2.5l.9-1.5-.4-.2-.8 1.4.3.3zm1.6-.6l.2-2.8-2.4 1.5 2.2 1.3z" fill-rule="nonzero"/><path fill="#fff" stroke="#000" stroke-width=".4" d="M131.2 151.3h84.4v33h-84.4z"/><text x="298.4" y="254.4" font-family="'TimesNewRomanPSMT','Times New Roman',serif" font-size="7.7" transform="matrix(.99989 0 0 1 -135.2 -83.8)">Others</text><path fill="#fff" stroke="#000" stroke-width=".4" d="M136.8 156.4H221v33h-84.3z"/><g><path d="M87.2 97.2l.9 1.4-.4.2-.9-1.4.4-.2zm1.5 2.5l1 1.5-.4.2-1-1.5.5-.2zm1.6 2.5l.9 1.5-.4.2-.9-1.4.4-.3zm1.6 2.6l.8 1.4-.3.3-.9-1.5.4-.2zm1.5 2.5l.9 1.5-.4.2-.8-1.5.3-.2zM95 110l.9 1.4-.4.2-.9-1.4.4-.2zm1.5 2.5l1 1.4-.5.3-.8-1.5.3-.2zm1.6 2.5l.9 1.5-.4.2-.9-1.4.4-.3zm1.5 2.6l1 1.4-.4.2-1-1.4.4-.2zm1.6 2.5l.9 1.5-.4.2-.9-1.5.4-.2zm1.5 2.5l1 1.5-.4.2-1-1.4.4-.3zm1.6 2.6l.9 1.4-.4.3-.9-1.5.4-.2zm1.5 2.5l1 1.5-.4.2-1-1.5.4-.2zm1.6 2.6l.9 1.4-.4.2-.9-1.4.4-.2zm1.6 2.5l.8 1.4-.3.3-1-1.5.5-.2zm1.5 2.5l.9 1.5-.4.2-.9-1.4.4-.3zm1.6 2.6l.9 1.4-.4.2-.9-1.4.4-.2zm1.5 2.5l1 1.5-.5.2-.8-1.5.3-.2zm1.6 2.5l.9 1.5-.4.2-.9-1.4.4-.3zm1.5 2.6l1 1.4-.4.3-1-1.5.4-.2zm1.6 2.5l.9 1.5-.4.2-.9-1.5.4-.2zm1.5 2.6l1 1.4-.4.2-1-1.4.4-.2zm1.6 2.5l.9 1.5-.4.2-.9-1.5.4-.2zm1.5 2.5l1 1.5-.4.2-1-1.4.4-.3zm1.6 2.6l.9 1.4-.4.2-.9-1.4.4-.2zm1.6 2.5v.2l-.3.2-.1-.2.4-.2zm.7-.7l.3 2.8-2.4-1.5 2.1-1.3z" fill-rule="nonzero"/></g><g><path d="M132 46.4v1.7h-.5v-1.7h.5zm0 3V51h-.5v-1.7h.5zm0 3V54h-.5v-1.7h.5zm0 3V57h-.5v-1.7h.5zm0 3V60h-.5v-1.7h.5zm0 2.9V63h-.5v-1.7h.5zm0 3V66h-.5v-1.7h.5zm0 3v1.6h-.5v-1.7h.5zm0 3v1.6h-.5v-1.7h.5zm0 2.9v1.7h-.5v-1.7h.5zm0 3v1.7h-.5v-1.7h.5zm1 2.1l-1.2 2.5-1.3-2.5h2.5z" fill-rule="nonzero"/></g><g><path fill="#fff" stroke="#000" stroke-width=".4" d="M191.6 117.5h55.2v22.7h-55.2z"/></g><g><text x="303.9" y="256.4" font-family="'TimesNewRomanPSMT','Times New Roman',serif" font-size="7.7" transform="matrix(.99989 0 0 1 -135.2 -83.8)">Others</text><text x="286.4" y="263.2" font-family="'TimesNewRomanPSMT','Times New Roman',serif" font-size="5.1" transform="matrix(.99989 0 0 1 -135.2 -83.8)">(</text><text x="288.1" y="263.2" font-family="'TimesNewRomanPSMT','Times New Roman',serif" font-size="5.1" transform="matrix(.99989 0 0 1 -135.2 -83.8)">e</text><text x="290.4" y="263.2" font-family="'TimesNewRomanPSMT','Times New Roman',serif" font-size="5.1" transform="matrix(.99989 0 0 1 -135.2 -83.8)">.</text><text x="291.6" y="263.2" font-family="'TimesNewRomanPSMT','Times New Roman',serif" font-size="5.1" transform="matrix(.99989 0 0 1 -135.2 -83.8)">g</text><text x="294.1" y="263.2" font-family="'TimesNewRomanPSMT','Times New Roman',serif" font-size="5.1" transform="matrix(.99989 0 0 1 -135.2 -83.8)">. <tspan x="296.8" y="263.2">D</tspan></text><text x="300.5" y="263.2" font-family="'TimesNewRomanPSMT','Times New Roman',serif" font-size="5.1" transform="matrix(.99989 0 0 1 -135.2 -83.8)">e</text><text x="302.7" y="263.2" font-family="'TimesNewRomanPSMT','Times New Roman',serif" font-size="5.1" transform="matrix(.99989 0 0 1 -135.2 -83.8)">scriptive <tspan x="321.7" y="263.2">S</tspan>tatistics)</text></g><g><text x="269.5" y="150.1" font-family="'TimesNewRomanPS-ItalicMT','Times New Roman',serif" font-style="italic" font-size="6.8" transform="matrix(.99989 0 0 1 -135.2 -83.8)">Implementation</text></g><g><text x="331.6" y="215.5" font-family="'TimesNewRomanPSMT','Times New Roman',serif" font-size="7.7" transform="matrix(.99989 0 0 1 -135.2 -83.8)">Deep Learning</text></g><g><path d="M523.2 221.6v36h23" fill="none" stroke="#000" stroke-width=".5" transform="matrix(.42512 0 0 .42516 -40.6 19.3)"/></g></svg>