<svg clip-rule="evenodd" fill-rule="evenodd" stroke-miterlimit="10" viewBox="0 0 342 193" xmlns="http://www.w3.org/2000/svg"><path d="m127.2 13.7h84.3v32.8h-84.3zm0 67.1h84.3v32.8h-84.3zm129.1 0h84.3v33h-84.3z" fill="#fff" stroke="#000" stroke-width=".4"/><path d="m256.3 97.5-42.7-.2v-.3l42.7.1v.5zm-42.3 1-2.6-1.4 2.6-1.1z" fill-rule="nonzero"/><path d="m256 97.4-43.5-65.4.4-.3 43.6 65.4-.3.3zm-44.2-64.5-.4-2.8 2.5 1.4z" fill-rule="nonzero"/><path d="m256 97.2-34.2 73.7.4.2 34.2-73.7-.3-.2zm-35 72.8v2.9l2.3-1.8-2.3-1z" fill-rule="nonzero"/><path d="m127.2 146.2h84.3v33h-84.3zm-124.5-65.4h84.3v33h-84.3z" fill="#fff" stroke="#000" stroke-width=".4"/><path d="m87 97.5 38-.2v-.3h-38zm37.5 1 2.6-1.4-2.6-1.2v2.5z" fill-rule="nonzero"/><g transform="matrix(.99989 0 0 1 -135.2 -83.8)"><text font-family="'TimesNewRomanPSMT','Times New Roman',serif" font-size="7.7" x="274.6" y="113.1">Statistical Le<tspan x="314.9" y="113.1">a</tspan>rning</text><text fill="#808080" font-family="'TimesNewRomanPSMT','Times New Roman',serif" font-size="6" x="282.4" y="120.7">[Origin: Statist<tspan x="318.2" y="120.7">i</tspan>cs]</text><text font-family="'TimesNewRomanPSMT','Times New Roman',serif" font-size="7.7" x="276.3" y="180.2">Ma</text><text font-family="'TimesNewRomanPSMT','Times New Roman',serif" font-size="7.7" x="286.5" y="180.2">chine Learning</text><text fill="#808080" font-family="'TimesNewRomanPSMT','Times New Roman',serif" font-size="6" x="271.3" y="187.7">[Origin: Co</text><text fill="#808080" font-family="'TimesNewRomanPSMT','Times New Roman',serif" font-size="6" x="299" y="187.7">m</text><text fill="#808080" font-family="'TimesNewRomanPSMT','Times New Roman',serif" font-size="6" x="303.6" y="187.7">puter Scienc<tspan x="333.3" y="187.7">e</tspan>]</text><text font-family="'TimesNewRomanPSMT','Times New Roman',serif" font-size="7.7" x="401.7" y="183.9">Artiﬁcal Inte<tspan x="441.1" y="183.9">l</tspan>ligence</text><text font-family="'TimesNewRomanPS-ItalicMT','Times New Roman',serif" font-size="7.7" font-style="italic" x="358.4" y="177.6">applies</text><text font-family="'TimesNewRomanPSMT','Times New Roman',serif" font-size="7.7" x="294.3" y="249.3">Others</text><text font-family="'TimesNewRomanPSMT','Times New Roman',serif" font-size="7.7" x="160.6" y="183.9">Data Mining</text><text fill="#808080" font-family="'TimesNewRomanPSMT','Times New Roman',serif" font-size="7.7" x="166.4" y="91.4">Process</text><text fill="#808080" font-family="'TimesNewRomanPSMT','Times New Roman',serif" font-size="7.7" x="284.8" y="90.9">Method set</text><text fill="#808080" font-family="'TimesNewRomanPSMT','Times New Roman',serif" font-size="7.7" x="410.9" y="91.4">Instantiation</text><text font-family="'TimesNewRomanPS-ItalicMT','Times New Roman',serif" font-size="6.8" font-style="italic" x="230.1" y="170.8">describe<tspan x="253.2" y="170.8">s</tspan></text><text font-family="'TimesNewRomanPS-ItalicMT','Times New Roman',serif" font-size="6.8" font-style="italic" x="230.1" y="179">applica<tspan x="250.5" y="179">t</tspan>ion</text><text font-family="'TimesNewRomanPS-ItalicMT','Times New Roman',serif" font-size="6.8" font-style="italic" x="230.1" y="187.1">pr<tspan x="235.9 239.3" y="187.1 187.1">oc</tspan>ess <tspan x="252.4" y="187.1">o</tspan>f</text></g><path d="m87.2 97.4.9-1.5-.4-.2-.9 1.4zm1.5-2.6.9-1.5-.4-.2-.8 1.5zm1.5-2.6 1-1.4-.4-.2-1 1.4zm1.6-2.5.8-1.5-.3-.2-.9 1.5zm1.5-2.6.9-1.4-.4-.2-.9 1.4zm1.5-2.5.9-1.5-.4-.2-.8 1.5zm1.5-2.6 1-1.4-.4-.3-1 1.5zm1.6-2.5.8-1.5-.3-.2-.9 1.4zm1.5-2.6.9-1.5-.4-.2-.9 1.5zm1.5-2.5.9-1.5-.4-.2-.8 1.4zm1.5-2.6 1-1.5-.4-.2-1 1.5zm1.6-2.6.8-1.4-.3-.2-.9 1.4zm1.5-2.5.9-1.5-.4-.2-.9 1.5zm1.5-2.7.9-1.4-.4-.2-.8 1.4zm1.5-2.5 1-1.5-.4-.2-1 1.5zm1.6-2.6.8-1.4-.3-.3-.9 1.5zm1.5-2.5.9-1.5-.4-.2-.9 1.4zm1.5-2.6.9-1.4-.4-.3-.8 1.5zm1.5-2.5 1-1.5-.4-.2-1 1.4zm1.6-2.6.8-1.5-.3-.2-.9 1.5zm1.5-2.6.9-1.4-.4-.2-.9 1.4zm1.5-2.5.9-1.5-.4-.2-.8 1.5zm1.5-2.6 1-1.4-.4-.2-1 1.4zm1.6-2.5.8-1.5-.3-.2-.9 1.5zm1.5-2.6.9-1.4-.4-.3-.9 1.5zm1.5-2.5.9-1.5-.4-.2-.8 1.4zm1.6-.6.2-2.8-2.4 1.5z" fill-rule="nonzero"/><path d="m131.2 151.3h84.4v33h-84.4z" fill="#fff" stroke="#000" stroke-width=".4"/><text font-family="'TimesNewRomanPSMT','Times New Roman',serif" font-size="7.7" transform="matrix(.99989 0 0 1 -135.2 -83.8)" x="298.4" y="254.4">Others</text><path d="m136.8 156.4h84.2v33h-84.3z" fill="#fff" stroke="#000" stroke-width=".4"/><path d="m87.2 97.2.9 1.4-.4.2-.9-1.4zm1.5 2.5 1 1.5-.4.2-1-1.5.5-.2zm1.6 2.5.9 1.5-.4.2-.9-1.4zm1.6 2.6.8 1.4-.3.3-.9-1.5zm1.5 2.5.9 1.5-.4.2-.8-1.5zm1.6 2.7.9 1.4-.4.2-.9-1.4zm1.5 2.5 1 1.4-.5.3-.8-1.5zm1.6 2.5.9 1.5-.4.2-.9-1.4zm1.5 2.6 1 1.4-.4.2-1-1.4zm1.6 2.5.9 1.5-.4.2-.9-1.5zm1.5 2.5 1 1.5-.4.2-1-1.4zm1.6 2.6.9 1.4-.4.3-.9-1.5zm1.5 2.5 1 1.5-.4.2-1-1.5zm1.6 2.6.9 1.4-.4.2-.9-1.4zm1.6 2.5.8 1.4-.3.3-1-1.5zm1.5 2.5.9 1.5-.4.2-.9-1.4zm1.6 2.6.9 1.4-.4.2-.9-1.4zm1.5 2.5 1 1.5-.5.2-.8-1.5zm1.6 2.5.9 1.5-.4.2-.9-1.4zm1.5 2.6 1 1.4-.4.3-1-1.5zm1.6 2.5.9 1.5-.4.2-.9-1.5zm1.5 2.6 1 1.4-.4.2-1-1.4zm1.6 2.5.9 1.5-.4.2-.9-1.5zm1.5 2.5 1 1.5-.4.2-1-1.4zm1.6 2.6.9 1.4-.4.2-.9-1.4zm1.6 2.5v.2l-.3.2-.1-.2zm.7-.7.3 2.8-2.4-1.5z" fill-rule="nonzero"/><path d="m132 46.4v1.7h-.5v-1.7zm0 3v1.6h-.5v-1.7h.5zm0 3v1.6h-.5v-1.7h.5zm0 3v1.6h-.5v-1.7h.5zm0 3v1.6h-.5v-1.7h.5zm0 2.9v1.7h-.5v-1.7zm0 3v1.7h-.5v-1.7zm0 3v1.6h-.5v-1.7h.5zm0 3v1.6h-.5v-1.7h.5zm0 2.9v1.7h-.5v-1.7zm0 3v1.7h-.5v-1.7zm1 2.1-1.2 2.5-1.3-2.5z" fill-rule="nonzero"/><path d="m191.6 117.5h55.2v22.7h-55.2z" fill="#fff" stroke="#000" stroke-width=".4"/><text font-family="'TimesNewRomanPSMT','Times New Roman',serif" font-size="7.7" transform="matrix(.99989 0 0 1 -135.2 -83.8)" x="303.9" y="256.4">Others</text><text font-family="'TimesNewRomanPSMT','Times New Roman',serif" font-size="5.1" transform="matrix(.99989 0 0 1 -135.2 -83.8)" x="286.4" y="263.2">(</text><text font-family="'TimesNewRomanPSMT','Times New Roman',serif" font-size="5.1" transform="matrix(.99989 0 0 1 -135.2 -83.8)" x="288.1" y="263.2">e</text><text font-family="'TimesNewRomanPSMT','Times New Roman',serif" font-size="5.1" transform="matrix(.99989 0 0 1 -135.2 -83.8)" x="290.4" y="263.2">.</text><text font-family="'TimesNewRomanPSMT','Times New Roman',serif" font-size="5.1" transform="matrix(.99989 0 0 1 -135.2 -83.8)" x="291.6" y="263.2">g</text><text font-family="'TimesNewRomanPSMT','Times New Roman',serif" font-size="5.1" transform="matrix(.99989 0 0 1 -135.2 -83.8)" x="294.1" y="263.2">. <tspan x="296.8" y="263.2">D</tspan></text><text font-family="'TimesNewRomanPSMT','Times New Roman',serif" font-size="5.1" transform="matrix(.99989 0 0 1 -135.2 -83.8)" x="300.5" y="263.2">e</text><text font-family="'TimesNewRomanPSMT','Times New Roman',serif" font-size="5.1" transform="matrix(.99989 0 0 1 -135.2 -83.8)" x="302.7" y="263.2">scriptive <tspan x="321.7" y="263.2">S</tspan>tatistics)</text><text font-family="'TimesNewRomanPS-ItalicMT','Times New Roman',serif" font-size="6.8" font-style="italic" transform="matrix(.99989 0 0 1 -135.2 -83.8)" x="269.5" y="150.1">Implementation</text><text font-family="'TimesNewRomanPSMT','Times New Roman',serif" font-size="7.7" transform="matrix(.99989 0 0 1 -135.2 -83.8)" x="331.6" y="215.5">Deep Learning</text><path d="m523.2 221.6v36h23" fill="none" stroke="#000" stroke-width=".5" transform="matrix(.42512 0 0 .42516 -40.6 19.3)"/></svg>
