<svg viewBox="0 0 985 341" xmlns="http://www.w3.org/2000/svg" fill-rule="evenodd" clip-rule="evenodd" stroke-linecap="round" stroke-linejoin="round" stroke-miterlimit="1.5"><path fill="#fff3cd" stroke="#231f20" stroke-width="1.2" d="M0 48h200v15H0z" transform="matrix(.975 0 0 1.06667 5 -4.2)"/><path fill="#fff3cd" stroke="#231f20" stroke-width="1.2" d="M0 48h200v15H0z" transform="matrix(.975 0 0 1.06667 5.1 14.8)"/><path fill="#d0e2f3" stroke="#231f20" stroke-width="1.6" d="M0 48h200v15H0z" transform="matrix(.28 0 0 1.06667 75 33.8)"/><path fill="#d0e2f3" stroke="#231f20" stroke-width="1.6" d="M0 48h200v15H0z" transform="matrix(.28 0 0 1.06667 75 108.3)"/><path fill="#d0e2f3" stroke="#231f20" stroke-width="1.6" d="M0 48h200v15H0z" transform="matrix(.28 0 0 1.06667 75 164.2)"/><path fill="#f6cccb" stroke="#231f20" stroke-width="1.6" d="M0 48h200v15H0z" transform="matrix(.28 0 0 1.06667 75 52.4)"/><path fill="#f6cccb" stroke="#231f20" stroke-width="1.6" d="M0 48h200v15H0z" transform="matrix(.28 0 0 1.06667 75 71)"/><path fill="#f6cccb" stroke="#231f20" stroke-width="1.6" d="M0 48h200v15H0z" transform="matrix(.28 0 0 1.06667 75 89.6)"/><path fill="#f6cccb" stroke="#231f20" stroke-width="1.6" d="M0 48h200v15H0z" transform="matrix(.28 0 0 1.06667 75 145.5)"/><path fill="#f6cccb" stroke="#231f20" stroke-width="1.6" d="M0 48h200v15H0z" transform="matrix(.28 0 0 1.06667 75 201.4)"/><path fill="#dbead2" stroke="#231f20" stroke-width="1.6" d="M0 48h200v15H0z" transform="matrix(.28 0 0 1.06667 75 182.8)"/><path fill="#dbead2" stroke="#231f20" stroke-width="1.6" d="M0 48h200v15H0z" transform="matrix(.28 0 0 1.06667 75 127)"/><path fill="#d0e2f3" stroke="#231f20" stroke-width="1.6" d="M0 48h200v15H0z" transform="matrix(.28 0 0 1.06667 274.5 34.6)"/><path fill="#d0e2f3" stroke="#231f20" stroke-width="1.6" d="M0 48h200v15H0z" transform="matrix(.28 0 0 1.06667 274.5 109)"/><path fill="#d0e2f3" stroke="#231f20" stroke-width="1.6" d="M0 48h200v15H0z" transform="matrix(.28 0 0 1.06667 274.5 165)"/><path fill="#f6cccb" stroke="#231f20" stroke-width="1.6" d="M0 48h200v15H0z" transform="matrix(.28 0 0 1.06667 274.5 53.2)"/><path fill="#f6cccb" stroke="#231f20" stroke-width="1.6" d="M0 48h200v15H0z" transform="matrix(.28 0 0 1.06667 274.5 71.8)"/><path fill="#f6cccb" stroke="#231f20" stroke-width="1.6" d="M0 48h200v15H0z" transform="matrix(.28 0 0 1.06667 274.5 90.5)"/><path fill="#f6cccb" stroke="#231f20" stroke-width="1.6" d="M0 48h200v15H0z" transform="matrix(.28 0 0 1.06667 274.5 146.4)"/><path fill="#f6cccb" stroke="#231f20" stroke-width="1.6" d="M0 48h200v15H0z" transform="matrix(.28 0 0 1.06667 274.5 202.2)"/><path fill="#dbead2" stroke="#231f20" stroke-width="1.6" d="M0 48h200v15H0z" transform="matrix(.28 0 0 1.06667 274.5 183.6)"/><path fill="#dbead2" stroke="#231f20" stroke-width="1.6" d="M0 48h200v15H0z" transform="matrix(.28 0 0 1.06667 274.5 127.7)"/><path fill="#d0e2f3" stroke="#231f20" stroke-width="1.6" d="M0 48h200v15H0z" transform="matrix(.28 0 0 1.06667 413.8 35)"/><path fill="#d0e2f3" stroke="#231f20" stroke-width="1.6" d="M0 48h200v15H0z" transform="matrix(.28 0 0 1.06667 413.8 109.5)"/><path fill="#d0e2f3" stroke="#231f20" stroke-width="1.6" d="M0 48h200v15H0z" transform="matrix(.28 0 0 1.06667 413.8 165.4)"/><path fill="#f6cccb" stroke="#231f20" stroke-width="1.6" d="M0 48h200v15H0z" transform="matrix(.28 0 0 1.06667 413.8 53.6)"/><path fill="#f6cccb" stroke="#231f20" stroke-width="1.6" d="M0 48h200v15H0z" transform="matrix(.28 0 0 1.06667 413.8 72.2)"/><path fill="#f6cccb" stroke="#231f20" stroke-width="1.6" d="M0 48h200v15H0z" transform="matrix(.28 0 0 1.06667 413.8 90.9)"/><path fill="#f6cccb" stroke="#231f20" stroke-width="1.6" d="M0 48h200v15H0z" transform="matrix(.28 0 0 1.06667 413.8 146.8)"/><path fill="#f6cccb" stroke="#231f20" stroke-width="1.6" d="M0 48h200v15H0z" transform="matrix(.28 0 0 1.06667 413.8 202.6)"/><path fill="#dbead2" stroke="#231f20" stroke-width="1.6" d="M0 48h200v15H0z" transform="matrix(.28 0 0 1.06667 413.8 184)"/><path fill="#dbead2" stroke="#231f20" stroke-width="1.6" d="M0 48h200v15H0z" transform="matrix(.28 0 0 1.06667 413.8 128.1)"/><path fill="#d0e2f3" stroke="#231f20" stroke-width="2.2" d="M0 48h200v15H0z" transform="matrix(.16 0 0 .78478 871.7 46.2)"/><path fill="#f6cccb" stroke="#231f20" stroke-width="2.2" d="M0 48h200v15H0z" transform="matrix(.16 0 0 .78478 871.7 60)"/><path fill="#f6cccb" stroke="#231f20" stroke-width="2.2" d="M0 48h200v15H0z" transform="matrix(.16 0 0 .78478 871.7 73.7)"/><path fill="#f6cccb" stroke="#231f20" stroke-width="2.2" d="M0 48h200v15H0z" transform="matrix(.16 0 0 .78478 871.7 87.4)"/><path fill="#d0e2f3" stroke="#231f20" stroke-width="1.6" d="M0 48h200v15H0z" transform="matrix(.28 0 0 1.06667 605 33)"/><path fill="#d0e2f3" stroke="#231f20" stroke-width="1.6" d="M0 48h200v15H0z" transform="matrix(.28 0 0 1.06667 605 107.6)"/><path fill="#d0e2f3" stroke="#231f20" stroke-width="1.6" d="M0 48h200v15H0z" transform="matrix(.28 0 0 1.06667 605 163.5)"/><path fill="#f6cccb" stroke="#231f20" stroke-width="1.6" d="M0 48h200v15H0z" transform="matrix(.28 0 0 1.06667 605 51.7)"/><path fill="#f6cccb" stroke="#231f20" stroke-width="1.6" d="M0 48h200v15H0z" transform="matrix(.28 0 0 1.06667 605 70.3)"/><path fill="#f6cccb" stroke="#231f20" stroke-width="1.6" d="M0 48h200v15H0z" transform="matrix(.28 0 0 1.06667 605 89)"/><path fill="#f6cccb" stroke="#231f20" stroke-width="1.6" d="M0 48h200v15H0z" transform="matrix(.28 0 0 1.06667 605 144.9)"/><path fill="#f6cccb" stroke="#231f20" stroke-width="1.6" d="M0 48h200v15H0z" transform="matrix(.28 0 0 1.06667 605 200.8)"/><path fill="#dbead2" stroke="#231f20" stroke-width="1.6" d="M0 48h200v15H0z" transform="matrix(.28 0 0 1.06667 605 182.1)"/><path fill="#dbead2" stroke="#231f20" stroke-width="1.6" d="M0 48h200v15H0z" transform="matrix(.28 0 0 1.06667 605 126.2)"/><path fill="#d0e2f3" stroke="#231f20" stroke-width="1.7" d="M0 48h200v15H0z" transform="matrix(.16 0 0 1.02661 854 102.2)"/><path fill="#d0e2f3" stroke="#231f20" stroke-width="1.7" d="M0 48h200v15H0z" transform="matrix(.16 0 0 1.02661 889.7 102.3)"/><path fill="#d0e2f3" stroke="#231f20" stroke-width="1.7" d="M0 48h200v15H0z" transform="matrix(.16 0 0 1.02661 821.3 168.6)"/><path fill="#d0e2f3" stroke="#231f20" stroke-width="1.7" d="M0 48h200v15H0z" transform="matrix(.16 0 0 1.02661 855.7 168.6)"/><path fill="#d0e2f3" stroke="#231f20" stroke-width="1.7" d="M0 48h200v15H0z" transform="matrix(.16 0 0 1.02661 890 168.6)"/><path fill="#d0e2f3" stroke="#231f20" stroke-width="1.7" d="M0 48h200v15H0z" transform="matrix(.16 0 0 1.02661 924.4 168.6)"/><path fill="#f6cccb" stroke="#231f20" stroke-width="1.7" d="M0 48h200v15H0z" transform="matrix(.16 0 0 1.02661 854 138)"/><path fill="#f6cccb" stroke="#231f20" stroke-width="1.7" d="M0 48h200v15H0z" transform="matrix(.16 0 0 1.02661 889.7 138.2)"/><path fill="#f6cccb" stroke="#231f20" stroke-width="1.7" d="M0 48h200v15H0z" transform="matrix(.16 0 0 1.02661 821.3 204.4)"/><path fill="#f6cccb" stroke="#231f20" stroke-width="1.7" d="M0 48h200v15H0z" transform="matrix(.16 0 0 1.02661 855.7 204.4)"/><path fill="#f6cccb" stroke="#231f20" stroke-width="1.7" d="M0 48h200v15H0z" transform="matrix(.16 0 0 1.02661 890 204.4)"/><path fill="#f6cccb" stroke="#231f20" stroke-width="1.7" d="M0 48h200v15H0z" transform="matrix(.16 0 0 1.02661 924.4 204.4)"/><path fill="#dbead2" stroke="#231f20" stroke-width="1.7" d="M0 48h200v15H0z" transform="matrix(.16 0 0 1.02661 854 120.1)"/><path fill="#dbead2" stroke="#231f20" stroke-width="1.7" d="M0 48h200v15H0z" transform="matrix(.16 0 0 1.02661 889.7 120.3)"/><path fill="#dbead2" stroke="#231f20" stroke-width="1.7" d="M0 48h200v15H0z" transform="matrix(.16 0 0 1.02661 821.3 186.5)"/><path fill="#dbead2" stroke="#231f20" stroke-width="1.7" d="M0 48h200v15H0z" transform="matrix(.16 0 0 1.02661 855.7 186.5)"/><path fill="#dbead2" stroke="#231f20" stroke-width="1.7" d="M0 48h200v15H0z" transform="matrix(.16 0 0 1.02661 890 186.5)"/><path fill="#dbead2" stroke="#231f20" stroke-width="1.7" d="M0 48h200v15H0z" transform="matrix(.16 0 0 1.02661 924.4 186.5)"/><path d="M829 290l7-20.9 7 20.8M853.3 289.9L835.9 269M867.9 289.9L836 269.3M867.9 289.9l5.1-20.6M853.3 289.9l19.7-20.6M882.4 289.9l-9.4-20.6M895 289.9l-22-20.6M882.4 289.9l23.6-20.6M908 289.9l-2-20.6M921 289.9l-15-20.6 2 20.6 30-20.6M921 289.9l17-20.6M933.4 289.9l4.6-20.6M947 289.9l-9-20.6M838 217l32-14M870 217v-14M905 217v-14M940 217l-35-14M871.7 151l16-14M905 151l-17.3-14" fill="none" stroke="#231f20" stroke-width="1.3"/><g><text x="6" y="26.9" font-family="'ArialMT','Arial',sans-serif" font-size="33.3" fill="#231f20" transform="translate(1 2)">Single Frame</text></g><g><text x="6" y="26.9" font-family="'ArialMT','Arial',sans-serif" font-size="33.3" fill="#231f20" transform="translate(286 2)">Late Fusion</text></g><g><text x="6" y="26.9" font-family="'ArialMT','Arial',sans-serif" font-size="33.3" fill="#231f20" transform="translate(540.3 2)">Early Fusion</text></g><g><text x="6" y="26.9" font-family="'ArialMT','Arial',sans-serif" font-size="33.3" fill="#231f20" transform="translate(779.6 1.8)">Slow Fusion</text></g><path d="M895 289.9l11-20.6" fill="none" stroke="#231f20" stroke-width="1.3"/><g><path fill="#fff3cd" stroke="#231f20" stroke-width="1.2" d="M0 48h200v15H0z" transform="matrix(.975 0 0 1.06667 275.8 -4.2)"/></g><g><path fill="#fff3cd" stroke="#231f20" stroke-width="1.2" d="M0 48h200v15H0z" transform="matrix(.975 0 0 1.06667 275.8 14.8)"/></g><g><path fill="#fff3cd" stroke="#231f20" stroke-width="1.2" d="M0 48h200v15H0z" transform="matrix(.975 0 0 1.06667 535.8 -5.7)"/></g><g><path fill="#fff3cd" stroke="#231f20" stroke-width="1.2" d="M0 48h200v15H0z" transform="matrix(.975 0 0 1.06667 782.8 -4.2)"/></g><g><path fill="#fff3cd" stroke="#231f20" stroke-width="1.2" d="M0 48h200v15H0z" transform="matrix(.975 0 0 1.06667 535.8 13.3)"/></g><g><path fill="#fff3cd" stroke="#231f20" stroke-width="1.2" d="M0 48h200v15H0z" transform="matrix(.975 0 0 1.06667 782.8 14.8)"/></g><g><path fill="#fff" stroke="#231f20" stroke-width="1.9" d="M0 291h200v49.1H0z" transform="matrix(.065 0 0 .9389 187 16.8)"/><path fill="#b9b6b6" stroke="#231f20" stroke-width="1.9" d="M0 291h200v49.1H0z" transform="matrix(.065 0 0 .9389 96 16.8)"/><path fill="#fff" stroke="#231f20" stroke-width="1.9" d="M0 291h200v49.1H0z" transform="matrix(.065 0 0 .9389 135 16.8)"/><path fill="#fff" stroke="#231f20" stroke-width="1.9" d="M0 291h200v49.1H0z" transform="matrix(.065 0 0 .9389 44 16.8)"/><path fill="#fff" stroke="#231f20" stroke-width="1.9" d="M0 291h200v49.1H0z" transform="matrix(.065 0 0 .9389 161 16.8)"/><path fill="#fff" stroke="#231f20" stroke-width="1.9" d="M0 291h200v49.1H0z" transform="matrix(.065 0 0 .9389 70 16.8)"/><path fill="#fff" stroke="#231f20" stroke-width="1.9" d="M0 291h200v49.1H0z" transform="matrix(.065 0 0 .9389 109 16.8)"/><path fill="#fff" stroke="#231f20" stroke-width="1.9" d="M0 291h200v49.1H0z" transform="matrix(.065 0 0 .9389 18 16.8)"/><path fill="#fff" stroke="#231f20" stroke-width="1.9" d="M0 291h200v49.1H0z" transform="matrix(.065 0 0 .9389 174 16.8)"/><path fill="#fff" stroke="#231f20" stroke-width="1.9" d="M0 291h200v49.1H0z" transform="matrix(.065 0 0 .9389 83 16.8)"/><path fill="#fff" stroke="#231f20" stroke-width="1.9" d="M0 291h200v49.1H0z" transform="matrix(.065 0 0 .9389 122 16.8)"/><path fill="#fff" stroke="#231f20" stroke-width="1.9" d="M0 291h200v49.1H0z" transform="matrix(.065 0 0 .9389 31 16.8)"/><path fill="#fff" stroke="#231f20" stroke-width="1.9" d="M0 291h200v49.1H0z" transform="matrix(.065 0 0 .9389 148 16.8)"/><path fill="#fff" stroke="#231f20" stroke-width="1.9" d="M0 291h200v49.1H0z" transform="matrix(.065 0 0 .9389 57 16.8)"/><path fill="#fff" stroke="#231f20" stroke-width="1.9" d="M0 291h200v49.1H0z" transform="matrix(.065 0 0 .9389 5 16.8)"/></g><g><path fill="#b9b6b6" stroke="#231f20" stroke-width="1.9" d="M0 291h200v49.1H0z" transform="matrix(.065 0 0 .9389 456 16.8)"/><path fill="#fff" stroke="#231f20" stroke-width="1.9" d="M0 291h200v49.1H0z" transform="matrix(.065 0 0 .9389 365 16.8)"/><path fill="#fff" stroke="#231f20" stroke-width="1.9" d="M0 291h200v49.1H0z" transform="matrix(.065 0 0 .9389 404 16.8)"/><path fill="#fff" stroke="#231f20" stroke-width="1.9" d="M0 291h200v49.1H0z" transform="matrix(.065 0 0 .9389 313 16.8)"/><path fill="#fff" stroke="#231f20" stroke-width="1.9" d="M0 291h200v49.1H0z" transform="matrix(.065 0 0 .9389 430 16.8)"/><path fill="#fff" stroke="#231f20" stroke-width="1.9" d="M0 291h200v49.1H0z" transform="matrix(.065 0 0 .9389 339 16.8)"/><path fill="#fff" stroke="#231f20" stroke-width="1.9" d="M0 291h200v49.1H0z" transform="matrix(.065 0 0 .9389 378 16.8)"/><path fill="#fff" stroke="#231f20" stroke-width="1.9" d="M0 291h200v49.1H0z" transform="matrix(.065 0 0 .9389 287 16.8)"/><path fill="#fff" stroke="#231f20" stroke-width="1.9" d="M0 291h200v49.1H0z" transform="matrix(.065 0 0 .9389 443 16.8)"/><path fill="#fff" stroke="#231f20" stroke-width="1.9" d="M0 291h200v49.1H0z" transform="matrix(.065 0 0 .9389 352 16.8)"/><path fill="#fff" stroke="#231f20" stroke-width="1.9" d="M0 291h200v49.1H0z" transform="matrix(.065 0 0 .9389 391 16.8)"/><path fill="#fff" stroke="#231f20" stroke-width="1.9" d="M0 291h200v49.1H0z" transform="matrix(.065 0 0 .9389 300 16.8)"/><path fill="#fff" stroke="#231f20" stroke-width="1.9" d="M0 291h200v49.1H0z" transform="matrix(.065 0 0 .9389 417 16.8)"/><path fill="#fff" stroke="#231f20" stroke-width="1.9" d="M0 291h200v49.1H0z" transform="matrix(.065 0 0 .9389 326 16.8)"/><path fill="#b9b6b6" stroke="#231f20" stroke-width="1.9" d="M0 291h200v49.1H0z" transform="matrix(.065 0 0 .9389 274 16.8)"/></g><g><path fill="#fff" stroke="#231f20" stroke-width="1.9" d="M0 291h200v49.1H0z" transform="matrix(.065 0 0 .9389 718.3 16.1)"/><path fill="#b9b6b6" stroke="#231f20" stroke-width="1.9" d="M0 291h200v49.1H0z" transform="matrix(.065 0 0 .9389 627.3 16.1)"/><path fill="#fff" stroke="#231f20" stroke-width="1.9" d="M0 291h200v49.1H0z" transform="matrix(.065 0 0 .9389 666.3 16.1)"/><path fill="#fff" stroke="#231f20" stroke-width="1.9" d="M0 291h200v49.1H0z" transform="matrix(.065 0 0 .9389 575.3 16.1)"/><path fill="#fff" stroke="#231f20" stroke-width="1.9" d="M0 291h200v49.1H0z" transform="matrix(.065 0 0 .9389 692.3 16.1)"/><path fill="#b9b6b6" stroke="#231f20" stroke-width="1.9" d="M0 291h200v49.1H0z" transform="matrix(.065 0 0 .9389 601.3 16.1)"/><path fill="#b9b6b6" stroke="#231f20" stroke-width="1.9" d="M0 291h200v49.1H0z" transform="matrix(.065 0 0 .9389 640.3 16.1)"/><path fill="#fff" stroke="#231f20" stroke-width="1.9" d="M0 291h200v49.1H0z" transform="matrix(.065 0 0 .9389 549.3 16.1)"/><path fill="#fff" stroke="#231f20" stroke-width="1.9" d="M0 291h200v49.1H0z" transform="matrix(.065 0 0 .9389 705.3 16.1)"/><path fill="#b9b6b6" stroke="#231f20" stroke-width="1.9" d="M0 291h200v49.1H0z" transform="matrix(.065 0 0 .9389 614.3 16.1)"/><path fill="#b9b6b6" stroke="#231f20" stroke-width="1.9" d="M0 291h200v49.1H0z" transform="matrix(.065 0 0 .9389 653.3 16.1)"/><path fill="#fff" stroke="#231f20" stroke-width="1.9" d="M0 291h200v49.1H0z" transform="matrix(.065 0 0 .9389 562.3 16.1)"/><path fill="#fff" stroke="#231f20" stroke-width="1.9" d="M0 291h200v49.1H0z" transform="matrix(.065 0 0 .9389 679.3 16.1)"/><path fill="#fff" stroke="#231f20" stroke-width="1.9" d="M0 291h200v49.1H0z" transform="matrix(.065 0 0 .9389 588.3 16.1)"/><path fill="#fff" stroke="#231f20" stroke-width="1.9" d="M0 291h200v49.1H0z" transform="matrix(.065 0 0 .9389 536.3 16.1)"/></g><g><path fill="#fff" stroke="#231f20" stroke-width="1.9" d="M0 291h200v49.1H0z" transform="matrix(.065 0 0 .9389 966 16.6)"/><path fill="#b9b6b6" stroke="#231f20" stroke-width="1.9" d="M0 291h200v49.1H0z" transform="matrix(.065 0 0 .9389 875 16.6)"/><path fill="#b9b6b6" stroke="#231f20" stroke-width="1.9" d="M0 291h200v49.1H0z" transform="matrix(.065 0 0 .9389 914 16.6)"/><path fill="#b9b6b6" stroke="#231f20" stroke-width="1.9" d="M0 291h200v49.1H0z" transform="matrix(.065 0 0 .9389 823 16.6)"/><path fill="#b9b6b6" stroke="#231f20" stroke-width="1.9" d="M0 291h200v49.1H0z" transform="matrix(.065 0 0 .9389 940 16.6)"/><path fill="#b9b6b6" stroke="#231f20" stroke-width="1.9" d="M0 291h200v49.1H0z" transform="matrix(.065 0 0 .9389 849 16.6)"/><path fill="#b9b6b6" stroke="#231f20" stroke-width="1.9" d="M0 291h200v49.1H0z" transform="matrix(.065 0 0 .9389 888 16.6)"/><path fill="#fff" stroke="#231f20" stroke-width="1.9" d="M0 291h200v49.1H0z" transform="matrix(.065 0 0 .9389 797 16.6)"/><path fill="#fff" stroke="#231f20" stroke-width="1.9" d="M0 291h200v49.1H0z" transform="matrix(.065 0 0 .9389 953 16.6)"/><path fill="#b9b6b6" stroke="#231f20" stroke-width="1.9" d="M0 291h200v49.1H0z" transform="matrix(.065 0 0 .9389 862 16.6)"/><path fill="#b9b6b6" stroke="#231f20" stroke-width="1.9" d="M0 291h200v49.1H0z" transform="matrix(.065 0 0 .9389 901 16.6)"/><path fill="#fff" stroke="#231f20" stroke-width="1.9" d="M0 291h200v49.1H0z" transform="matrix(.065 0 0 .9389 810 16.6)"/><path fill="#b9b6b6" stroke="#231f20" stroke-width="1.9" d="M0 291h200v49.1H0z" transform="matrix(.065 0 0 .9389 927 16.6)"/><path fill="#b9b6b6" stroke="#231f20" stroke-width="1.9" d="M0 291h200v49.1H0z" transform="matrix(.065 0 0 .9389 836 16.6)"/><path fill="#fff" stroke="#231f20" stroke-width="1.9" d="M0 291h200v49.1H0z" transform="matrix(.065 0 0 .9389 784 16.6)"/></g><g><path d="M102.5 290v-21.4" fill="none" stroke="#231f20" stroke-width="1.3"/></g><g><path d="M274 288l26-18.7" fill="none" stroke="#231f20" stroke-width="1.2" transform="matrix(1 0 0 1.1 0 -26.8)"/></g><path d="M445 269.4l24.8 20.6" fill="none" stroke="#231f20" stroke-width="1.3"/><g><path d="M610 289.4l25-21.4-.2 22.2" fill="none" stroke="#231f20" stroke-width="1.3" transform="matrix(.961 0 0 .9622 23.8 10.1)"/></g><path d="M622 289.4l12-21.4M647 289.4L634 268M660 289.4L634 268" fill="none" stroke="#231f20" stroke-width="1.3"/></svg>